{
.appVersion = "1141";
DisplayStrings = (

glyphs = (
{
color = 7;
glyphname = .notdef;
lastChange = "2018-07-13 14:14:58 +0000";
layers = (
{
background = {
paths = (
{
closed = 1;
nodes = (
"168 710 LINE",
"42 0 LINE",
"596 0 LINE",
"722 710 LINE"
);
},
{
closed = 1;
nodes = (
"524 48 LINE",
"132 48 LINE",
"376 314 LINE"
);
},
{
closed = 1;
nodes = (
"351 353 LINE",
"111 89 LINE",
"205 619 LINE"
);
},
{
closed = 1;
nodes = (
"559 89 LINE",
"411 356 LINE",
"653 619 LINE"
);
},
{
closed = 1;
nodes = (
"387 396 LINE",
"240 662 LINE",
"632 662 LINE"
);
}
);
};
layerId = "CC363ACD-D5A5-4E19-A940-9AF36D109D9E";
paths = (
{
closed = 1;
nodes = (
"181 710 LINE",
"55 0 LINE",
"609 0 LINE",
"735 710 LINE"
);
},
{
closed = 1;
nodes = (
"539 48 LINE",
"147 48 LINE",
"392 315 LINE"
);
},
{
closed = 1;
nodes = (
"365 356 LINE",
"124 91 LINE",
"218 622 LINE"
);
},
{
closed = 1;
nodes = (
"572 86 LINE",
"425 352 LINE",
"666 616 LINE"
);
},
{
closed = 1;
nodes = (
"400 392 LINE",
"251 662 LINE",
"643 662 LINE"
);
}
);
width = 755;
},
{
background = {
paths = (
{
closed = 1;
nodes = (
"48 710 LINE",
"48 0 LINE",
"612 0 LINE",
"612 710 LINE"
);
},
{
closed = 1;
nodes = (
"531 48 LINE",
"129 48 LINE",
"331 314 LINE"
);
},
{
closed = 1;
nodes = (
"299 353 LINE",
"101 89 LINE",
"101 619 LINE"
);
},
{
closed = 1;
nodes = (
"559 89 LINE",
"359 356 LINE",
"559 619 LINE"
);
},
{
closed = 1;
nodes = (
"328 396 LINE",
"129 662 LINE",
"531 662 LINE"
);
}
);
};
layerId = "C1DA716A-5F29-4CD0-A38F-CCADF5849A80";
paths = (
{
closed = 1;
nodes = (
"127 710 LINE",
"1 0 LINE",
"555 0 LINE",
"681 710 LINE"
);
},
{
closed = 1;
nodes = (
"485 48 LINE",
"93 48 LINE",
"338 315 LINE"
);
},
{
closed = 1;
nodes = (
"311 356 LINE",
"70 91 LINE",
"164 622 LINE"
);
},
{
closed = 1;
nodes = (
"518 86 LINE",
"371 352 LINE",
"612 616 LINE"
);
},
{
closed = 1;
nodes = (
"346 392 LINE",
"197 662 LINE",
"589 662 LINE"
);
}
);
width = 651;
},
{
layerId = "6641C2CA-B9F9-47EE-AEEC-6BEE387D8CB9";
paths = (
{
closed = 1;
nodes = (
"159 710 LINE",
"33 0 LINE",
"587 0 LINE",
"713 710 LINE"
);
},
{
closed = 1;
nodes = (
"517 48 LINE",
"125 48 LINE",
"370 315 LINE"
);
},
{
closed = 1;
nodes = (
"343 356 LINE",
"102 91 LINE",
"196 622 LINE"
);
},
{
closed = 1;
nodes = (
"550 86 LINE",
"403 352 LINE",
"644 616 LINE"
);
},
{
closed = 1;
nodes = (
"378 392 LINE",
"229 662 LINE",
"621 662 LINE"
);
}
);
width = 714;
}
);
leftMetricsKey = H;
rightMetricsKey = H;
},
{
color = 9;
glyphname = A;
lastChange = "2018-07-13 14:14:58 +0000";
layers = (
{
anchors = (
{
name = bottom;
position = "{256, 0}";
},
{
name = ogonek;
position = "{524, 0}";
},
{
name = top;
position = "{364, 690}";
}
);
background = {
anchors = (
{
name = bottom;
position = "{312, 0}";
},
{
name = ogonek;
position = "{590, 0}";
},
{
name = top;
position = "{307, 690}";
}
);
paths = (
{
closed = 1;
nodes = (
"500 203 LINE",
"493 221 LINE",
"122 221 LINE",
"115 203 LINE"
);
},
{
closed = 1;
nodes = (
"315 690 LINE",
"298 690 LINE",
"16 0 LINE",
"37 0 LINE",
"306 662 LINE",
"307 662 LINE",
"575 0 LINE",
"597 0 LINE"
);
}
);
};
layerId = "CC363ACD-D5A5-4E19-A940-9AF36D109D9E";
paths = (
{
closed = 1;
nodes = (
"363 662 LINE",
"364 662 LINE",
"510 0 LINE",
"531 0 LINE",
"376 690 LINE",
"359 690 LINE",
"-40 0 LINE",
"-18 0 LINE"
);
},
{
closed = 1;
nodes = (
"475 203 LINE",
"471 221 LINE",
"100 221 LINE",
"90 203 LINE"
);
}
);
width = 581;
},
{
anchors = (
{
name = bottom;
position = "{349, 0}";
},
{
name = ogonek;
position = "{662, 0}";
},
{
name = top;
position = "{449, 690}";
}
);
background = {
paths = (
{
closed = 1;
nodes = (
"432 566 LINE",
"439 566 LINE",
"478 0 LINE",
"698 0 LINE",
"612 710 LINE",
"302 710 LINE",
"-36 0 LINE",
"189 0 LINE"
);
},
{
closed = 1;
nodes = (
"560 111 LINE",
"587 263 LINE",
"175 263 LINE",
"148 111 LINE"
);
}
);
};
layerId = "C1DA716A-5F29-4CD0-A38F-CCADF5849A80";
paths = (
{
closed = 1;
nodes = (
"421 491 LINE",
"422 491 LINE",
"484 0 LINE",
"704 0 LINE",
"569 690 LINE",
"339 690 LINE",
"-42 0 LINE",
"183 0 LINE"
);
},
{
closed = 1;
nodes = (
"560 101 LINE",
"587 253 LINE",
"175 253 LINE",
"148 101 LINE"
);
}
);
width = 756;
},
{
anchors = (
{
name = bottom;
position = "{296, 0}";
},
{
name = ogonek;
position = "{556, 0}";
},
{
name = top;
position = "{389, 690}";
}
);
background = {
paths = (
{
closed = 1;
nodes = (
"383 623 LINE",
"388 623 LINE",
"497 0 LINE",
"605 0 LINE",
"464 710 LINE",
"327 710 LINE",
"-59 0 LINE",
"53 0 LINE"
);
},
{
closed = 1;
nodes = (
"502 153 LINE",
"517 238 LINE",
"106 238 LINE",
"90 153 LINE"
);
}
);
};
guideLines = (
{
angle = 80;
position = "{338, 353}";
}
);
layerId = "6641C2CA-B9F9-47EE-AEEC-6BEE387D8CB9";
paths = (
{
closed = 1;
nodes = (
"373 558 LINE",
"374 558 LINE",
"480 0 LINE",
"587 0 LINE",
"444 690 LINE",
"343 690 LINE",
"-41 0 LINE",
"71 0 LINE"
);
},
{
closed = 1;
nodes = (
"502 163 LINE",
"517 248 LINE",
"106 248 LINE",
"90 163 LINE"
);
}
);
width = 640;
}
);
unicode = 0041;
userData = {
RMXScaler = {
source = A;
};
};
},
{
color = 9;
glyphname = B;
lastChange = "2018-07-13 14:14:58 +0000";
layers = (
{
background = {
paths = (
{
closed = 1;
nodes = (
"75 0 LINE",
"197 690 LINE",
"177 690 LINE",
"55 0 LINE"
);
},
{
closed = 1;
nodes = (
"315 0 LINE SMOOTH",
"454 0 OFFCURVE",
"534 67 OFFCURVE",
"555 185 CURVE SMOOTH",
"576 301 OFFCURVE",
"509 340 OFFCURVE",
"445 352 CURVE",
"445 353 LINE",
"511 367 OFFCURVE",
"577 425 OFFCURVE",
"593 517 CURVE SMOOTH",
"613 631 OFFCURVE",
"557 690 OFFCURVE",
"422 690 CURVE SMOOTH",
"187 690 LINE",
"184 672 LINE",
"419 672 LINE SMOOTH",
"543 672 OFFCURVE",
"590 619 OFFCURVE",
"573 517 CURVE SMOOTH",
"559 435 OFFCURVE",
"496 360 OFFCURVE",
"384 360 CURVE SMOOTH",
"129 360 LINE",
"125 342 LINE",
"380 342 LINE SMOOTH",
"492 342 OFFCURVE",
"554 292 OFFCURVE",
"535 185 CURVE SMOOTH",
"516 78 OFFCURVE",
"446 18 OFFCURVE",
"318 18 CURVE SMOOTH",
"68 18 LINE",
"65 0 LINE"
);
}
);
};
layerId = "CC363ACD-D5A5-4E19-A940-9AF36D109D9E";
paths = (
{
closed = 1;
nodes = (
"75 0 LINE",
"197 690 LINE",
"177 690 LINE",
"55 0 LINE"
);
},
{
closed = 1;
nodes = (
"317 0 LINE SMOOTH",
"456 0 OFFCURVE",
"534 60 OFFCURVE",
"553 168 CURVE SMOOTH",
"573 284 OFFCURVE",
"506 337 OFFCURVE",
"442 349 CURVE",
"442 350 LINE",
"511 364 OFFCURVE",
"576 413 OFFCURVE",
"590 505 CURVE SMOOTH",
"607 617 OFFCURVE",
"550 690 OFFCURVE",
"415 690 CURVE SMOOTH",
"187 690 LINE",
"184 672 LINE",
"414 672 LINE SMOOTH",
"538 672 OFFCURVE",
"586 609 OFFCURVE",
"571 507 CURVE SMOOTH",
"559 424 OFFCURVE",
"495 360 OFFCURVE",
"383 360 CURVE SMOOTH",
"129 360 LINE",
"125 342 LINE",
"381 342 LINE SMOOTH",
"493 342 OFFCURVE",
"552 277 OFFCURVE",
"533 170 CURVE SMOOTH",
"516 73 OFFCURVE",
"446 18 OFFCURVE",
"318 18 CURVE SMOOTH",
"68 18 LINE",
"65 0 LINE"
);
}
);
width = 628;
},
{
background = {
paths = (
{
closed = 1;
nodes = (
"213 0 LINE",
"335 690 LINE",
"123 690 LINE",
"1 0 LINE"
);
},
{
closed = 1;
nodes = (
"549 347 LINE",
"629 374 OFFCURVE",
"677 426 OFFCURVE",
"677 524 CURVE SMOOTH",
"677 624 OFFCURVE",
"599 690 OFFCURVE",
"448 690 CURVE SMOOTH",
"314 690 LINE",
"287 536 LINE",
"398 536 LINE SMOOTH",
"450 536 OFFCURVE",
"470 515 OFFCURVE",
"470 483 CURVE SMOOTH",
"470 439 OFFCURVE",
"445 415 OFFCURVE",
"381 415 CURVE SMOOTH",
"265 415 LINE",
"243 275 LINE",
"367 275 LINE SMOOTH",
"421 275 OFFCURVE",
"440 255 OFFCURVE",
"440 220 CURVE SMOOTH",
"440 176 OFFCURVE",
"417 154 OFFCURVE",
"352 154 CURVE SMOOTH",
"220 154 LINE",
"192 0 LINE",
"370 0 LINE SMOOTH",
"542 0 OFFCURVE",
"650 61 OFFCURVE",
"650 202 CURVE SMOOTH",
"650 279 OFFCURVE",
"612 322 OFFCURVE",
"549 346 CURVE"
);
}
);
};
layerId = "C1DA716A-5F29-4CD0-A38F-CCADF5849A80";
paths = (
{
closed = 1;
nodes = (
"213 0 LINE",
"335 690 LINE",
"123 690 LINE",
"1 0 LINE"
);
},
{
closed = 1;
nodes = (
"370 0 LINE SMOOTH",
"542 0 OFFCURVE",
"650 61 OFFCURVE",
"650 202 CURVE SMOOTH",
"650 279 OFFCURVE",
"612 322 OFFCURVE",
"554 346 CURVE",
"554 347 LINE",
"629 374 OFFCURVE",
"677 426 OFFCURVE",
"677 524 CURVE SMOOTH",
"677 624 OFFCURVE",
"599 690 OFFCURVE",
"448 690 CURVE SMOOTH",
"314 690 LINE",
"287 536 LINE",
"398 536 LINE SMOOTH",
"450 536 OFFCURVE",
"470 515 OFFCURVE",
"470 483 CURVE SMOOTH",
"470 439 OFFCURVE",
"445 415 OFFCURVE",
"381 415 CURVE SMOOTH",
"265 415 LINE",
"243 275 LINE",
"367 275 LINE SMOOTH",
"421 275 OFFCURVE",
"440 255 OFFCURVE",
"440 220 CURVE SMOOTH",
"440 176 OFFCURVE",
"417 154 OFFCURVE",
"352 154 CURVE SMOOTH",
"220 154 LINE",
"192 0 LINE"
);
}
);
width = 685;
},
{
background = {
paths = (
{
closed = 1;
nodes = (
"137 0 LINE",
"262 710 LINE",
"159 710 LINE",
"34 0 LINE"
);
},
{
closed = 1;
nodes = (
"521 357 LINE",
"602 372 OFFCURVE",
"673 423 OFFCURVE",
"673 540 CURVE SMOOTH",
"673 646 OFFCURVE",
"602 710 OFFCURVE",
"467 710 CURVE SMOOTH",
"246 710 LINE",
"232 623 LINE",
"452 623 LINE SMOOTH",
"535 623 OFFCURVE",
"571 589 OFFCURVE",
"571 530 CURVE SMOOTH",
"571 438 OFFCURVE",
"514 396 OFFCURVE",
"412 396 CURVE SMOOTH",
"191 396 LINE",
"177 314 LINE",
"402 314 LINE SMOOTH",
"485 314 OFFCURVE",
"531 281 OFFCURVE",
"531 220 CURVE SMOOTH",
"531 121 OFFCURVE",
"474 87 OFFCURVE",
"364 87 CURVE SMOOTH",
"137 87 LINE",
"121 0 LINE",
"354 0 LINE SMOOTH",
"542 0 OFFCURVE",
"633 71 OFFCURVE",
"633 208 CURVE SMOOTH",
"633 288 OFFCURVE",
"587 336 OFFCURVE",
"520 351 CURVE"
);
}
);
};
layerId = "6641C2CA-B9F9-47EE-AEEC-6BEE387D8CB9";
paths = (
{
closed = 1;
nodes = (
"137 0 LINE",
"258 690 LINE",
"155 690 LINE",
"34 0 LINE"
);
},
{
closed = 1;
nodes = (
"330 0 LINE SMOOTH",
"518 0 OFFCURVE",
"589 81 OFFCURVE",
"589 208 CURVE SMOOTH",
"589 283 OFFCURVE",
"540 326 OFFCURVE",
"493 341 CURVE",
"493 342 LINE",
"564 357 OFFCURVE",
"629 413 OFFCURVE",
"629 520 CURVE SMOOTH",
"629 626 OFFCURVE",
"564 690 OFFCURVE",
"429 690 CURVE SMOOTH",
"242 690 LINE",
"228 603 LINE",
"414 603 LINE SMOOTH",
"497 603 OFFCURVE",
"528 569 OFFCURVE",
"528 510 CURVE SMOOTH",
"528 428 OFFCURVE",
"478 388 OFFCURVE",
"376 388 CURVE SMOOTH",
"189 388 LINE",
"175 306 LINE",
"366 306 LINE SMOOTH",
"449 306 OFFCURVE",
"488 271 OFFCURVE",
"488 210 CURVE SMOOTH",
"488 121 OFFCURVE",
"440 87 OFFCURVE",
"330 87 CURVE SMOOTH",
"137 87 LINE",
"121 0 LINE"
);
}
);
width = 648;
}
);
leftMetricsKey = H;
unicode = 0042;
userData = {
RMXScaler = {
source = B;
};
};
},
{
color = 9;
glyphname = C;
lastChange = "2018-07-13 14:14:58 +0000";
layers = (
{
anchors = (
{
name = bottom;
position = "{311, 0}";
},
{
name = top;
position = "{397, 690}";
}
);
background = {
anchors = (
{
name = bottom;
position = "{367, 0}";
},
{
name = top;
position = "{363, 690}";
}
);
paths = (
{
closed = 1;
nodes = (
"495 -15 OFFCURVE",
"584 49 OFFCURVE",
"631 210 CURVE",
"611 210 LINE",
"567 66 OFFCURVE",
"489 4 OFFCURVE",
"359 4 CURVE SMOOTH",
"191 4 OFFCURVE",
"81 119 OFFCURVE",
"81 346 CURVE SMOOTH",
"81 571 OFFCURVE",
"191 686 OFFCURVE",
"359 686 CURVE SMOOTH",
"486 686 OFFCURVE",
"563 634 OFFCURVE",
"606 485 CURVE",
"626 485 LINE",
"580 651 OFFCURVE",
"492 705 OFFCURVE",
"359 705 CURVE SMOOTH",
"181 705 OFFCURVE",
"61 583 OFFCURVE",
"61 346 CURVE SMOOTH",
"61 107 OFFCURVE",
"181 -15 OFFCURVE",
"359 -15 CURVE SMOOTH"
);
}
);
};
layerId = "CC363ACD-D5A5-4E19-A940-9AF36D109D9E";
paths = (
{
closed = 1;
nodes = (
"450 -15 OFFCURVE",
"537 49 OFFCURVE",
"602 210 CURVE",
"580 210 LINE",
"521 66 OFFCURVE",
"444 4 OFFCURVE",
"314 4 CURVE SMOOTH",
"146 4 OFFCURVE",
"48 124 OFFCURVE",
"87 356 CURVE SMOOTH",
"123 572 OFFCURVE",
"232 686 OFFCURVE",
"400 686 CURVE SMOOTH",
"517 686 OFFCURVE",
"589 634 OFFCURVE",
"621 485 CURVE",
"641 485 LINE",
"607 651 OFFCURVE",
"521 705 OFFCURVE",
"400 705 CURVE SMOOTH",
"222 705 OFFCURVE",
"105 583 OFFCURVE",
"67 356 CURVE SMOOTH",
"26 113 OFFCURVE",
"136 -15 OFFCURVE",
"314 -15 CURVE SMOOTH"
);
}
);
width = 660;
},
{
anchors = (
{
name = bottom;
position = "{332, 0}";
},
{
name = top;
position = "{422, 690}";
}
);
background = {
paths = (
{
closed = 1;
nodes = (
"566 -15 OFFCURVE",
"658 81 OFFCURVE",
"696 257 CURVE",
"490 277 LINE",
"472 201 OFFCURVE",
"440 158 OFFCURVE",
"368 158 CURVE SMOOTH",
"276 158 OFFCURVE",
"240 219 OFFCURVE",
"265 363 CURVE SMOOTH",
"289 501 OFFCURVE",
"335 552 OFFCURVE",
"411 552 CURVE SMOOTH",
"484 552 OFFCURVE",
"518 517 OFFCURVE",
"520 432 CURVE",
"726 442 LINE",
"732 613 OFFCURVE",
"628 725 OFFCURVE",
"426 725 CURVE SMOOTH",
"214 725 OFFCURVE",
"85 617 OFFCURVE",
"43 373 CURVE SMOOTH",
"1 130 OFFCURVE",
"126 -15 OFFCURVE",
"353 -15 CURVE SMOOTH"
);
}
);
};
guideLines = (
{
angle = 80;
position = "{40, 353}";
}
);
layerId = "C1DA716A-5F29-4CD0-A38F-CCADF5849A80";
paths = (
{
closed = 1;
nodes = (
"516 -15 OFFCURVE",
"620 59 OFFCURVE",
"681 278 CURVE",
"475 278 LINE",
"442 197 OFFCURVE",
"413 158 OFFCURVE",
"346 158 CURVE SMOOTH",
"275 158 OFFCURVE",
"245 212 OFFCURVE",
"268 343 CURVE SMOOTH",
"290 471 OFFCURVE",
"327 532 OFFCURVE",
"402 532 CURVE SMOOTH",
"465 532 OFFCURVE",
"487 497 OFFCURVE",
"500 422 CURVE",
"706 422 LINE",
"688 618 OFFCURVE",
"601 705 OFFCURVE",
"414 705 CURVE SMOOTH",
"205 705 OFFCURVE",
"83 582 OFFCURVE",
"45 353 CURVE SMOOTH",
"7 124 OFFCURVE",
"114 -15 OFFCURVE",
"323 -15 CURVE SMOOTH"
);
}
);
width = 709;
},
{
anchors = (
{
name = bottom;
position = "{325, 0}";
},
{
name = top;
position = "{415, 690}";
}
);
background = {
paths = (
{
closed = 1;
nodes = (
"494 -15 OFFCURVE",
"587 64 OFFCURVE",
"649 241 CURVE",
"542 241 LINE",
"492 128 OFFCURVE",
"439 76 OFFCURVE",
"332 76 CURVE SMOOTH",
"193 76 OFFCURVE",
"138 186 OFFCURVE",
"168 355 CURVE SMOOTH",
"198 524 OFFCURVE",
"273 614 OFFCURVE",
"406 614 CURVE SMOOTH",
"518 614 OFFCURVE",
"555 567 OFFCURVE",
"579 459 CURVE",
"684 459 LINE",
"652 636 OFFCURVE",
"572 705 OFFCURVE",
"412 705 CURVE SMOOTH",
"217 705 OFFCURVE",
"100 577 OFFCURVE",
"61 355 CURVE SMOOTH",
"22 133 OFFCURVE",
"119 -15 OFFCURVE",
"321 -15 CURVE SMOOTH"
);
}
);
};
layerId = "6641C2CA-B9F9-47EE-AEEC-6BEE387D8CB9";
paths = (
{
closed = 1;
nodes = (
"494 -15 OFFCURVE",
"587 64 OFFCURVE",
"649 241 CURVE",
"542 241 LINE",
"492 128 OFFCURVE",
"439 76 OFFCURVE",
"332 76 CURVE SMOOTH",
"193 76 OFFCURVE",
"139 186 OFFCURVE",
"168 355 CURVE SMOOTH",
"196 519 OFFCURVE",
"273 614 OFFCURVE",
"406 614 CURVE SMOOTH",
"518 614 OFFCURVE",
"555 567 OFFCURVE",
"579 459 CURVE",
"684 459 LINE",
"652 636 OFFCURVE",
"567 705 OFFCURVE",
"412 705 CURVE SMOOTH",
"217 705 OFFCURVE",
"100 577 OFFCURVE",
"61 355 CURVE SMOOTH",
"22 133 OFFCURVE",
"119 -15 OFFCURVE",
"321 -15 CURVE SMOOTH"
);
}
);
width = 698;
}
);
leftMetricsKey = O;
unicode = 0043;
userData = {
RMXScaler = {
source = C;
};
};
},
{
color = 9;
glyphname = D;
lastChange = "2018-07-13 14:14:58 +0000";
layers = (
{
anchors = (
{
name = top;
position = "{367, 690}";
}
);
background = {
paths = (
{
closed = 1;
nodes = (
"75 0 LINE",
"197 690 LINE",
"177 690 LINE",
"55 0 LINE"
);
},
{
closed = 1;
nodes = (
"66 18 LINE",
"63 0 LINE",
"266 0 LINE SMOOTH",
"455 0 OFFCURVE",
"574 107 OFFCURVE",
"616 345 CURVE SMOOTH",
"658 583 OFFCURVE",
"567 690 OFFCURVE",
"378 690 CURVE SMOOTH",
"187 690 LINE",
"184 672 LINE",
"374 672 LINE SMOOTH",
"552 672 OFFCURVE",
"636 574 OFFCURVE",
"596 345 CURVE SMOOTH",
"556 116 OFFCURVE",
"446 18 OFFCURVE",
"268 18 CURVE SMOOTH"
);
}
);
};
layerId = "CC363ACD-D5A5-4E19-A940-9AF36D109D9E";
paths = (
{
closed = 1;
nodes = (
"75 0 LINE",
"197 690 LINE",
"177 690 LINE",
"55 0 LINE"
);
},
{
closed = 1;
nodes = (
"66 18 LINE",
"63 0 LINE",
"268 0 LINE SMOOTH",
"457 0 OFFCURVE",
"573 97 OFFCURVE",
"613 325 CURVE SMOOTH",
"655 563 OFFCURVE",
"559 690 OFFCURVE",
"370 690 CURVE SMOOTH",
"187 690 LINE",
"184 672 LINE",
"369 672 LINE SMOOTH",
"547 672 OFFCURVE",
"633 556 OFFCURVE",
"593 327 CURVE SMOOTH",
"555 108 OFFCURVE",
"445 18 OFFCURVE",
"268 18 CURVE SMOOTH"
);
}
);
width = 651;
},
{
anchors = (
{
name = top;
position = "{372, 690}";
}
);
background = {
paths = (
{
closed = 1;
nodes = (
"221 0 LINE",
"347 710 LINE",
"127 710 LINE",
"1 0 LINE"
);
},
{
closed = 1;
nodes = (
"210 167 LINE",
"180 0 LINE",
"315 0 LINE SMOOTH",
"541 0 OFFCURVE",
"682 98 OFFCURVE",
"723 335 CURVE SMOOTH",
"765 575 OFFCURVE",
"645 710 OFFCURVE",
"431 710 CURVE SMOOTH",
"306 710 LINE",
"276 543 LINE",
"386 543 LINE SMOOTH",
"488 543 OFFCURVE",
"526 486 OFFCURVE",
"502 350 CURVE SMOOTH",
"478 214 OFFCURVE",
"427 167 OFFCURVE",
"335 167 CURVE SMOOTH"
);
}
);
};
layerId = "C1DA716A-5F29-4CD0-A38F-CCADF5849A80";
paths = (
{
closed = 1;
nodes = (
"221 0 LINE",
"343 690 LINE",
"123 690 LINE",
"1 0 LINE"
);
},
{
closed = 1;
nodes = (
"200 167 LINE",
"170 0 LINE",
"290 0 LINE SMOOTH",
"516 0 OFFCURVE",
"653 103 OFFCURVE",
"691 325 CURVE SMOOTH",
"730 555 OFFCURVE",
"611 690 OFFCURVE",
"387 690 CURVE SMOOTH",
"292 690 LINE",
"262 523 LINE",
"342 523 LINE SMOOTH",
"454 523 OFFCURVE",
"492 461 OFFCURVE",
"470 335 CURVE SMOOTH",
"448 209 OFFCURVE",
"387 167 OFFCURVE",
"295 167 CURVE SMOOTH"
);
}
);
width = 711;
},
{
anchors = (
{
name = top;
position = "{361, 690}";
}
);
background = {
paths = (
{
closed = 1;
nodes = (
"138 0 LINE",
"260 690 LINE",
"155 690 LINE",
"33 0 LINE"
);
},
{
closed = 1;
nodes = (
"119 90 LINE",
"103 0 LINE",
"259 0 LINE SMOOTH",
"482 0 OFFCURVE",
"601 101 OFFCURVE",
"640 325 CURVE SMOOTH",
"680 552 OFFCURVE",
"594 690 OFFCURVE",
"374 690 CURVE SMOOTH",
"225 690 LINE",
"209 600 LINE",
"364 600 LINE SMOOTH",
"515 600 OFFCURVE",
"567 519 OFFCURVE",
"535 335 CURVE SMOOTH",
"503 151 OFFCURVE",
"410 90 OFFCURVE",
"269 90 CURVE SMOOTH"
);
}
);
};
layerId = "6641C2CA-B9F9-47EE-AEEC-6BEE387D8CB9";
paths = (
{
closed = 1;
nodes = (
"138 0 LINE",
"260 690 LINE",
"155 690 LINE",
"33 0 LINE"
);
},
{
closed = 1;
nodes = (
"119 90 LINE",
"103 0 LINE",
"269 0 LINE SMOOTH",
"492 0 OFFCURVE",
"604 121 OFFCURVE",
"640 325 CURVE SMOOTH",
"679 544 OFFCURVE",
"594 690 OFFCURVE",
"374 690 CURVE SMOOTH",
"225 690 LINE",
"209 600 LINE",
"364 600 LINE SMOOTH",
"515 600 OFFCURVE",
"566 511 OFFCURVE",
"535 335 CURVE SMOOTH",
"506 171 OFFCURVE",
"420 90 OFFCURVE",
"279 90 CURVE SMOOTH"
);
}
);
width = 674;
}
);
leftMetricsKey = H;
rightMetricsKey = O;
unicode = 0044;
userData = {
RMXScaler = {
source = D;
};
};
},
{
color = 9;
glyphname = E;
lastChange = "2018-07-13 14:14:58 +0000";
layers = (
{
anchors = (
{
name = bottom;
position = "{270, 0}";
},
{
name = ogonek;
position = "{458, 0}";
},
{
name = top;
position = "{377, 690}";
}
);
background = {
anchors = (
{
name = bottom;
position = "{341, 0}";
},
{
name = ogonek;
position = "{529, 0}";
},
{
name = top;
position = "{329, 690}";
}
);
paths = (
{
closed = 1;
nodes = (
"136 0 LINE",
"136 690 LINE",
"116 690 LINE",
"116 0 LINE"
);
},
{
closed = 1;
nodes = (
"536 671 LINE",
"536 690 LINE",
"125 690 LINE",
"125 671 LINE"
);
},
{
closed = 1;
nodes = (
"476 342 LINE",
"476 361 LINE",
"127 361 LINE",
"127 342 LINE"
);
},
{
closed = 1;
nodes = (
"536 0 LINE",
"536 19 LINE",
"127 19 LINE",
"127 0 LINE"
);
}
);
};
layerId = "CC363ACD-D5A5-4E19-A940-9AF36D109D9E";
paths = (
{
closed = 1;
nodes = (
"75 0 LINE",
"197 690 LINE",
"177 690 LINE",
"55 0 LINE"
);
},
{
closed = 1;
nodes = (
"583 671 LINE",
"587 690 LINE",
"186 690 LINE",
"182 671 LINE"
);
},
{
closed = 1;
nodes = (
"465 342 LINE",
"469 361 LINE",
"130 361 LINE",
"126 342 LINE"
);
},
{
closed = 1;
nodes = (
"465 0 LINE",
"469 19 LINE",
"70 19 LINE",
"66 0 LINE"
);
}
);
width = 561;
},
{
anchors = (
{
name = bottom;
position = "{280, 0}";
},
{
name = ogonek;
position = "{488, 0}";
},
{
name = top;
position = "{384, 690}";
}
);
background = {
paths = (
{
closed = 1;
nodes = (
"215 0 LINE",
"340 710 LINE",
"126 710 LINE",
"1 0 LINE"
);
},
{
closed = 1;
nodes = (
"659 537 LINE",
"690 710 LINE",
"245 710 LINE",
"214 537 LINE"
);
},
{
closed = 1;
nodes = (
"552 279 LINE",
"578 430 LINE",
"213 430 LINE",
"187 279 LINE"
);
},
{
closed = 1;
nodes = (
"564 0 LINE",
"595 173 LINE",
"150 173 LINE",
"119 0 LINE"
);
}
);
};
layerId = "C1DA716A-5F29-4CD0-A38F-CCADF5849A80";
paths = (
{
closed = 1;
nodes = (
"215 0 LINE",
"337 690 LINE",
"123 690 LINE",
"1 0 LINE"
);
},
{
closed = 1;
nodes = (
"622 517 LINE",
"653 690 LINE",
"242 690 LINE",
"211 517 LINE"
);
},
{
closed = 1;
nodes = (
"517 269 LINE",
"543 420 LINE",
"212 420 LINE",
"186 269 LINE"
);
},
{
closed = 1;
nodes = (
"530 0 LINE",
"561 173 LINE",
"150 173 LINE",
"119 0 LINE"
);
}
);
width = 609;
},
{
anchors = (
{
name = bottom;
position = "{281, 0}";
},
{
name = ogonek;
position = "{468, 0}";
},
{
name = top;
position = "{383, 690}";
}
);
background = {
paths = (
{
closed = 1;
nodes = (
"159 0 LINE",
"159 690 LINE",
"54 690 LINE",
"54 0 LINE"
);
},
{
closed = 1;
nodes = (
"530 600 LINE",
"530 690 LINE",
"127 690 LINE",
"127 600 LINE"
);
},
{
closed = 1;
nodes = (
"465 304 LINE",
"465 390 LINE",
"140 390 LINE",
"140 304 LINE"
);
},
{
closed = 1;
nodes = (
"530 0 LINE",
"530 90 LINE",
"127 90 LINE",
"127 0 LINE"
);
}
);
};
layerId = "6641C2CA-B9F9-47EE-AEEC-6BEE387D8CB9";
paths = (
{
closed = 1;
nodes = (
"138 0 LINE",
"259 690 LINE",
"155 690 LINE",
"34 0 LINE"
);
},
{
closed = 1;
nodes = (
"604 600 LINE",
"621 690 LINE",
"227 690 LINE",
"211 600 LINE"
);
},
{
closed = 1;
nodes = (
"496 304 LINE",
"511 390 LINE",
"189 390 LINE",
"173 304 LINE"
);
},
{
closed = 1;
nodes = (
"499 0 LINE",
"515 90 LINE",
"122 90 LINE",
"106 0 LINE"
);
}
);
width = 596;
}
);
leftMetricsKey = "=H";
unicode = 0045;
userData = {
RMXScaler = {
source = E;
};
};
},
{
color = 9;
glyphname = F;
lastChange = "2018-07-13 14:14:58 +0000";
layers = (
{
background = {
paths = (
{
closed = 1;
nodes = (
"136 0 LINE",
"136 690 LINE",
"116 690 LINE",
"116 0 LINE"
);
},
{
closed = 1;
nodes = (
"521 671 LINE",
"521 690 LINE",
"125 690 LINE",
"125 671 LINE"
);
},
{
closed = 1;
nodes = (
"470 342 LINE",
"470 361 LINE",
"127 361 LINE",
"127 342 LINE"
);
}
);
};
layerId = "CC363ACD-D5A5-4E19-A940-9AF36D109D9E";
paths = (
{
closed = 1;
nodes = (
"75 0 LINE",
"197 690 LINE",
"177 690 LINE",
"55 0 LINE"
);
},
{
closed = 1;
nodes = (
"568 671 LINE",
"572 690 LINE",
"186 690 LINE",
"182 671 LINE"
);
},
{
closed = 1;
nodes = (
"459 342 LINE",
"463 361 LINE",
"130 361 LINE",
"126 342 LINE"
);
}
);
width = 516;
},
{
background = {
paths = (
{
closed = 1;
nodes = (
"221 0 LINE",
"346 710 LINE",
"126 710 LINE",
"1 0 LINE"
);
},
{
closed = 1;
nodes = (
"641 537 LINE",
"672 710 LINE",
"245 710 LINE",
"214 537 LINE"
);
},
{
closed = 1;
nodes = (
"527 248 LINE",
"554 401 LINE",
"190 401 LINE",
"163 248 LINE"
);
}
);
};
layerId = "C1DA716A-5F29-4CD0-A38F-CCADF5849A80";
paths = (
{
closed = 1;
nodes = (
"221 0 LINE",
"343 690 LINE",
"123 690 LINE",
"1 0 LINE"
);
},
{
closed = 1;
nodes = (
"602 517 LINE",
"633 690 LINE",
"242 690 LINE",
"211 517 LINE"
);
},
{
closed = 1;
nodes = (
"500 238 LINE",
"527 391 LINE",
"190 391 LINE",
"163 238 LINE"
);
}
);
width = 569;
},
{
background = {
paths = (
{
closed = 1;
nodes = (
"185 0 LINE",
"185 690 LINE",
"80 690 LINE",
"80 0 LINE"
);
},
{
closed = 1;
nodes = (
"537 600 LINE",
"537 690 LINE",
"154 690 LINE",
"154 600 LINE"
);
},
{
closed = 1;
nodes = (
"472 290 LINE",
"472 377 LINE",
"154 377 LINE",
"154 290 LINE"
);
}
);
};
layerId = "6641C2CA-B9F9-47EE-AEEC-6BEE387D8CB9";
paths = (
{
closed = 1;
nodes = (
"139 0 LINE",
"260 690 LINE",
"155 690 LINE",
"34 0 LINE"
);
},
{
closed = 1;
nodes = (
"585 600 LINE",
"602 690 LINE",
"229 690 LINE",
"212 600 LINE"
);
},
{
closed = 1;
nodes = (
"475 290 LINE",
"490 377 LINE",
"176 377 LINE",
"160 290 LINE"
);
}
);
width = 557;
}
);
leftMetricsKey = H;
unicode = 0046;
userData = {
RMXScaler = {
source = F;
};
};
},
{
color = 9;
glyphname = G;
lastChange = "2018-07-13 14:14:58 +0000";
layers = (
{
anchors = (
{
name = bottom;
position = "{326, 0}";
},
{
name = top;
position = "{400, 690}";
}
);
background = {
paths = (
{
closed = 1;
nodes = (
"434 -15 OFFCURVE",
"530 74 OFFCURVE",
"571 176 CURVE",
"572 176 LINE",
"544 0 LINE",
"560 0 LINE",
"620 340 LINE",
"335 340 LINE",
"332 322 LINE",
"607 322 LINE",
"600 331 LINE",
"591 285 LINE SMOOTH",
"559 124 OFFCURVE",
"459 4 OFFCURVE",
"299 4 CURVE SMOOTH",
"131 4 OFFCURVE",
"41 119 OFFCURVE",
"81 346 CURVE SMOOTH",
"121 571 OFFCURVE",
"227 686 OFFCURVE",
"395 686 CURVE SMOOTH",
"538 686 OFFCURVE",
"590 635 OFFCURVE",
"621 505 CURVE",
"639 505 LINE",
"608 648 OFFCURVE",
"544 705 OFFCURVE",
"396 705 CURVE SMOOTH",
"218 705 OFFCURVE",
"103 583 OFFCURVE",
"61 346 CURVE SMOOTH",
"19 107 OFFCURVE",
"118 -15 OFFCURVE",
"296 -15 CURVE SMOOTH"
);
}
);
};
guideLines = (
{
angle = 80;
position = "{150, 353}";
}
);
layerId = "CC363ACD-D5A5-4E19-A940-9AF36D109D9E";
paths = (
{
closed = 1;
nodes = (
"439 -15 OFFCURVE",
"530 74 OFFCURVE",
"571 176 CURVE",
"572 176 LINE",
"544 0 LINE",
"560 0 LINE",
"620 340 LINE",
"335 340 LINE",
"332 322 LINE",
"607 322 LINE",
"600 331 LINE",
"591 285 LINE SMOOTH",
"561 134 OFFCURVE",
"462 4 OFFCURVE",
"302 4 CURVE SMOOTH",
"139 4 OFFCURVE",
"47 129 OFFCURVE",
"87 356 CURVE SMOOTH",
"125 573 OFFCURVE",
"227 686 OFFCURVE",
"395 686 CURVE SMOOTH",
"528 686 OFFCURVE",
"583 635 OFFCURVE",
"621 505 CURVE",
"639 505 LINE",
"601 648 OFFCURVE",
"534 705 OFFCURVE",
"396 705 CURVE SMOOTH",
"218 705 OFFCURVE",
"106 583 OFFCURVE",
"67 356 CURVE SMOOTH",
"26 117 OFFCURVE",
"128 -15 OFFCURVE",
"301 -15 CURVE SMOOTH"
);
}
);
width = 688;
},
{
anchors = (
{
name = bottom;
position = "{367, 0}";
},
{
name = top;
position = "{423, 690}";
}
);
background = {
paths = (
{
closed = 1;
nodes = (
"379 -16 OFFCURVE",
"435 30 OFFCURVE",
"474 91 CURVE",
"475 91 LINE",
"482 0 LINE",
"642 0 LINE",
"712 393 LINE",
"402 393 LINE",
"377 253 LINE",
"536 253 LINE",
"506 288 LINE",
"502 269 LINE SMOOTH",
"488 202 OFFCURVE",
"438 144 OFFCURVE",
"361 144 CURVE SMOOTH",
"273 144 OFFCURVE",
"238 213 OFFCURVE",
"261 343 CURVE SMOOTH",
"284 473 OFFCURVE",
"329 540 OFFCURVE",
"403 540 CURVE SMOOTH",
"470 540 OFFCURVE",
"492 509 OFFCURVE",
"508 455 CURVE",
"718 455 LINE",
"692 606 OFFCURVE",
"627 705 OFFCURVE",
"413 705 CURVE SMOOTH",
"197 705 OFFCURVE",
"80 572 OFFCURVE",
"43 353 CURVE SMOOTH",
"4 124 OFFCURVE",
"97 -16 OFFCURVE",
"274 -16 CURVE SMOOTH"
);
}
);
};
layerId = "C1DA716A-5F29-4CD0-A38F-CCADF5849A80";
paths = (
{
closed = 1;
nodes = (
"379 -16 OFFCURVE",
"435 30 OFFCURVE",
"474 91 CURVE",
"475 91 LINE",
"482 0 LINE",
"642 0 LINE",
"712 393 LINE",
"402 393 LINE",
"377 253 LINE",
"536 253 LINE",
"506 288 LINE",
"501 269 LINE SMOOTH",
"484 203 OFFCURVE",
"438 144 OFFCURVE",
"361 144 CURVE SMOOTH",
"273 144 OFFCURVE",
"243 213 OFFCURVE",
"263 343 CURVE SMOOTH",
"283 473 OFFCURVE",
"327 540 OFFCURVE",
"408 540 CURVE SMOOTH",
"475 540 OFFCURVE",
"494 509 OFFCURVE",
"508 455 CURVE",
"718 455 LINE",
"687 616 OFFCURVE",
"617 705 OFFCURVE",
"413 705 CURVE SMOOTH",
"197 705 OFFCURVE",
"82 572 OFFCURVE",
"45 353 CURVE SMOOTH",
"6 124 OFFCURVE",
"97 -16 OFFCURVE",
"274 -16 CURVE SMOOTH"
);
}
);
width = 730;
},
{
anchors = (
{
name = bottom;
position = "{334, 0}";
},
{
name = top;
position = "{421, 690}";
}
);
background = {
paths = (
{
closed = 1;
nodes = (
"423 -16 OFFCURVE",
"486 39 OFFCURVE",
"533 112 CURVE",
"534 112 LINE",
"525 0 LINE",
"608 0 LINE",
"673 366 LINE",
"372 366 LINE",
"357 283 LINE",
"604 283 LINE",
"571 305 LINE",
"568 285 LINE SMOOTH",
"550 164 OFFCURVE",
"462 73 OFFCURVE",
"328 73 CURVE SMOOTH",
"190 73 OFFCURVE",
"132 181 OFFCURVE",
"163 355 CURVE SMOOTH",
"193 525 OFFCURVE",
"276 615 OFFCURVE",
"410 615 CURVE SMOOTH",
"524 615 OFFCURVE",
"556 570 OFFCURVE",
"583 479 CURVE",
"689 479 LINE",
"661 620 OFFCURVE",
"596 705 OFFCURVE",
"420 705 CURVE SMOOTH",
"219 705 OFFCURVE",
"96 578 OFFCURVE",
"57 355 CURVE SMOOTH",
"17 124 OFFCURVE",
"127 -16 OFFCURVE",
"299 -16 CURVE SMOOTH"
);
}
);
};
guideLines = (
{
angle = 80;
position = "{140, 353}";
}
);
layerId = "6641C2CA-B9F9-47EE-AEEC-6BEE387D8CB9";
paths = (
{
closed = 1;
nodes = (
"433 -16 OFFCURVE",
"490 34 OFFCURVE",
"532 102 CURVE",
"533 102 LINE",
"525 0 LINE",
"608 0 LINE",
"673 366 LINE",
"372 366 LINE",
"357 283 LINE",
"604 283 LINE",
"571 305 LINE",
"567 285 LINE SMOOTH",
"543 165 OFFCURVE",
"462 73 OFFCURVE",
"338 73 CURVE SMOOTH",
"200 73 OFFCURVE",
"137 181 OFFCURVE",
"167 355 CURVE SMOOTH",
"195 520 OFFCURVE",
"271 615 OFFCURVE",
"405 615 CURVE SMOOTH",
"516 615 OFFCURVE",
"551 570 OFFCURVE",
"578 479 CURVE",
"683 479 LINE",
"650 630 OFFCURVE",
"572 705 OFFCURVE",
"415 705 CURVE SMOOTH",
"214 705 OFFCURVE",
"98 573 OFFCURVE",
"61 355 CURVE SMOOTH",
"22 124 OFFCURVE",
"137 -16 OFFCURVE",
"309 -16 CURVE SMOOTH"
);
}
);
width = 715;
}
);
leftMetricsKey = O;
unicode = 0047;
userData = {
RMXScaler = {
source = G;
};
};
},
{
color = 9;
glyphname = H;
lastChange = "2018-07-13 14:14:58 +0000";
layers = (
{
anchors = (
{
name = top;
position = "{412, 690}";
}
);
background = {
paths = (
{
closed = 1;
nodes = (
"586 361 LINE",
"136 361 LINE",
"136 690 LINE",
"116 690 LINE",
"116 0 LINE",
"136 0 LINE",
"136 342 LINE",
"586 342 LINE",
"586 0 LINE",
"606 0 LINE",
"606 690 LINE",
"586 690 LINE"
);
}
);
};
layerId = "CC363ACD-D5A5-4E19-A940-9AF36D109D9E";
paths = (
{
closed = 1;
nodes = (
"579 361 LINE",
"139 361 LINE",
"197 690 LINE",
"177 690 LINE",
"55 0 LINE",
"75 0 LINE",
"135 342 LINE",
"575 342 LINE",
"515 0 LINE",
"535 0 LINE",
"657 690 LINE",
"637 690 LINE"
);
}
);
width = 681;
},
{
anchors = (
{
name = top;
position = "{431, 690}";
}
);
background = {
paths = (
{
closed = 1;
nodes = (
"221 0 LINE",
"268 270 LINE",
"486 270 LINE",
"439 0 LINE",
"659 0 LINE",
"784 710 LINE",
"564 710 LINE",
"517 445 LINE",
"299 445 LINE",
"346 710 LINE",
"126 710 LINE",
"1 0 LINE"
);
}
);
};
layerId = "C1DA716A-5F29-4CD0-A38F-CCADF5849A80";
paths = (
{
closed = 1;
nodes = (
"221 0 LINE",
"266 260 LINE",
"461 260 LINE",
"416 0 LINE",
"636 0 LINE",
"758 690 LINE",
"538 690 LINE",
"492 435 LINE",
"297 435 LINE",
"343 690 LINE",
"123 690 LINE",
"1 0 LINE"
);
}
);
width = 732;
},
{
anchors = (
{
name = top;
position = "{423, 690}";
}
);
background = {
paths = (
{
closed = 1;
nodes = (
"505 395 LINE",
"159 395 LINE",
"159 690 LINE",
"54 690 LINE",
"54 0 LINE",
"159 0 LINE",
"159 305 LINE",
"505 305 LINE",
"505 0 LINE",
"610 0 LINE",
"610 690 LINE",
"505 690 LINE"
);
}
);
};
layerId = "6641C2CA-B9F9-47EE-AEEC-6BEE387D8CB9";
paths = (
{
closed = 1;
nodes = (
"139 0 LINE",
"192 305 LINE",
"528 305 LINE",
"475 0 LINE",
"580 0 LINE",
"701 690 LINE",
"591 690 LINE",
"544 395 LINE",
"209 395 LINE",
"260 690 LINE",
"155 690 LINE",
"34 0 LINE"
);
}
);
width = 707;
}
);
unicode = 0048;
userData = {
RMXScaler = {
source = H;
};
};
},
{
color = 9;
glyphname = I;
lastChange = "2018-07-13 14:14:58 +0000";
layers = (
{
anchors = (
{
name = bottom;
position = "{65, 0}";
},
{
name = ogonek;
position = "{68, 0}";
},
{
name = top;
position = "{187, 690}";
}
);
background = {
paths = (
{
closed = 1;
nodes = (
"78 0 LINE",
"78 690 LINE",
"58 690 LINE",
"58 0 LINE"
);
}
);
};
layerId = "CC363ACD-D5A5-4E19-A940-9AF36D109D9E";
paths = (
{
closed = 1;
nodes = (
"75 0 LINE",
"197 690 LINE",
"177 690 LINE",
"55 0 LINE"
);
}
);
width = 221;
},
{
anchors = (
{
name = bottom;
position = "{111, 0}";
},
{
name = ogonek;
position = "{179, 0}";
},
{
name = top;
position = "{233, 690}";
}
);
background = {
paths = (
{
closed = 1;
nodes = (
"221 0 LINE",
"346 710 LINE",
"126 710 LINE",
"1 0 LINE"
);
}
);
};
layerId = "C1DA716A-5F29-4CD0-A38F-CCADF5849A80";
paths = (
{
closed = 1;
nodes = (
"221 0 LINE",
"343 690 LINE",
"123 690 LINE",
"1 0 LINE"
);
}
);
width = 317;
},
{
anchors = (
{
name = bottom;
position = "{87, 0}";
},
{
name = ogonek;
position = "{108, 0}";
},
{
name = top;
position = "{207, 690}";
}
);
background = {
paths = (
{
closed = 1;
nodes = (
"139 0 LINE",
"264 710 LINE",
"159 710 LINE",
"34 0 LINE"
);
}
);
};
layerId = "6641C2CA-B9F9-47EE-AEEC-6BEE387D8CB9";
paths = (
{
closed = 1;
nodes = (
"139 0 LINE",
"260 690 LINE",
"155 690 LINE",
"34 0 LINE"
);
}
);
width = 266;
}
);
leftMetricsKey = "=H";
rightMetricsKey = "=H";
unicode = 0049;
userData = {
RMXScaler = {
source = I;
};
};
},
{
color = 9;
glyphname = J;
lastChange = "2018-07-13 14:14:58 +0000";
layers = (
{
anchors = (
{
name = top;
position = "{321, 690}";
}
);
background = {
anchors = (
{
name = top;
position = "{272, 690}";
}
);
paths = (
{
closed = 1;
nodes = (
"14 -1 LINE",
"38 -9 OFFCURVE",
"71 -15 OFFCURVE",
"100 -15 CURVE SMOOTH",
"211 -15 OFFCURVE",
"269 46 OFFCURVE",
"269 192 CURVE SMOOTH",
"269 690 LINE",
"249 690 LINE",
"249 192 LINE SMOOTH",
"249 58 OFFCURVE",
"199 4 OFFCURVE",
"100 4 CURVE SMOOTH",
"72 4 OFFCURVE",
"38 10 OFFCURVE",
"14 18 CURVE"
);
}
);
};
layerId = "CC363ACD-D5A5-4E19-A940-9AF36D109D9E";
paths = (
{
closed = 1;
nodes = (
"-41 -1 LINE",
"-18 -9 OFFCURVE",
"14 -15 OFFCURVE",
"46 -15 CURVE SMOOTH",
"157 -15 OFFCURVE",
"218 51 OFFCURVE",
"243 192 CURVE SMOOTH",
"331 690 LINE",
"311 690 LINE",
"223 192 LINE SMOOTH",
"200 63 OFFCURVE",
"145 4 OFFCURVE",
"46 4 CURVE SMOOTH",
"15 4 OFFCURVE",
"-15 10 OFFCURVE",
"-37 18 CURVE"
);
}
);
width = 345;
},
{
anchors = (
{
name = top;
position = "{379, 690}";
}
);
background = {
paths = (
{
closed = 1;
nodes = (
"-40 11 LINE",
"7 -5 OFFCURVE",
"65 -15 OFFCURVE",
"120 -15 CURVE SMOOTH",
"302 -15 OFFCURVE",
"379 74 OFFCURVE",
"413 264 CURVE SMOOTH",
"492 710 LINE",
"272 710 LINE",
"193 263 LINE SMOOTH",
"180 189 OFFCURVE",
"146 155 OFFCURVE",
"87 155 CURVE SMOOTH",
"55 155 OFFCURVE",
"19 163 OFFCURVE",
"-6 172 CURVE"
);
}
);
};
layerId = "C1DA716A-5F29-4CD0-A38F-CCADF5849A80";
paths = (
{
closed = 1;
nodes = (
"-35 13 LINE",
"12 -3 OFFCURVE",
"65 -15 OFFCURVE",
"130 -15 CURVE SMOOTH",
"302 -15 OFFCURVE",
"379 74 OFFCURVE",
"413 264 CURVE SMOOTH",
"489 690 LINE",
"269 690 LINE",
"193 263 LINE SMOOTH",
"180 189 OFFCURVE",
"146 155 OFFCURVE",
"92 155 CURVE SMOOTH",
"55 155 OFFCURVE",
"20 164 OFFCURVE",
"-6 175 CURVE"
);
}
);
width = 453;
},
{
anchors = (
{
name = top;
position = "{339, 690}";
}
);
background = {
paths = (
{
closed = 1;
nodes = (
"-50 2 LINE",
"-19 -8 OFFCURVE",
"20 -15 OFFCURVE",
"63 -15 CURVE SMOOTH",
"216 -15 OFFCURVE",
"283 75 OFFCURVE",
"314 248 CURVE SMOOTH",
"396 710 LINE",
"291 710 LINE",
"209 249 LINE SMOOTH",
"187 128 OFFCURVE",
"146 76 OFFCURVE",
"55 76 CURVE SMOOTH",
"22 76 OFFCURVE",
"-6 81 OFFCURVE",
"-31 89 CURVE"
);
}
);
};
layerId = "6641C2CA-B9F9-47EE-AEEC-6BEE387D8CB9";
paths = (
{
closed = 1;
nodes = (
"-36 1 LINE",
"-5 -9 OFFCURVE",
"27 -15 OFFCURVE",
"65 -15 CURVE SMOOTH",
"216 -15 OFFCURVE",
"281 65 OFFCURVE",
"312 238 CURVE SMOOTH",
"392 690 LINE",
"287 690 LINE",
"207 239 LINE SMOOTH",
"186 118 OFFCURVE",
"146 76 OFFCURVE",
"57 76 CURVE SMOOTH",
"29 76 OFFCURVE",
"4 81 OFFCURVE",
"-21 89 CURVE"
);
}
);
width = 387;
}
);
rightMetricsKey = U;
unicode = 004A;
userData = {
RMXScaler = {
source = J;
};
};
},
{
color = 9;
glyphname = K;
lastChange = "2018-07-13 14:14:58 +0000";
layers = (
{
anchors = (
{
name = bottom;
position = "{253, 0}";
},
{
name = top;
position = "{366, 690}";
}
);
background = {
anchors = (
{
name = bottom;
position = "{314, 0}";
},
{
name = top;
position = "{315, 690}";
}
);
paths = (
{
closed = 1;
nodes = (
"136 0 LINE",
"136 690 LINE",
"116 690 LINE",
"116 0 LINE"
);
},
{
closed = 1;
nodes = (
"154 356 LINE",
"154 345 LINE",
"557 690 LINE",
"530 690 LINE",
"136 353 LINE",
"134 353 LINE",
"134 347 LINE",
"136 347 LINE",
"533 0 LINE",
"562 0 LINE"
);
}
);
};
layerId = "CC363ACD-D5A5-4E19-A940-9AF36D109D9E";
paths = (
{
closed = 1;
nodes = (
"75 0 LINE",
"197 690 LINE",
"177 690 LINE",
"55 0 LINE"
);
},
{
closed = 1;
nodes = (
"156 354 LINE",
"154 343 LINE",
"608 690 LINE",
"579 690 LINE",
"137 353 LINE",
"135 353 LINE",
"134 347 LINE",
"136 347 LINE",
"466 0 LINE",
"491 0 LINE"
);
}
);
width = 546;
},
{
anchors = (
{
name = bottom;
position = "{317, 0}";
},
{
name = top;
position = "{430, 690}";
}
);
background = {
paths = (
{
closed = 1;
nodes = (
"288 0 LINE",
"288 690 LINE",
"68 690 LINE",
"68 0 LINE"
);
},
{
closed = 1;
nodes = (
"458 453 LINE",
"454 293 LINE",
"715 690 LINE",
"490 690 LINE",
"288 369 LINE",
"281 369 LINE",
"281 334 LINE",
"288 334 LINE",
"485 0 LINE",
"725 0 LINE"
);
}
);
};
layerId = "C1DA716A-5F29-4CD0-A38F-CCADF5849A80";
paths = (
{
closed = 1;
nodes = (
"220 0 LINE",
"343 690 LINE",
"124 690 LINE",
"1 0 LINE"
);
},
{
closed = 1;
nodes = (
"535 690 LINE",
"287 369 LINE",
"273 369 LINE",
"266 334 LINE",
"281 334 LINE",
"417 0 LINE",
"648 0 LINE",
"458 431 LINE",
"440 277 LINE",
"770 690 LINE"
);
}
);
width = 701;
},
{
anchors = (
{
name = bottom;
position = "{282, 0}";
},
{
name = top;
position = "{390, 690}";
}
);
background = {
paths = (
{
closed = 1;
nodes = (
"199 0 LINE",
"199 690 LINE",
"94 690 LINE",
"94 0 LINE"
);
},
{
closed = 1;
nodes = (
"289 395 LINE",
"289 328 LINE",
"621 690 LINE",
"500 690 LINE",
"199 360 LINE",
"193 360 LINE",
"193 345 LINE",
"199 345 LINE",
"502 0 LINE",
"629 0 LINE"
);
}
);
};
layerId = "6641C2CA-B9F9-47EE-AEEC-6BEE387D8CB9";
paths = (
{
closed = 1;
nodes = (
"138 0 LINE",
"260 690 LINE",
"155 690 LINE",
"33 0 LINE"
);
},
{
closed = 1;
nodes = (
"552 690 LINE",
"202 360 LINE",
"193 360 LINE",
"190 345 LINE",
"200 345 LINE",
"439 0 LINE",
"558 0 LINE",
"295 385 LINE",
"291 325 LINE",
"672 690 LINE"
);
}
);
width = 620;
}
);
leftMetricsKey = H;
unicode = 004B;
userData = {
RMXScaler = {
source = K;
};
};
},
{
color = 9;
glyphname = L;
lastChange = "2018-07-13 14:14:58 +0000";
layers = (
{
anchors = (
{
name = bottom;
position = "{260, 0}";
},
{
name = periodcentered;
position = "{383, 370}";
},
{
name = top;
position = "{187, 690}";
},
{
name = topright;
position = "{344, 463}";
}
);
background = {
anchors = (
{
name = bottom;
position = "{333, 0}";
},
{
name = periodcentered;
position = "{379, 370}";
},
{
name = top;
position = "{127, 690}";
},
{
name = topright;
position = "{328, 463}";
}
);
paths = (
{
closed = 1;
nodes = (
"136 0 LINE",
"136 690 LINE",
"116 690 LINE",
"116 0 LINE"
);
},
{
closed = 1;
nodes = (
"511 0 LINE",
"511 19 LINE",
"131 19 LINE",
"131 0 LINE"
);
}
);
};
layerId = "CC363ACD-D5A5-4E19-A940-9AF36D109D9E";
paths = (
{
closed = 1;
nodes = (
"75 0 LINE",
"197 690 LINE",
"177 690 LINE",
"55 0 LINE"
);
},
{
closed = 1;
nodes = (
"440 0 LINE",
"444 19 LINE",
"74 19 LINE",
"70 0 LINE"
);
}
);
width = 506;
},
{
anchors = (
{
name = bottom;
position = "{254, 0}";
},
{
name = periodcentered;
position = "{418, 370}";
},
{
name = top;
position = "{233, 690}";
},
{
name = topright;
position = "{424, 475}";
}
);
background = {
paths = (
{
closed = 1;
nodes = (
"221 0 LINE",
"346 710 LINE",
"126 710 LINE",
"1 0 LINE"
);
},
{
closed = 1;
nodes = (
"501 0 LINE",
"532 173 LINE",
"150 173 LINE",
"119 0 LINE"
);
}
);
};
layerId = "C1DA716A-5F29-4CD0-A38F-CCADF5849A80";
paths = (
{
closed = 1;
nodes = (
"221 0 LINE",
"343 690 LINE",
"123 690 LINE",
"1 0 LINE"
);
},
{
closed = 1;
nodes = (
"469 0 LINE",
"500 173 LINE",
"150 173 LINE",
"119 0 LINE"
);
}
);
width = 532;
},
{
anchors = (
{
name = bottom;
position = "{246, 0}";
},
{
name = periodcentered;
position = "{382, 370}";
},
{
name = top;
position = "{208, 690}";
},
{
name = topright;
position = "{375, 468}";
}
);
background = {
paths = (
{
closed = 1;
nodes = (
"139 0 LINE",
"264 710 LINE",
"159 710 LINE",
"34 0 LINE"
);
},
{
closed = 1;
nodes = (
"464 0 LINE",
"480 90 LINE",
"122 90 LINE",
"106 0 LINE"
);
}
);
};
layerId = "6641C2CA-B9F9-47EE-AEEC-6BEE387D8CB9";
paths = (
{
closed = 1;
nodes = (
"139 0 LINE",
"260 690 LINE",
"155 690 LINE",
"34 0 LINE"
);
},
{
closed = 1;
nodes = (
"439 0 LINE",
"455 90 LINE",
"122 90 LINE",
"106 0 LINE"
);
}
);
width = 506;
}
);
leftMetricsKey = "=H";
unicode = 004C;
userData = {
RMXScaler = {
source = L;
};
};
},
{
color = 1;
glyphname = M;
lastChange = "2018-07-13 14:14:58 +0000";
layers = (
{
background = {
paths = (
{
closed = 1;
nodes = (
"756 690 LINE",
"444 28 LINE",
"443 28 LINE",
"131 690 LINE",
"111 690 LINE",
"111 0 LINE",
"130 0 LINE",
"130 643 LINE",
"131 643 LINE",
"435 0 LINE",
"451 0 LINE",
"755 643 LINE",
"756 643 LINE",
"756 0 LINE",
"776 0 LINE",
"776 690 LINE"
);
}
);
};
layerId = "CC363ACD-D5A5-4E19-A940-9AF36D109D9E";
paths = (
{
closed = 1;
nodes = (
"810 690 LINE",
"386 28 LINE",
"385 28 LINE",
"195 690 LINE",
"177 690 LINE",
"55 0 LINE",
"74 0 LINE",
"188 643 LINE",
"189 643 LINE",
"374 0 LINE",
"390 0 LINE",
"803 643 LINE",
"804 643 LINE",
"690 0 LINE",
"710 0 LINE",
"832 690 LINE"
);
}
);
width = 856;
},
{
background = {
paths = (
{
closed = 1;
nodes = (
"713 710 LINE",
"501 266 LINE",
"494 266 LINE",
"447 710 LINE",
"127 710 LINE",
"1 0 LINE",
"181 0 LINE",
"270 500 LINE",
"277 500 LINE",
"339 0 LINE",
"539 0 LINE",
"779 500 LINE",
"786 500 LINE",
"697 0 LINE",
"907 0 LINE",
"1033 710 LINE"
);
}
);
};
layerId = "C1DA716A-5F29-4CD0-A38F-CCADF5849A80";
paths = (
{
closed = 1;
nodes = (
"695 690 LINE",
"442 276 LINE",
"441 276 LINE",
"349 690 LINE",
"124 690 LINE",
"1 0 LINE",
"181 0 LINE",
"242 340 LINE",
"243 340 LINE",
"324 0 LINE",
"454 0 LINE",
"655 330 LINE",
"656 330 LINE",
"597 0 LINE",
"807 0 LINE",
"930 690 LINE"
);
}
);
width = 904;
},
{
background = {
paths = (
{
closed = 1;
nodes = (
"759 690 LINE",
"412 140 LINE",
"411 140 LINE",
"260 690 LINE",
"155 690 LINE",
"34 0 LINE",
"129 0 LINE",
"214 478 LINE",
"215 478 LINE",
"342 0 LINE",
"427 0 LINE",
"725 478 LINE",
"726 478 LINE",
"640 0 LINE",
"743 0 LINE",
"864 690 LINE"
);
}
);
};
guideLines = (
{
angle = 80;
position = "{96, 353}";
}
);
layerId = "6641C2CA-B9F9-47EE-AEEC-6BEE387D8CB9";
paths = (
{
closed = 1;
nodes = (
"747 690 LINE",
"408 132 LINE",
"407 132 LINE",
"260 690 LINE",
"155 690 LINE",
"34 0 LINE",
"129 0 LINE",
"214 478 LINE",
"215 478 LINE",
"342 0 LINE",
"427 0 LINE",
"725 478 LINE",
"726 478 LINE",
"640 0 LINE",
"743 0 LINE",
"864 690 LINE"
);
}
);
width = 870;
}
);
leftMetricsKey = H;
rightMetricsKey = H;
unicode = 004D;
userData = {
RMXScaler = {
source = M;
};
};
},
{
color = 9;
glyphname = N;
lastChange = "2018-07-13 14:14:58 +0000";
layers = (
{
anchors = (
{
name = bottom;
position = "{313, 0}";
},
{
name = top;
position = "{414, 690}";
}
);
background = {
paths = (
{
closed = 1;
nodes = (
"74 0 LINE",
"190 655 LINE",
"191 655 LINE",
"520 0 LINE",
"539 0 LINE",
"661 690 LINE",
"642 690 LINE",
"526 35 LINE",
"525 35 LINE",
"196 690 LINE",
"177 690 LINE",
"55 0 LINE"
);
}
);
};
guideLines = (
{
angle = 80;
position = "{223, 459}";
}
);
layerId = "CC363ACD-D5A5-4E19-A940-9AF36D109D9E";
paths = (
{
closed = 1;
nodes = (
"74 0 LINE",
"190 656 LINE",
"191 656 LINE",
"520 0 LINE",
"539 0 LINE",
"661 690 LINE",
"642 690 LINE",
"526 34 LINE",
"525 34 LINE",
"196 690 LINE",
"177 690 LINE",
"55 0 LINE"
);
}
);
width = 685;
},
{
anchors = (
{
name = bottom;
position = "{339, 0}";
},
{
name = top;
position = "{421, 690}";
}
);
background = {
paths = (
{
closed = 1;
nodes = (
"1 0 LINE",
"186 0 LINE",
"261 423 LINE",
"268 423 LINE",
"436 0 LINE",
"669 0 LINE",
"794 710 LINE",
"609 710 LINE",
"535 289 LINE",
"528 289 LINE",
"359 710 LINE",
"126 710 LINE"
);
},
{
closed = 1;
nodes = (
"1 0 LINE",
"186 0 LINE",
"258 403 LINE",
"259 403 LINE",
"446 0 LINE",
"631 0 LINE",
"753 690 LINE",
"568 690 LINE",
"497 289 LINE",
"496 289 LINE",
"308 690 LINE",
"123 690 LINE"
);
}
);
};
layerId = "C1DA716A-5F29-4CD0-A38F-CCADF5849A80";
paths = (
{
closed = 1;
nodes = (
"1 0 LINE",
"186 0 LINE",
"252 373 LINE",
"253 373 LINE",
"446 0 LINE",
"631 0 LINE",
"753 690 LINE",
"568 690 LINE",
"502 319 LINE",
"501 319 LINE",
"308 690 LINE",
"123 690 LINE"
);
}
);
width = 727;
},
{
anchors = (
{
name = bottom;
position = "{315, 0}";
},
{
name = top;
position = "{416, 690}";
}
);
background = {
paths = (
{
closed = 1;
nodes = (
"34 0 LINE",
"129 0 LINE",
"225 547 LINE",
"230 547 LINE",
"513 0 LINE",
"613 0 LINE",
"738 710 LINE",
"643 710 LINE",
"547 163 LINE",
"542 163 LINE",
"259 710 LINE",
"159 710 LINE"
);
}
);
};
guideLines = (
{
angle = 80;
position = "{599, 459}";
},
{
angle = 80;
position = "{210, 459}";
}
);
layerId = "6641C2CA-B9F9-47EE-AEEC-6BEE387D8CB9";
paths = (
{
closed = 1;
nodes = (
"34 0 LINE",
"129 0 LINE",
"221 527 LINE",
"222 527 LINE",
"487 0 LINE",
"582 0 LINE",
"703 690 LINE",
"608 690 LINE",
"516 163 LINE",
"515 163 LINE",
"250 690 LINE",
"155 690 LINE"
);
}
);
width = 709;
}
);
leftMetricsKey = "=H";
rightMetricsKey = "=H";
unicode = 004E;
userData = {
RMXScaler = {
source = N;
};
};
},
{
color = 9;
glyphname = O;
lastChange = "2018-07-13 14:14:58 +0000";
layers = (
{
anchors = (
{
name = bottom;
position = "{311, 0}";
},
{
name = top;
position = "{406, 690}";
}
);
background = {
paths = (
{
closed = 1;
nodes = (
"481 -15 OFFCURVE",
"606 107 OFFCURVE",
"645 330 CURVE SMOOTH",
"687 573 OFFCURVE",
"585 705 OFFCURVE",
"408 705 CURVE SMOOTH",
"231 705 OFFCURVE",
"107 583 OFFCURVE",
"68 360 CURVE SMOOTH",
"26 117 OFFCURVE",
"127 -15 OFFCURVE",
"304 -15 CURVE SMOOTH"
);
},
{
closed = 1;
nodes = (
"137 4 OFFCURVE",
"48 129 OFFCURVE",
"88 360 CURVE SMOOTH",
"125 571 OFFCURVE",
"241 686 OFFCURVE",
"408 686 CURVE SMOOTH",
"575 686 OFFCURVE",
"667 561 OFFCURVE",
"625 330 CURVE SMOOTH",
"587 119 OFFCURVE",
"471 4 OFFCURVE",
"304 4 CURVE SMOOTH"
);
}
);
};
guideLines = (
{
angle = 80;
position = "{415, 353}";
}
);
layerId = "CC363ACD-D5A5-4E19-A940-9AF36D109D9E";
paths = (
{
closed = 1;
nodes = (
"486 -15 OFFCURVE",
"606 107 OFFCURVE",
"645 330 CURVE SMOOTH",
"687 573 OFFCURVE",
"580 705 OFFCURVE",
"403 705 CURVE SMOOTH",
"226 705 OFFCURVE",
"107 583 OFFCURVE",
"68 360 CURVE SMOOTH",
"26 117 OFFCURVE",
"132 -15 OFFCURVE",
"309 -15 CURVE SMOOTH"
);
},
{
closed = 1;
nodes = (
"142 4 OFFCURVE",
"48 129 OFFCURVE",
"88 360 CURVE SMOOTH",
"125 571 OFFCURVE",
"236 686 OFFCURVE",
"403 686 CURVE SMOOTH",
"570 686 OFFCURVE",
"667 561 OFFCURVE",
"625 330 CURVE SMOOTH",
"587 119 OFFCURVE",
"476 4 OFFCURVE",
"309 4 CURVE SMOOTH"
);
}
);
width = 682;
},
{
anchors = (
{
name = bottom;
position = "{346, 0}";
},
{
name = top;
position = "{419, 690}";
}
);
background = {
paths = (
{
closed = 1;
nodes = (
"580 -15 OFFCURVE",
"699 102 OFFCURVE",
"739 330 CURVE SMOOTH",
"781 568 OFFCURVE",
"661 725 OFFCURVE",
"421 725 CURVE SMOOTH",
"186 725 OFFCURVE",
"66 598 OFFCURVE",
"28 380 CURVE SMOOTH",
"-13 142 OFFCURVE",
"105 -15 OFFCURVE",
"345 -15 CURVE SMOOTH"
);
},
{
closed = 1;
nodes = (
"252 155 OFFCURVE",
"225 233 OFFCURVE",
"247 360 CURVE SMOOTH",
"268 482 OFFCURVE",
"308 555 OFFCURVE",
"406 555 CURVE SMOOTH",
"514 555 OFFCURVE",
"542 477 OFFCURVE",
"519 350 CURVE SMOOTH",
"497 228 OFFCURVE",
"458 155 OFFCURVE",
"360 155 CURVE SMOOTH"
);
}
);
};
guideLines = (
{
angle = 80;
position = "{742, 353}";
}
);
layerId = "C1DA716A-5F29-4CD0-A38F-CCADF5849A80";
paths = (
{
closed = 1;
nodes = (
"562 -15 OFFCURVE",
"681 102 OFFCURVE",
"719 320 CURVE SMOOTH",
"759 548 OFFCURVE",
"649 705 OFFCURVE",
"419 705 CURVE SMOOTH",
"204 705 OFFCURVE",
"84 578 OFFCURVE",
"48 370 CURVE SMOOTH",
"9 142 OFFCURVE",
"117 -15 OFFCURVE",
"347 -15 CURVE SMOOTH"
);
},
{
closed = 1;
nodes = (
"264 155 OFFCURVE",
"247 233 OFFCURVE",
"267 350 CURVE SMOOTH",
"286 462 OFFCURVE",
"326 535 OFFCURVE",
"404 535 CURVE SMOOTH",
"502 535 OFFCURVE",
"520 457 OFFCURVE",
"499 340 CURVE SMOOTH",
"479 228 OFFCURVE",
"440 155 OFFCURVE",
"362 155 CURVE SMOOTH"
);
}
);
width = 740;
},
{
anchors = (
{
name = bottom;
position = "{357, 0}";
},
{
name = top;
position = "{482, 710}";
}
);
associatedMasterId = "C1DA716A-5F29-4CD0-A38F-CCADF5849A80";
background = {
paths = (
{
closed = 1;
nodes = (
"646 -15 OFFCURVE",
"788 179 OFFCURVE",
"788 421 CURVE SMOOTH",
"788 604 OFFCURVE",
"673 725 OFFCURVE",
"465 725 CURVE SMOOTH",
"195 725 OFFCURVE",
"53 531 OFFCURVE",
"53 289 CURVE SMOOTH",
"53 106 OFFCURVE",
"168 -15 OFFCURVE",
"376 -15 CURVE SMOOTH"
);
},
{
closed = 1;
nodes = (
"311 158 OFFCURVE",
"276 217 OFFCURVE",
"276 297 CURVE SMOOTH",
"276 392 OFFCURVE",
"320 552 OFFCURVE",
"455 552 CURVE SMOOTH",
"530 552 OFFCURVE",
"565 493 OFFCURVE",
"565 413 CURVE SMOOTH",
"565 318 OFFCURVE",
"521 158 OFFCURVE",
"386 158 CURVE SMOOTH"
);
}
);
};
layerId = "24ECF26C-6CC0-429B-8953-F6EE04B07353";
name = "Oct 6 17, 13:09";
paths = (
{
closed = 1;
nodes = (
"659 -15 OFFCURVE",
"785 179 OFFCURVE",
"784 439 CURVE SMOOTH",
"783 604 OFFCURVE",
"680 725 OFFCURVE",
"465 725 CURVE SMOOTH",
"182 725 OFFCURVE",
"55 531 OFFCURVE",
"57 271 CURVE SMOOTH",
"58 106 OFFCURVE",
"161 -15 OFFCURVE",
"376 -15 CURVE SMOOTH"
);
},
{
closed = 1;
nodes = (
"309 158 OFFCURVE",
"278 205 OFFCURVE",
"279 282 CURVE SMOOTH",
"281 438 OFFCURVE",
"330 552 OFFCURVE",
"449 552 CURVE SMOOTH",
"532 552 OFFCURVE",
"563 505 OFFCURVE",
"562 428 CURVE SMOOTH",
"560 272 OFFCURVE",
"511 158 OFFCURVE",
"392 158 CURVE SMOOTH"
);
}
);
width = 810;
},
{
anchors = (
{
name = bottom;
position = "{350, 0}";
},
{
name = top;
position = "{475, 710}";
}
);
associatedMasterId = "CC363ACD-D5A5-4E19-A940-9AF36D109D9E";
background = {
paths = (
{
closed = 1;
nodes = (
"621 -15 OFFCURVE",
"743 224 OFFCURVE",
"743 428 CURVE SMOOTH",
"743 601 OFFCURVE",
"645 725 OFFCURVE",
"465 725 CURVE SMOOTH",
"205 725 OFFCURVE",
"83 486 OFFCURVE",
"83 282 CURVE SMOOTH",
"83 109 OFFCURVE",
"181 -15 OFFCURVE",
"361 -15 CURVE SMOOTH"
);
},
{
closed = 1;
nodes = (
"218 39 OFFCURVE",
"144 140 OFFCURVE",
"144 282 CURVE SMOOTH",
"144 456 OFFCURVE",
"235 671 OFFCURVE",
"462 671 CURVE SMOOTH",
"608 671 OFFCURVE",
"682 570 OFFCURVE",
"682 428 CURVE SMOOTH",
"682 254 OFFCURVE",
"591 39 OFFCURVE",
"364 39 CURVE SMOOTH"
);
}
);
};
layerId = "2790E82D-5D22-4FBA-9FD8-74AE5A497A95";
name = "Oct 6 17, 14:20";
paths = (
{
closed = 1;
nodes = (
"621 -15 OFFCURVE",
"743 224 OFFCURVE",
"743 428 CURVE SMOOTH",
"743 601 OFFCURVE",
"645 725 OFFCURVE",
"465 725 CURVE SMOOTH",
"205 725 OFFCURVE",
"83 486 OFFCURVE",
"83 282 CURVE SMOOTH",
"83 109 OFFCURVE",
"181 -15 OFFCURVE",
"361 -15 CURVE SMOOTH"
);
},
{
closed = 1;
nodes = (
"218 39 OFFCURVE",
"144 140 OFFCURVE",
"144 282 CURVE SMOOTH",
"144 456 OFFCURVE",
"235 671 OFFCURVE",
"462 671 CURVE SMOOTH",
"608 671 OFFCURVE",
"682 570 OFFCURVE",
"682 428 CURVE SMOOTH",
"682 254 OFFCURVE",
"591 39 OFFCURVE",
"364 39 CURVE SMOOTH"
);
}
);
width = 792;
},
{
anchors = (
{
name = bottom;
position = "{350, 0}";
},
{
name = top;
position = "{475, 710}";
}
);
associatedMasterId = "CC363ACD-D5A5-4E19-A940-9AF36D109D9E";
background = {
paths = (
{
closed = 1;
nodes = (
"621 -15 OFFCURVE",
"743 224 OFFCURVE",
"743 428 CURVE SMOOTH",
"743 601 OFFCURVE",
"645 725 OFFCURVE",
"465 725 CURVE SMOOTH",
"205 725 OFFCURVE",
"83 486 OFFCURVE",
"83 282 CURVE SMOOTH",
"83 109 OFFCURVE",
"181 -15 OFFCURVE",
"361 -15 CURVE SMOOTH"
);
},
{
closed = 1;
nodes = (
"218 39 OFFCURVE",
"144 140 OFFCURVE",
"144 282 CURVE SMOOTH",
"144 456 OFFCURVE",
"235 671 OFFCURVE",
"462 671 CURVE SMOOTH",
"608 671 OFFCURVE",
"682 570 OFFCURVE",
"682 428 CURVE SMOOTH",
"682 254 OFFCURVE",
"591 39 OFFCURVE",
"364 39 CURVE SMOOTH"
);
}
);
};
layerId = "5E732E0B-540D-490C-B219-113A1CF9EE32";
name = "Oct 6 17, 14:24";
paths = (
{
closed = 1;
nodes = (
"171 -15 OFFCURVE",
"78 109 OFFCURVE",
"83 280 CURVE SMOOTH",
"89 486 OFFCURVE",
"201 725 OFFCURVE",
"465 725 CURVE SMOOTH",
"655 725 OFFCURVE",
"748 601 OFFCURVE",
"743 430 CURVE SMOOTH",
"737 224 OFFCURVE",
"625 -15 OFFCURVE",
"361 -15 CURVE SMOOTH"
);
},
{
closed = 1;
nodes = (
"233 671 OFFCURVE",
"150 456 OFFCURVE",
"144 278 CURVE SMOOTH",
"139 140 OFFCURVE",
"208 39 OFFCURVE",
"364 39 CURVE SMOOTH",
"593 39 OFFCURVE",
"676 254 OFFCURVE",
"682 432 CURVE SMOOTH",
"687 570 OFFCURVE",
"618 671 OFFCURVE",
"462 671 CURVE SMOOTH"
);
}
);
width = 792;
},
{
anchors = (
{
name = bottom;
position = "{330, 0}";
},
{
name = top;
position = "{419, 690}";
}
);
background = {
paths = (
{
closed = 1;
nodes = (
"568 -15 OFFCURVE",
"691 121 OFFCURVE",
"691 345 CURVE SMOOTH",
"691 569 OFFCURVE",
"568 705 OFFCURVE",
"367 705 CURVE SMOOTH",
"166 705 OFFCURVE",
"43 569 OFFCURVE",
"43 345 CURVE SMOOTH",
"43 121 OFFCURVE",
"166 -15 OFFCURVE",
"367 -15 CURVE SMOOTH"
);
},
{
closed = 1;
nodes = (
"226 76 OFFCURVE",
"150 172 OFFCURVE",
"150 345 CURVE SMOOTH",
"150 518 OFFCURVE",
"226 614 OFFCURVE",
"367 614 CURVE SMOOTH",
"508 614 OFFCURVE",
"584 518 OFFCURVE",
"584 345 CURVE SMOOTH",
"584 172 OFFCURVE",
"508 76 OFFCURVE",
"367 76 CURVE SMOOTH"
);
}
);
};
guideLines = (
{
angle = 80;
position = "{41, 353}";
}
);
layerId = "6641C2CA-B9F9-47EE-AEEC-6BEE387D8CB9";
paths = (
{
closed = 1;
nodes = (
"523 -15 OFFCURVE",
"656 101 OFFCURVE",
"693 325 CURVE SMOOTH",
"730 549 OFFCURVE",
"624 705 OFFCURVE",
"425 705 CURVE SMOOTH",
"233 705 OFFCURVE",
"101 589 OFFCURVE",
"63 365 CURVE SMOOTH",
"25 141 OFFCURVE",
"132 -15 OFFCURVE",
"330 -15 CURVE SMOOTH"
);
},
{
closed = 1;
nodes = (
"200 76 OFFCURVE",
"138 187 OFFCURVE",
"168 360 CURVE SMOOTH",
"198 533 OFFCURVE",
"286 614 OFFCURVE",
"415 614 CURVE SMOOTH",
"556 614 OFFCURVE",
"619 503 OFFCURVE",
"588 330 CURVE SMOOTH",
"557 157 OFFCURVE",
"470 76 OFFCURVE",
"340 76 CURVE SMOOTH"
);
}
);
width = 727;
}
);
unicode = 004F;
userData = {
RMXScaler = {
source = O;
};
};
},
{
color = 9;
glyphname = P;
lastChange = "2018-07-13 14:14:58 +0000";
layers = (
{
background = {
paths = (
{
closed = 1;
nodes = (
"75 0 LINE",
"197 690 LINE",
"177 690 LINE",
"55 0 LINE"
);
},
{
closed = 1;
nodes = (
"124 307 LINE",
"121 288 LINE",
"336 288 LINE SMOOTH",
"491 288 OFFCURVE",
"572 359 OFFCURVE",
"596 491 CURVE SMOOTH",
"620 623 OFFCURVE",
"562 690 OFFCURVE",
"407 690 CURVE SMOOTH",
"192 690 LINE",
"188 671 LINE",
"403 671 LINE SMOOTH",
"546 671 OFFCURVE",
"597 612 OFFCURVE",
"576 491 CURVE SMOOTH",
"555 370 OFFCURVE",
"482 307 OFFCURVE",
"339 307 CURVE SMOOTH"
);
}
);
};
layerId = "CC363ACD-D5A5-4E19-A940-9AF36D109D9E";
paths = (
{
closed = 1;
nodes = (
"75 0 LINE",
"197 690 LINE",
"177 690 LINE",
"55 0 LINE"
);
},
{
closed = 1;
nodes = (
"124 307 LINE",
"121 288 LINE",
"343 288 LINE SMOOTH",
"488 288 OFFCURVE",
"573 347 OFFCURVE",
"594 479 CURVE SMOOTH",
"615 611 OFFCURVE",
"555 690 OFFCURVE",
"400 690 CURVE SMOOTH",
"192 690 LINE",
"188 671 LINE",
"398 671 LINE SMOOTH",
"541 671 OFFCURVE",
"593 602 OFFCURVE",
"574 481 CURVE SMOOTH",
"555 360 OFFCURVE",
"477 307 OFFCURVE",
"344 307 CURVE SMOOTH"
);
}
);
width = 590;
},
{
background = {
paths = (
{
closed = 1;
nodes = (
"221 0 LINE",
"347 710 LINE",
"127 710 LINE",
"1 0 LINE"
);
},
{
closed = 1;
nodes = (
"270 380 LINE",
"242 227 LINE",
"399 227 LINE SMOOTH",
"603 227 OFFCURVE",
"723 298 OFFCURVE",
"723 493 CURVE SMOOTH",
"723 633 OFFCURVE",
"627 710 OFFCURVE",
"461 710 CURVE SMOOTH",
"328 710 LINE",
"300 550 LINE",
"416 550 LINE SMOOTH",
"475 550 OFFCURVE",
"510 533 OFFCURVE",
"510 483 CURVE SMOOTH",
"510 415 OFFCURVE",
"478 380 OFFCURVE",
"391 380 CURVE SMOOTH"
);
}
);
};
layerId = "C1DA716A-5F29-4CD0-A38F-CCADF5849A80";
paths = (
{
closed = 1;
nodes = (
"221 0 LINE",
"344 690 LINE",
"124 690 LINE",
"1 0 LINE"
);
},
{
closed = 1;
nodes = (
"267 370 LINE",
"239 217 LINE",
"376 217 LINE SMOOTH",
"580 217 OFFCURVE",
"690 293 OFFCURVE",
"690 483 CURVE SMOOTH",
"690 623 OFFCURVE",
"594 690 OFFCURVE",
"428 690 CURVE SMOOTH",
"325 690 LINE",
"297 530 LINE",
"383 530 LINE SMOOTH",
"442 530 OFFCURVE",
"477 513 OFFCURVE",
"477 463 CURVE SMOOTH",
"477 410 OFFCURVE",
"455 370 OFFCURVE",
"368 370 CURVE SMOOTH"
);
}
);
width = 680;
},
{
background = {
paths = (
{
closed = 1;
nodes = (
"185 0 LINE",
"185 690 LINE",
"80 690 LINE",
"80 0 LINE"
);
},
{
closed = 1;
nodes = (
"166 343 LINE",
"166 256 LINE",
"368 256 LINE SMOOTH",
"522 256 OFFCURVE",
"600 342 OFFCURVE",
"600 473 CURVE SMOOTH",
"600 605 OFFCURVE",
"522 690 OFFCURVE",
"370 690 CURVE SMOOTH",
"166 690 LINE",
"166 602 LINE",
"355 602 LINE SMOOTH",
"451 602 OFFCURVE",
"497 560 OFFCURVE",
"497 473 CURVE SMOOTH",
"497 387 OFFCURVE",
"451 343 OFFCURVE",
"354 343 CURVE SMOOTH"
);
}
);
};
layerId = "6641C2CA-B9F9-47EE-AEEC-6BEE387D8CB9";
paths = (
{
closed = 1;
nodes = (
"138 0 LINE",
"260 690 LINE",
"155 690 LINE",
"33 0 LINE"
);
},
{
closed = 1;
nodes = (
"180 343 LINE",
"164 255 LINE",
"350 255 LINE SMOOTH",
"539 255 OFFCURVE",
"633 342 OFFCURVE",
"634 497 CURVE SMOOTH",
"635 619 OFFCURVE",
"555 690 OFFCURVE",
"399 690 CURVE SMOOTH",
"242 690 LINE",
"225 602 LINE",
"384 602 LINE SMOOTH",
"486 602 OFFCURVE",
"532 568 OFFCURVE",
"532 492 CURVE SMOOTH",
"532 388 OFFCURVE",
"474 343 OFFCURVE",
"348 343 CURVE SMOOTH"
);
}
);
width = 628;
}
);
leftMetricsKey = H;
unicode = 0050;
userData = {
RMXScaler = {
source = P;
};
};
},
{
color = 9;
glyphname = Q;
lastChange = "2018-07-13 14:14:58 +0000";
layers = (
{
background = {
paths = (
{
closed = 1;
nodes = (
"481 -15 OFFCURVE",
"606 107 OFFCURVE",
"645 330 CURVE SMOOTH",
"687 573 OFFCURVE",
"585 705 OFFCURVE",
"408 705 CURVE SMOOTH",
"231 705 OFFCURVE",
"107 583 OFFCURVE",
"68 360 CURVE SMOOTH",
"26 117 OFFCURVE",
"127 -15 OFFCURVE",
"304 -15 CURVE SMOOTH"
);
},
{
closed = 1;
nodes = (
"137 4 OFFCURVE",
"48 129 OFFCURVE",
"88 360 CURVE SMOOTH",
"125 571 OFFCURVE",
"241 686 OFFCURVE",
"408 686 CURVE SMOOTH",
"575 686 OFFCURVE",
"667 561 OFFCURVE",
"625 330 CURVE SMOOTH",
"587 119 OFFCURVE",
"471 4 OFFCURVE",
"304 4 CURVE SMOOTH"
);
},
{
closed = 1;
nodes = (
"538 -90 LINE",
"461 32 LINE",
"457 39 LINE",
"359 197 LINE",
"338 197 LINE",
"443 29 LINE",
"447 23 LINE",
"518 -90 LINE"
);
}
);
};
layerId = "CC363ACD-D5A5-4E19-A940-9AF36D109D9E";
paths = (
{
closed = 1;
nodes = (
"486 -15 OFFCURVE",
"606 107 OFFCURVE",
"645 330 CURVE SMOOTH",
"687 573 OFFCURVE",
"580 705 OFFCURVE",
"403 705 CURVE SMOOTH",
"226 705 OFFCURVE",
"107 583 OFFCURVE",
"68 360 CURVE SMOOTH",
"26 117 OFFCURVE",
"132 -15 OFFCURVE",
"309 -15 CURVE SMOOTH"
);
},
{
closed = 1;
nodes = (
"142 4 OFFCURVE",
"48 129 OFFCURVE",
"88 360 CURVE SMOOTH",
"125 571 OFFCURVE",
"236 686 OFFCURVE",
"403 686 CURVE SMOOTH",
"570 686 OFFCURVE",
"667 561 OFFCURVE",
"625 330 CURVE SMOOTH",
"587 119 OFFCURVE",
"476 4 OFFCURVE",
"309 4 CURVE SMOOTH"
);
},
{
closed = 1;
nodes = (
"538 -90 LINE",
"461 32 LINE",
"457 39 LINE",
"359 197 LINE",
"338 197 LINE",
"443 29 LINE",
"447 23 LINE",
"518 -90 LINE"
);
}
);
width = 682;
},
{
background = {
paths = (
{
closed = 1;
nodes = (
"562 -15 OFFCURVE",
"681 102 OFFCURVE",
"719 320 CURVE SMOOTH",
"759 548 OFFCURVE",
"649 705 OFFCURVE",
"419 705 CURVE SMOOTH",
"204 705 OFFCURVE",
"84 578 OFFCURVE",
"48 370 CURVE SMOOTH",
"9 142 OFFCURVE",
"117 -15 OFFCURVE",
"347 -15 CURVE SMOOTH"
);
},
{
closed = 1;
nodes = (
"264 155 OFFCURVE",
"247 233 OFFCURVE",
"267 350 CURVE SMOOTH",
"286 462 OFFCURVE",
"326 535 OFFCURVE",
"404 535 CURVE SMOOTH",
"502 535 OFFCURVE",
"520 457 OFFCURVE",
"499 340 CURVE SMOOTH",
"479 228 OFFCURVE",
"440 155 OFFCURVE",
"362 155 CURVE SMOOTH"
);
},
{
closed = 1;
nodes = (
"650 -88 LINE",
"545 112 LINE",
"513 112 LINE",
"448 262 LINE",
"293 262 LINE",
"395 34 LINE",
"417 34 LINE",
"479 -88 LINE"
);
}
);
};
layerId = "C1DA716A-5F29-4CD0-A38F-CCADF5849A80";
paths = (
{
closed = 1;
nodes = (
"562 -15 OFFCURVE",
"681 102 OFFCURVE",
"719 320 CURVE SMOOTH",
"759 548 OFFCURVE",
"649 705 OFFCURVE",
"419 705 CURVE SMOOTH",
"204 705 OFFCURVE",
"84 578 OFFCURVE",
"48 370 CURVE SMOOTH",
"9 142 OFFCURVE",
"117 -15 OFFCURVE",
"347 -15 CURVE SMOOTH"
);
},
{
closed = 1;
nodes = (
"254 150 OFFCURVE",
"238 228 OFFCURVE",
"257 350 CURVE SMOOTH",
"275 467 OFFCURVE",
"316 540 OFFCURVE",
"404 540 CURVE SMOOTH",
"512 540 OFFCURVE",
"529 457 OFFCURVE",
"509 340 CURVE SMOOTH",
"489 223 OFFCURVE",
"450 150 OFFCURVE",
"362 150 CURVE SMOOTH"
);
},
{
closed = 1;
nodes = (
"640 -90 LINE",
"535 112 LINE",
"503 112 LINE",
"438 262 LINE",
"283 262 LINE",
"385 34 LINE",
"407 34 LINE",
"469 -90 LINE"
);
}
);
width = 740;
},
{
background = {
paths = (
{
closed = 1;
nodes = (
"528 -15 OFFCURVE",
"658 101 OFFCURVE",
"697 325 CURVE SMOOTH",
"736 549 OFFCURVE",
"623 705 OFFCURVE",
"424 705 CURVE SMOOTH",
"232 705 OFFCURVE",
"103 589 OFFCURVE",
"63 365 CURVE SMOOTH",
"23 141 OFFCURVE",
"137 -15 OFFCURVE",
"335 -15 CURVE SMOOTH"
);
},
{
closed = 1;
nodes = (
"205 76 OFFCURVE",
"138 187 OFFCURVE",
"168 360 CURVE SMOOTH",
"198 533 OFFCURVE",
"285 614 OFFCURVE",
"414 614 CURVE SMOOTH",
"555 614 OFFCURVE",
"623 503 OFFCURVE",
"592 330 CURVE SMOOTH",
"561 157 OFFCURVE",
"475 76 OFFCURVE",
"345 76 CURVE SMOOTH"
);
},
{
closed = 1;
nodes = (
"622 -101 LINE",
"516 69 LINE",
"502 69 LINE",
"411 226 LINE",
"312 226 LINE",
"431 18 LINE",
"446 18 LINE",
"519 -101 LINE"
);
}
);
};
layerId = "6641C2CA-B9F9-47EE-AEEC-6BEE387D8CB9";
paths = (
{
closed = 1;
nodes = (
"523 -15 OFFCURVE",
"656 101 OFFCURVE",
"693 325 CURVE SMOOTH",
"730 549 OFFCURVE",
"624 705 OFFCURVE",
"425 705 CURVE SMOOTH",
"233 705 OFFCURVE",
"101 589 OFFCURVE",
"63 365 CURVE SMOOTH",
"25 141 OFFCURVE",
"132 -15 OFFCURVE",
"330 -15 CURVE SMOOTH"
);
},
{
closed = 1;
nodes = (
"200 76 OFFCURVE",
"138 187 OFFCURVE",
"168 360 CURVE SMOOTH",
"198 533 OFFCURVE",
"286 614 OFFCURVE",
"415 614 CURVE SMOOTH",
"556 614 OFFCURVE",
"619 503 OFFCURVE",
"588 330 CURVE SMOOTH",
"557 157 OFFCURVE",
"470 76 OFFCURVE",
"340 76 CURVE SMOOTH"
);
},
{
closed = 1;
nodes = (
"622 -101 LINE",
"516 69 LINE",
"502 69 LINE",
"411 226 LINE",
"312 226 LINE",
"431 18 LINE",
"446 18 LINE",
"519 -101 LINE"
);
}
);
width = 731;
}
);
leftMetricsKey = O;
rightMetricsKey = O;
unicode = 0051;
userData = {
RMXScaler = {
source = Q;
};
};
},
{
color = 9;
glyphname = R;
lastChange = "2018-07-13 14:14:58 +0000";
layers = (
{
anchors = (
{
name = bottom;
position = "{284, 0}";
},
{
name = top;
position = "{353, 690}";
}
);
background = {
paths = (
{
closed = 1;
nodes = (
"75 0 LINE",
"197 690 LINE",
"177 690 LINE",
"55 0 LINE"
);
},
{
closed = 1;
nodes = (
"376 266 LINE SMOOTH",
"355 302 OFFCURVE",
"332 325 OFFCURVE",
"295 325 CURVE",
"300 321 LINE",
"335 321 LINE SMOOTH",
"463 321 OFFCURVE",
"567 370 OFFCURVE",
"587 494 CURVE SMOOTH",
"608 622 OFFCURVE",
"551 690 OFFCURVE",
"406 690 CURVE SMOOTH",
"188 690 LINE",
"185 672 LINE",
"405 672 LINE SMOOTH",
"539 672 OFFCURVE",
"585 612 OFFCURVE",
"567 497 CURVE SMOOTH",
"549 382 OFFCURVE",
"451 337 OFFCURVE",
"320 337 CURVE SMOOTH",
"126 337 LINE",
"122 319 LINE",
"229 319 LINE",
"253 319 LINE",
"304 319 OFFCURVE",
"333 302 OFFCURVE",
"358 259 CURVE SMOOTH",
"507 0 LINE",
"529 0 LINE"
);
}
);
};
layerId = "CC363ACD-D5A5-4E19-A940-9AF36D109D9E";
paths = (
{
closed = 1;
nodes = (
"75 0 LINE",
"197 690 LINE",
"177 690 LINE",
"55 0 LINE"
);
},
{
closed = 1;
nodes = (
"591 635 OFFCURVE",
"532 690 OFFCURVE",
"406 690 CURVE SMOOTH",
"188 690 LINE",
"185 672 LINE",
"405 672 LINE SMOOTH",
"521 672 OFFCURVE",
"571 624 OFFCURVE",
"571 536 CURVE SMOOTH",
"571 394 OFFCURVE",
"474 337 OFFCURVE",
"320 337 CURVE SMOOTH",
"126 337 LINE",
"122 319 LINE",
"229 319 LINE",
"253 319 LINE",
"304 319 OFFCURVE",
"333 302 OFFCURVE",
"358 259 CURVE SMOOTH",
"507 0 LINE",
"529 0 LINE",
"376 266 LINE SMOOTH",
"355 302 OFFCURVE",
"332 325 OFFCURVE",
"295 325 CURVE",
"300 321 LINE",
"335 321 LINE SMOOTH",
"490 321 OFFCURVE",
"591 387 OFFCURVE",
"591 537 CURVE SMOOTH"
);
}
);
width = 609;
},
{
anchors = (
{
name = bottom;
position = "{307, 0}";
},
{
name = top;
position = "{376, 690}";
}
);
background = {
paths = (
{
closed = 1;
nodes = (
"271 393 LINE",
"245 249 LINE",
"398 249 LINE SMOOTH",
"599 249 OFFCURVE",
"722 320 OFFCURVE",
"722 506 CURVE SMOOTH",
"722 638 OFFCURVE",
"632 710 OFFCURVE",
"473 710 CURVE SMOOTH",
"327 710 LINE",
"299 551 LINE",
"427 551 LINE SMOOTH",
"488 551 OFFCURVE",
"512 525 OFFCURVE",
"512 484 CURVE SMOOTH",
"512 417 OFFCURVE",
"473 393 OFFCURVE",
"398 393 CURVE SMOOTH"
);
},
{
closed = 1;
nodes = (
"652 0 LINE",
"499 320 LINE",
"286 320 LINE",
"424 0 LINE"
);
},
{
closed = 1;
nodes = (
"220 0 LINE",
"346 710 LINE",
"127 710 LINE",
"1 0 LINE"
);
}
);
};
layerId = "C1DA716A-5F29-4CD0-A38F-CCADF5849A80";
paths = (
{
closed = 1;
nodes = (
"220 0 LINE",
"343 690 LINE",
"124 690 LINE",
"1 0 LINE"
);
},
{
closed = 1;
nodes = (
"689 618 OFFCURVE",
"609 690 OFFCURVE",
"450 690 CURVE SMOOTH",
"314 690 LINE",
"286 531 LINE",
"394 531 LINE SMOOTH",
"455 531 OFFCURVE",
"479 507 OFFCURVE",
"479 466 CURVE SMOOTH",
"479 414 OFFCURVE",
"450 383 OFFCURVE",
"375 383 CURVE SMOOTH",
"258 383 LINE",
"235 239 LINE",
"247 239 LINE",
"266 239 LINE",
"301 239 OFFCURVE",
"310 225 OFFCURVE",
"324 187 CURVE SMOOTH",
"394 0 LINE",
"622 0 LINE",
"547 174 LINE SMOOTH",
"523 230 OFFCURVE",
"499 276 OFFCURVE",
"427 276 CURVE",
"414 259 LINE",
"459 259 LINE SMOOTH",
"591 259 OFFCURVE",
"689 344 OFFCURVE",
"689 486 CURVE SMOOTH"
);
}
);
width = 684;
},
{
anchors = (
{
name = bottom;
position = "{292, 0}";
},
{
name = top;
position = "{362, 690}";
}
);
background = {
paths = (
{
closed = 1;
nodes = (
"138 0 LINE",
"260 690 LINE",
"155 690 LINE",
"33 0 LINE"
);
},
{
closed = 1;
nodes = (
"659 617 OFFCURVE",
"586 690 OFFCURVE",
"443 690 CURVE SMOOTH",
"242 690 LINE",
"226 602 LINE",
"423 602 LINE SMOOTH",
"516 602 OFFCURVE",
"558 564 OFFCURVE",
"558 498 CURVE SMOOTH",
"558 394 OFFCURVE",
"495 363 OFFCURVE",
"374 363 CURVE SMOOTH",
"186 363 LINE",
"172 279 LINE",
"253 279 LINE",
"301 279 LINE",
"308 266 OFFCURVE",
"315 254 OFFCURVE",
"322 241 CURVE SMOOTH",
"461 0 LINE",
"574 0 LINE",
"390 319 LINE",
"374 283 LINE",
"397 283 LINE SMOOTH",
"564 283 OFFCURVE",
"660 353 OFFCURVE",
"660 508 CURVE SMOOTH"
);
}
);
};
layerId = "6641C2CA-B9F9-47EE-AEEC-6BEE387D8CB9";
paths = (
{
closed = 1;
nodes = (
"138 0 LINE",
"260 690 LINE",
"155 690 LINE",
"33 0 LINE"
);
},
{
closed = 1;
nodes = (
"625 619 OFFCURVE",
"551 690 OFFCURVE",
"408 690 CURVE SMOOTH",
"242 690 LINE",
"226 602 LINE",
"388 602 LINE SMOOTH",
"481 602 OFFCURVE",
"523 569 OFFCURVE",
"523 503 CURVE SMOOTH",
"523 404 OFFCURVE",
"460 363 OFFCURVE",
"339 363 CURVE SMOOTH",
"186 363 LINE",
"172 279 LINE",
"220 279 LINE",
"240 279 LINE",
"288 279 OFFCURVE",
"296 259 OFFCURVE",
"317 223 CURVE SMOOTH",
"446 0 LINE",
"559 0 LINE",
"417 246 LINE SMOOTH",
"400 275 OFFCURVE",
"384 309 OFFCURVE",
"339 309 CURVE",
"339 294 LINE",
"362 294 LINE SMOOTH",
"519 294 OFFCURVE",
"625 358 OFFCURVE",
"625 513 CURVE SMOOTH"
);
}
);
width = 626;
}
);
leftMetricsKey = H;
unicode = 0052;
userData = {
RMXScaler = {
source = R;
};
};
},
{
color = 9;
glyphname = S;
lastChange = "2018-07-13 14:14:58 +0000";
layers = (
{
anchors = (
{
name = bottom;
position = "{296, 0}";
},
{
name = top;
position = "{367, 690}";
}
);
background = {
paths = (
{
closed = 1;
nodes = (
"425 -15 OFFCURVE",
"508 58 OFFCURVE",
"528 170 CURVE SMOOTH",
"546 271 OFFCURVE",
"520 324 OFFCURVE",
"352 356 CURVE SMOOTH",
"300 366 LINE SMOOTH",
"189 387 OFFCURVE",
"145 431 OFFCURVE",
"162 525 CURVE SMOOTH",
"180 623 OFFCURVE",
"240 686 OFFCURVE",
"363 686 CURVE SMOOTH",
"479 686 OFFCURVE",
"536 646 OFFCURVE",
"559 515 CURVE",
"578 515 LINE",
"554 658 OFFCURVE",
"491 705 OFFCURVE",
"364 705 CURVE SMOOTH",
"231 705 OFFCURVE",
"161 634 OFFCURVE",
"142 525 CURVE SMOOTH",
"124 422 OFFCURVE",
"173 369 OFFCURVE",
"292 347 CURVE SMOOTH",
"345 337 LINE SMOOTH",
"502 307 OFFCURVE",
"524 262 OFFCURVE",
"508 170 CURVE SMOOTH",
"490 69 OFFCURVE",
"417 4 OFFCURVE",
"281 4 CURVE SMOOTH",
"142 4 OFFCURVE",
"80 53 OFFCURVE",
"69 195 CURVE",
"49 195 LINE",
"58 43 OFFCURVE",
"128 -15 OFFCURVE",
"278 -15 CURVE SMOOTH"
);
}
);
};
layerId = "CC363ACD-D5A5-4E19-A940-9AF36D109D9E";
paths = (
{
closed = 1;
nodes = (
"426 -15 OFFCURVE",
"509 55 OFFCURVE",
"526 157 CURVE SMOOTH",
"543 258 OFFCURVE",
"494 326 OFFCURVE",
"362 356 CURVE SMOOTH",
"300 370 LINE SMOOTH",
"200 393 OFFCURVE",
"152 441 OFFCURVE",
"164 535 CURVE SMOOTH",
"177 633 OFFCURVE",
"250 686 OFFCURVE",
"363 686 CURVE SMOOTH",
"479 686 OFFCURVE",
"536 646 OFFCURVE",
"559 515 CURVE",
"578 515 LINE",
"554 658 OFFCURVE",
"491 705 OFFCURVE",
"364 705 CURVE SMOOTH",
"241 705 OFFCURVE",
"158 644 OFFCURVE",
"144 535 CURVE SMOOTH",
"131 432 OFFCURVE",
"187 375 OFFCURVE",
"292 352 CURVE SMOOTH",
"355 338 LINE SMOOTH",
"478 311 OFFCURVE",
"520 252 OFFCURVE",
"506 160 CURVE SMOOTH",
"492 69 OFFCURVE",
"417 4 OFFCURVE",
"291 4 CURVE SMOOTH",
"152 4 OFFCURVE",
"89 53 OFFCURVE",
"68 195 CURVE",
"49 195 LINE",
"69 43 OFFCURVE",
"140 -15 OFFCURVE",
"289 -15 CURVE SMOOTH"
);
}
);
width = 604;
},
{
anchors = (
{
name = bottom;
position = "{320, 0}";
},
{
name = top;
position = "{385, 690}";
}
);
background = {
paths = (
{
closed = 1;
nodes = (
"504 -15 OFFCURVE",
"622 39 OFFCURVE",
"648 187 CURVE SMOOTH",
"670 311 OFFCURVE",
"616 392 OFFCURVE",
"457 430 CURVE SMOOTH",
"374 450 LINE SMOOTH",
"311 465 OFFCURVE",
"288 482 OFFCURVE",
"295 520 CURVE SMOOTH",
"301 555 OFFCURVE",
"339 566 OFFCURVE",
"388 566 CURVE SMOOTH",
"472 566 OFFCURVE",
"491 535 OFFCURVE",
"493 484 CURVE",
"694 494 LINE",
"690 632 OFFCURVE",
"603 725 OFFCURVE",
"403 725 CURVE SMOOTH",
"204 725 OFFCURVE",
"108 653 OFFCURVE",
"85 523 CURVE SMOOTH",
"61 389 OFFCURVE",
"143 307 OFFCURVE",
"276 276 CURVE SMOOTH",
"366 255 LINE SMOOTH",
"426 241 OFFCURVE",
"445 225 OFFCURVE",
"439 192 CURVE SMOOTH",
"432 155 OFFCURVE",
"396 144 OFFCURVE",
"339 144 CURVE SMOOTH",
"266 144 OFFCURVE",
"226 164 OFFCURVE",
"224 228 CURVE",
"19 218 LINE",
"13 81 OFFCURVE",
"103 -15 OFFCURVE",
"324 -15 CURVE SMOOTH"
);
}
);
};
guideLines = (
{
angle = 80;
position = "{677, 353}";
}
);
layerId = "C1DA716A-5F29-4CD0-A38F-CCADF5849A80";
paths = (
{
closed = 1;
nodes = (
"499 -15 OFFCURVE",
"590 44 OFFCURVE",
"617 192 CURVE SMOOTH",
"640 316 OFFCURVE",
"588 392 OFFCURVE",
"439 422 CURVE SMOOTH",
"359 438 LINE SMOOTH",
"304 449 OFFCURVE",
"286 467 OFFCURVE",
"291 500 CURVE SMOOTH",
"296 533 OFFCURVE",
"325 546 OFFCURVE",
"370 546 CURVE SMOOTH",
"426 546 OFFCURVE",
"449 527 OFFCURVE",
"460 476 CURVE",
"661 476 LINE",
"640 629 OFFCURVE",
"573 705 OFFCURVE",
"383 705 CURVE SMOOTH",
"209 705 OFFCURVE",
"106 648 OFFCURVE",
"81 508 CURVE SMOOTH",
"56 369 OFFCURVE",
"138 290 OFFCURVE",
"263 264 CURVE SMOOTH",
"344 247 LINE SMOOTH",
"392 237 OFFCURVE",
"409 220 OFFCURVE",
"404 190 CURVE SMOOTH",
"398 153 OFFCURVE",
"365 144 OFFCURVE",
"323 144 CURVE SMOOTH",
"262 144 OFFCURVE",
"235 162 OFFCURVE",
"221 219 CURVE",
"16 219 LINE",
"34 57 OFFCURVE",
"113 -15 OFFCURVE",
"314 -15 CURVE SMOOTH"
);
}
);
width = 655;
},
{
anchors = (
{
name = bottom;
position = "{289, 0}";
},
{
name = top;
position = "{359, 690}";
}
);
background = {
paths = (
{
closed = 1;
nodes = (
"441 -15 OFFCURVE",
"529 56 OFFCURVE",
"552 189 CURVE SMOOTH",
"571 301 OFFCURVE",
"516 359 OFFCURVE",
"390 384 CURVE SMOOTH",
"304 401 LINE SMOOTH",
"225 417 OFFCURVE",
"193 451 OFFCURVE",
"204 514 CURVE SMOOTH",
"217 586 OFFCURVE",
"270 619 OFFCURVE",
"353 619 CURVE SMOOTH",
"447 619 OFFCURVE",
"479 587 OFFCURVE",
"502 495 CURVE",
"605 495 LINE",
"576 646 OFFCURVE",
"507 705 OFFCURVE",
"359 705 CURVE SMOOTH",
"210 705 OFFCURVE",
"123 637 OFFCURVE",
"101 509 CURVE SMOOTH",
"83 403 OFFCURVE",
"134 336 OFFCURVE",
"257 312 CURVE SMOOTH",
"343 295 LINE SMOOTH",
"425 279 OFFCURVE",
"461 250 OFFCURVE",
"450 185 CURVE SMOOTH",
"437 109 OFFCURVE",
"384 71 OFFCURVE",
"290 71 CURVE SMOOTH",
"188 71 OFFCURVE",
"155 103 OFFCURVE",
"126 195 CURVE",
"23 195 LINE",
"49 50 OFFCURVE",
"112 -15 OFFCURVE",
"282 -15 CURVE SMOOTH"
);
}
);
};
layerId = "6641C2CA-B9F9-47EE-AEEC-6BEE387D8CB9";
paths = (
{
closed = 1;
nodes = (
"436 -15 OFFCURVE",
"527 39 OFFCURVE",
"546 172 CURVE SMOOTH",
"562 284 OFFCURVE",
"510 339 OFFCURVE",
"376 380 CURVE SMOOTH",
"307 401 LINE SMOOTH",
"233 423 OFFCURVE",
"200 458 OFFCURVE",
"209 521 CURVE SMOOTH",
"218 583 OFFCURVE",
"267 619 OFFCURVE",
"350 619 CURVE SMOOTH",
"444 619 OFFCURVE",
"479 587 OFFCURVE",
"497 495 CURVE",
"599 495 LINE",
"574 646 OFFCURVE",
"500 705 OFFCURVE",
"355 705 CURVE SMOOTH",
"214 705 OFFCURVE",
"127 640 OFFCURVE",
"109 531 CURVE SMOOTH",
"91 423 OFFCURVE",
"143 355 OFFCURVE",
"265 318 CURVE SMOOTH",
"340 295 LINE SMOOTH",
"417 272 OFFCURVE",
"457 243 OFFCURVE",
"445 173 CURVE SMOOTH",
"434 107 OFFCURVE",
"384 71 OFFCURVE",
"295 71 CURVE SMOOTH",
"198 71 OFFCURVE",
"157 105 OFFCURVE",
"131 197 CURVE",
"28 197 LINE",
"56 55 OFFCURVE",
"127 -15 OFFCURVE",
"287 -15 CURVE SMOOTH"
);
}
);
width = 605;
}
);
unicode = 0053;
userData = {
RMXScaler = {
source = S;
};
};
},
{
color = 9;
glyphname = T;
lastChange = "2018-07-13 14:14:58 +0000";
layers = (
{
anchors = (
{
name = bottom;
position = "{210, 0}";
},
{
name = top;
position = "{327, 690}";
}
);
background = {
anchors = (
{
name = bottom;
position = "{271, 0}";
},
{
name = top;
position = "{270, 690}";
}
);
paths = (
{
closed = 1;
nodes = (
"21 690 LINE",
"21 671 LINE",
"261 671 LINE",
"261 0 LINE",
"281 0 LINE",
"281 671 LINE",
"521 671 LINE",
"521 690 LINE"
);
}
);
};
layerId = "CC363ACD-D5A5-4E19-A940-9AF36D109D9E";
paths = (
{
closed = 1;
nodes = (
"87 690 LINE",
"83 671 LINE",
"318 671 LINE",
"200 0 LINE",
"220 0 LINE",
"338 671 LINE",
"573 671 LINE",
"577 690 LINE"
);
}
);
width = 511;
},
{
anchors = (
{
name = bottom;
position = "{252, 0}";
},
{
name = top;
position = "{369, 690}";
}
);
background = {
paths = (
{
closed = 1;
nodes = (
"68 710 LINE",
"37 537 LINE",
"237 537 LINE",
"142 0 LINE",
"362 0 LINE",
"457 537 LINE",
"657 537 LINE",
"688 710 LINE"
);
}
);
};
layerId = "C1DA716A-5F29-4CD0-A38F-CCADF5849A80";
paths = (
{
closed = 1;
nodes = (
"80 690 LINE",
"49 517 LINE",
"234 517 LINE",
"142 0 LINE",
"362 0 LINE",
"454 517 LINE",
"639 517 LINE",
"670 690 LINE"
);
}
);
width = 601;
},
{
anchors = (
{
name = bottom;
position = "{223, 0}";
},
{
name = top;
position = "{337, 690}";
}
);
background = {
paths = (
{
closed = 1;
nodes = (
"77 710 LINE",
"61 620 LINE",
"279 620 LINE",
"170 0 LINE",
"275 0 LINE",
"384 620 LINE",
"602 620 LINE",
"619 710 LINE"
);
}
);
};
layerId = "6641C2CA-B9F9-47EE-AEEC-6BEE387D8CB9";
paths = (
{
closed = 1;
nodes = (
"85 690 LINE",
"69 600 LINE",
"275 600 LINE",
"170 0 LINE",
"275 0 LINE",
"380 600 LINE",
"586 600 LINE",
"603 690 LINE"
);
}
);
width = 538;
}
);
unicode = 0054;
userData = {
RMXScaler = {
source = T;
};
};
},
{
color = 9;
glyphname = U;
lastChange = "2018-07-13 14:14:58 +0000";
layers = (
{
anchors = (
{
name = bottom;
position = "{291, 0}";
},
{
name = ogonek;
position = "{391, 0}";
},
{
name = top;
position = "{403, 690}";
}
);
background = {
paths = (
{
closed = 1;
nodes = (
"448 -15 OFFCURVE",
"532 74 OFFCURVE",
"565 264 CURVE SMOOTH",
"640 690 LINE",
"620 690 LINE",
"545 264 LINE SMOOTH",
"514 87 OFFCURVE",
"436 3 OFFCURVE",
"292 3 CURVE SMOOTH",
"148 3 OFFCURVE",
"80 87 OFFCURVE",
"111 264 CURVE SMOOTH",
"186 690 LINE",
"166 690 LINE",
"91 264 LINE SMOOTH",
"58 74 OFFCURVE",
"140 -15 OFFCURVE",
"292 -15 CURVE SMOOTH"
);
}
);
};
layerId = "CC363ACD-D5A5-4E19-A940-9AF36D109D9E";
paths = (
{
closed = 1;
nodes = (
"166 690 LINE",
"93 274 LINE SMOOTH",
"60 84 OFFCURVE",
"140 -15 OFFCURVE",
"292 -15 CURVE SMOOTH",
"448 -15 OFFCURVE",
"532 74 OFFCURVE",
"565 264 CURVE SMOOTH",
"640 690 LINE",
"620 690 LINE",
"545 264 LINE SMOOTH",
"514 87 OFFCURVE",
"436 3 OFFCURVE",
"292 3 CURVE SMOOTH",
"148 3 OFFCURVE",
"82 97 OFFCURVE",
"113 274 CURVE SMOOTH",
"186 690 LINE"
);
}
);
width = 654;
},
{
anchors = (
{
name = bottom;
position = "{321, 0}";
},
{
name = ogonek;
position = "{398, 0}";
},
{
name = top;
position = "{420, 690}";
}
);
background = {
paths = (
{
closed = 1;
nodes = (
"106 710 LINE",
"39 330 LINE SMOOTH",
"-1 104 OFFCURVE",
"107 -15 OFFCURVE",
"322 -15 CURVE SMOOTH",
"557 -15 OFFCURVE",
"640 84 OFFCURVE",
"682 320 CURVE SMOOTH",
"751 710 LINE",
"531 710 LINE",
"461 315 LINE SMOOTH",
"442 207 OFFCURVE",
"424 155 OFFCURVE",
"339 155 CURVE SMOOTH",
"256 155 OFFCURVE",
"237 210 OFFCURVE",
"256 315 CURVE SMOOTH",
"326 710 LINE"
);
}
);
};
layerId = "C1DA716A-5F29-4CD0-A38F-CCADF5849A80";
paths = (
{
closed = 1;
nodes = (
"113 690 LINE",
"49 330 LINE SMOOTH",
"9 104 OFFCURVE",
"117 -15 OFFCURVE",
"322 -15 CURVE SMOOTH",
"547 -15 OFFCURVE",
"630 84 OFFCURVE",
"672 320 CURVE SMOOTH",
"738 690 LINE",
"518 690 LINE",
"451 315 LINE SMOOTH",
"432 207 OFFCURVE",
"414 155 OFFCURVE",
"339 155 CURVE SMOOTH",
"263 155 OFFCURVE",
"247 210 OFFCURVE",
"266 315 CURVE SMOOTH",
"333 690 LINE"
);
}
);
width = 702;
},
{
anchors = (
{
name = bottom;
position = "{312, 0}";
},
{
name = ogonek;
position = "{390, 0}";
},
{
name = top;
position = "{411, 690}";
}
);
background = {
paths = (
{
closed = 1;
nodes = (
"136 710 LINE",
"65 311 LINE SMOOTH",
"26 89 OFFCURVE",
"131 -15 OFFCURVE",
"313 -15 CURVE SMOOTH",
"494 -15 OFFCURVE",
"590 65 OFFCURVE",
"632 299 CURVE SMOOTH",
"705 710 LINE",
"600 710 LINE",
"528 310 LINE SMOOTH",
"496 130 OFFCURVE",
"434 76 OFFCURVE",
"318 76 CURVE SMOOTH",
"201 76 OFFCURVE",
"138 130 OFFCURVE",
"169 304 CURVE SMOOTH",
"241 710 LINE"
);
}
);
};
layerId = "6641C2CA-B9F9-47EE-AEEC-6BEE387D8CB9";
paths = (
{
closed = 1;
nodes = (
"145 690 LINE",
"78 311 LINE SMOOTH",
"39 89 OFFCURVE",
"139 -15 OFFCURVE",
"313 -15 CURVE SMOOTH",
"481 -15 OFFCURVE",
"578 65 OFFCURVE",
"619 299 CURVE SMOOTH",
"688 690 LINE",
"583 690 LINE",
"515 310 LINE SMOOTH",
"483 130 OFFCURVE",
"421 76 OFFCURVE",
"318 76 CURVE SMOOTH",
"214 76 OFFCURVE",
"153 140 OFFCURVE",
"182 304 CURVE SMOOTH",
"250 690 LINE"
);
}
);
width = 683;
}
);
unicode = 0055;
userData = {
RMXScaler = {
source = U;
};
};
},
{
color = 9;
glyphname = V;
lastChange = "2018-07-13 14:14:58 +0000";
layers = (
{
background = {
paths = (
{
closed = 1;
nodes = (
"301 31 LINE",
"300 31 LINE",
"38 690 LINE",
"15 690 LINE",
"292 0 LINE",
"308 0 LINE",
"585 690 LINE",
"563 690 LINE"
);
}
);
};
layerId = "CC363ACD-D5A5-4E19-A940-9AF36D109D9E";
paths = (
{
closed = 1;
nodes = (
"244 31 LINE",
"243 31 LINE",
"101 690 LINE",
"81 690 LINE",
"231 0 LINE",
"247 0 LINE",
"641 690 LINE",
"619 690 LINE"
);
}
);
width = 570;
},
{
background = {
paths = (
{
closed = 1;
nodes = (
"335 183 LINE",
"328 183 LINE",
"292 710 LINE",
"67 710 LINE",
"144 0 LINE",
"454 0 LINE",
"783 710 LINE",
"563 710 LINE"
);
}
);
};
layerId = "C1DA716A-5F29-4CD0-A38F-CCADF5849A80";
paths = (
{
closed = 1;
nodes = (
"351 263 LINE",
"350 263 LINE",
"299 690 LINE",
"79 690 LINE",
"189 0 LINE",
"409 0 LINE",
"759 690 LINE",
"549 690 LINE"
);
}
);
width = 690;
},
{
background = {
paths = (
{
closed = 1;
nodes = (
"282 98 LINE",
"275 98 LINE",
"177 710 LINE",
"69 710 LINE",
"192 0 LINE",
"333 0 LINE",
"705 710 LINE",
"594 710 LINE"
);
}
);
};
layerId = "6641C2CA-B9F9-47EE-AEEC-6BEE387D8CB9";
paths = (
{
closed = 1;
nodes = (
"286 136 LINE",
"285 136 LINE",
"186 690 LINE",
"80 690 LINE",
"212 0 LINE",
"313 0 LINE",
"686 690 LINE",
"578 690 LINE"
);
}
);
width = 616;
}
);
unicode = 0056;
userData = {
RMXScaler = {
source = V;
};
};
},
{
color = 9;
glyphname = W;
lastChange = "2018-07-13 14:14:58 +0000";
layers = (
{
anchors = (
{
name = top;
position = "{517, 690}";
}
);
background = {
anchors = (
{
name = top;
position = "{461, 690}";
}
);
paths = (
{
closed = 1;
nodes = (
"676 37 LINE",
"675 37 LINE",
"470 690 LINE",
"453 690 LINE",
"248 37 LINE",
"247 37 LINE",
"41 690 LINE",
"20 690 LINE",
"239 0 LINE",
"255 0 LINE",
"461 655 LINE",
"462 655 LINE",
"667 0 LINE",
"683 0 LINE",
"902 690 LINE",
"882 690 LINE"
);
}
);
};
layerId = "CC363ACD-D5A5-4E19-A940-9AF36D109D9E";
paths = (
{
closed = 1;
nodes = (
"616 37 LINE",
"615 37 LINE",
"530 690 LINE",
"513 690 LINE",
"198 37 LINE",
"197 37 LINE",
"106 690 LINE",
"86 690 LINE",
"183 0 LINE",
"199 0 LINE",
"516 655 LINE",
"517 655 LINE",
"601 0 LINE",
"617 0 LINE",
"958 690 LINE",
"937 690 LINE"
);
}
);
width = 892;
},
{
anchors = (
{
name = top;
position = "{576, 690}";
}
);
background = {
paths = (
{
closed = 1;
nodes = (
"726 203 LINE",
"716 203 LINE",
"723 710 LINE",
"446 710 LINE",
"266 203 LINE",
"256 203 LINE",
"253 710 LINE",
"22 710 LINE",
"74 0 LINE",
"361 0 LINE",
"534 487 LINE",
"540 487 LINE",
"530 0 LINE",
"817 0 LINE",
"1121 710 LINE",
"916 710 LINE"
);
}
);
};
layerId = "C1DA716A-5F29-4CD0-A38F-CCADF5849A80";
paths = (
{
closed = 1;
nodes = (
"696 263 LINE",
"695 263 LINE",
"670 690 LINE",
"493 690 LINE",
"307 263 LINE",
"306 263 LINE",
"300 690 LINE",
"79 690 LINE",
"144 0 LINE",
"351 0 LINE",
"516 357 LINE",
"517 357 LINE",
"540 0 LINE",
"747 0 LINE",
"1058 690 LINE",
"863 690 LINE"
);
}
);
width = 989;
},
{
anchors = (
{
name = top;
position = "{538, 690}";
}
);
background = {
paths = (
{
closed = 1;
nodes = (
"663 98 LINE",
"657 98 LINE",
"608 690 LINE",
"477 690 LINE",
"223 98 LINE",
"217 98 LINE",
"167 690 LINE",
"60 690 LINE",
"131 0 LINE",
"274 0 LINE",
"521 577 LINE",
"526 577 LINE",
"568 0 LINE",
"711 0 LINE",
"1026 690 LINE",
"918 690 LINE"
);
}
);
};
layerId = "6641C2CA-B9F9-47EE-AEEC-6BEE387D8CB9";
paths = (
{
closed = 1;
nodes = (
"657 155 LINE",
"656 155 LINE",
"587 690 LINE",
"499 690 LINE",
"246 155 LINE",
"245 155 LINE",
"187 690 LINE",
"80 690 LINE",
"162 0 LINE",
"265 0 LINE",
"514 521 LINE",
"515 521 LINE",
"577 0 LINE",
"680 0 LINE",
"1006 690 LINE",
"899 690 LINE"
);
}
);
width = 936;
}
);
unicode = 0057;
userData = {
RMXScaler = {
source = W;
};
};
},
{
color = 9;
glyphname = X;
lastChange = "2018-07-13 14:14:58 +0000";
layers = (
{
background = {
paths = (
{
closed = 1;
nodes = (
"59 0 LINE",
"296 335 LINE",
"302 343 LINE",
"548 690 LINE",
"525 690 LINE",
"290 358 LINE",
"284 350 LINE",
"36 0 LINE"
);
},
{
closed = 1;
nodes = (
"551 0 LINE",
"302 352 LINE",
"296 360 LINE",
"62 690 LINE",
"39 690 LINE",
"284 344 LINE",
"290 336 LINE",
"528 0 LINE"
);
}
);
};
guideLines = (
{
angle = 80;
position = "{70, 366}";
},
{
angle = 80;
position = "{623, 366}";
}
);
layerId = "CC363ACD-D5A5-4E19-A940-9AF36D109D9E";
paths = (
{
closed = 1;
nodes = (
"-1 0 LINE",
"292 337 LINE",
"296 342 LINE",
"599 690 LINE",
"575 690 LINE",
"287 359 LINE",
"282 353 LINE",
"-25 0 LINE"
);
},
{
closed = 1;
nodes = (
"480 0 LINE",
"296 353 LINE",
"293 359 LINE",
"121 690 LINE",
"100 690 LINE",
"280 345 LINE",
"284 337 LINE",
"459 0 LINE"
);
}
);
width = 545;
},
{
background = {
paths = (
{
closed = 1;
nodes = (
"158 0 LINE",
"392 331 LINE",
"479 331 LINE",
"752 710 LINE",
"532 710 LINE",
"314 394 LINE",
"227 394 LINE",
"-62 0 LINE"
);
},
{
closed = 1;
nodes = (
"630 0 LINE",
"453 481 LINE",
"367 481 LINE",
"292 710 LINE",
"67 710 LINE",
"244 232 LINE",
"330 232 LINE",
"405 0 LINE"
);
}
);
};
guideLines = (
{
angle = 80;
position = "{3, 366}";
},
{
angle = 80;
position = "{693, 356}";
}
);
layerId = "C1DA716A-5F29-4CD0-A38F-CCADF5849A80";
paths = (
{
closed = 1;
nodes = (
"178 0 LINE",
"392 321 LINE",
"479 321 LINE",
"732 690 LINE",
"512 690 LINE",
"314 384 LINE",
"227 384 LINE",
"-42 0 LINE"
);
},
{
closed = 1;
nodes = (
"610 0 LINE",
"453 471 LINE",
"370 471 LINE",
"302 690 LINE",
"87 690 LINE",
"244 222 LINE",
"327 222 LINE",
"395 0 LINE"
);
}
);
width = 663;
},
{
background = {
paths = (
{
closed = 1;
nodes = (
"65 0 LINE",
"294 280 LINE",
"320 280 LINE",
"680 710 LINE",
"563 710 LINE",
"335 442 LINE",
"309 442 LINE",
"-52 0 LINE"
);
},
{
closed = 1;
nodes = (
"558 0 LINE",
"189 710 LINE",
"77 710 LINE",
"447 0 LINE"
);
}
);
};
guideLines = (
{
angle = 80;
position = "{13, 366}";
},
{
angle = 80;
position = "{623, 366}";
}
);
layerId = "6641C2CA-B9F9-47EE-AEEC-6BEE387D8CB9";
paths = (
{
closed = 1;
nodes = (
"80 0 LINE",
"298 270 LINE",
"312 270 LINE",
"661 690 LINE",
"544 690 LINE",
"328 432 LINE",
"313 432 LINE",
"-37 0 LINE"
);
},
{
closed = 1;
nodes = (
"543 0 LINE",
"357 372 LINE",
"338 409 LINE",
"198 690 LINE",
"88 690 LINE",
"266 335 LINE",
"285 297 LINE",
"434 0 LINE"
);
}
);
width = 600;
}
);
unicode = 0058;
userData = {
RMXScaler = {
source = X;
};
};
},
{
color = 9;
glyphname = Y;
lastChange = "2018-07-13 14:14:58 +0000";
layers = (
{
anchors = (
{
name = bottom;
position = "{232, 0}";
},
{
name = top;
position = "{346, 690}";
}
);
background = {
anchors = (
{
name = bottom;
position = "{291, 0}";
},
{
name = top;
position = "{296, 690}";
}
);
paths = (
{
closed = 1;
nodes = (
"541 690 LINE",
"290 298 LINE",
"289 298 LINE",
"37 690 LINE",
"15 690 LINE",
"280 277 LINE",
"280 0 LINE",
"299 0 LINE",
"299 277 LINE",
"564 690 LINE"
);
}
);
};
layerId = "CC363ACD-D5A5-4E19-A940-9AF36D109D9E";
paths = (
{
closed = 1;
nodes = (
"596 690 LINE",
"280 298 LINE",
"279 298 LINE",
"101 690 LINE",
"81 690 LINE",
"268 277 LINE",
"219 0 LINE",
"238 0 LINE",
"287 277 LINE",
"620 690 LINE"
);
}
);
width = 549;
},
{
anchors = (
{
name = bottom;
position = "{306, 0}";
},
{
name = top;
position = "{415, 690}";
}
);
background = {
paths = (
{
closed = 1;
nodes = (
"581 710 LINE",
"388 451 LINE",
"380 451 LINE",
"282 710 LINE",
"60 710 LINE",
"238 263 LINE",
"191 0 LINE",
"410 0 LINE",
"457 263 LINE",
"795 710 LINE"
);
}
);
};
layerId = "C1DA716A-5F29-4CD0-A38F-CCADF5849A80";
paths = (
{
closed = 1;
nodes = (
"553 690 LINE",
"385 451 LINE",
"384 451 LINE",
"296 690 LINE",
"79 690 LINE",
"238 263 LINE",
"191 0 LINE",
"410 0 LINE",
"457 263 LINE",
"769 690 LINE"
);
}
);
width = 700;
},
{
anchors = (
{
name = bottom;
position = "{261, 0}";
},
{
name = top;
position = "{371, 690}";
}
);
background = {
paths = (
{
closed = 1;
nodes = (
"505 690 LINE",
"311 351 LINE",
"310 351 LINE",
"109 690 LINE",
"-6 690 LINE",
"252 250 LINE",
"252 0 LINE",
"356 0 LINE",
"356 250 LINE",
"614 690 LINE"
);
}
);
};
layerId = "6641C2CA-B9F9-47EE-AEEC-6BEE387D8CB9";
paths = (
{
closed = 1;
nodes = (
"569 690 LINE",
"318 349 LINE",
"317 349 LINE",
"183 690 LINE",
"78 690 LINE",
"249 251 LINE",
"205 0 LINE",
"310 0 LINE",
"355 251 LINE",
"680 690 LINE"
);
}
);
width = 608;
}
);
unicode = 0059;
userData = {
RMXScaler = {
source = Y;
};
};
},
{
color = 9;
glyphname = Z;
lastChange = "2018-07-13 14:14:58 +0000";
layers = (
{
anchors = (
{
name = top;
position = "{325, 690}";
}
);
background = {
anchors = (
{
name = top;
position = "{296, 690}";
}
);
paths = (
{
closed = 1;
nodes = (
"45 690 LINE",
"45 671 LINE",
"474 671 LINE",
"474 670 LINE",
"30 17 LINE",
"30 0 LINE",
"495 0 LINE",
"495 19 LINE",
"56 19 LINE",
"56 20 LINE",
"500 673 LINE",
"500 690 LINE"
);
}
);
};
layerId = "CC363ACD-D5A5-4E19-A940-9AF36D109D9E";
paths = (
{
closed = 1;
nodes = (
"122 690 LINE",
"118 671 LINE",
"536 671 LINE",
"536 670 LINE",
"-12 17 LINE",
"-15 0 LINE",
"440 0 LINE",
"444 19 LINE",
"16 19 LINE",
"16 20 LINE",
"564 673 LINE",
"567 690 LINE"
);
}
);
width = 521;
},
{
anchors = (
{
name = top;
position = "{375, 690}";
}
);
background = {
paths = (
{
closed = 1;
nodes = (
"292 180 LINE",
"672 542 LINE",
"700 710 LINE",
"119 710 LINE",
"88 537 LINE",
"391 537 LINE",
"390 530 LINE",
"10 168 LINE",
"-17 0 LINE",
"575 0 LINE",
"605 173 LINE",
"291 173 LINE"
);
}
);
};
layerId = "C1DA716A-5F29-4CD0-A38F-CCADF5849A80";
paths = (
{
closed = 1;
nodes = (
"290 174 LINE",
"631 552 LINE",
"654 690 LINE",
"116 690 LINE",
"85 517 LINE",
"346 517 LINE",
"346 516 LINE",
"5 138 LINE",
"-17 0 LINE",
"532 0 LINE",
"562 173 LINE",
"290 173 LINE"
);
}
);
width = 609;
},
{
anchors = (
{
name = top;
position = "{331, 690}";
}
);
background = {
paths = (
{
closed = 1;
nodes = (
"138 95 LINE",
"605 625 LINE",
"620 710 LINE",
"123 710 LINE",
"107 620 LINE",
"472 620 LINE",
"471 615 LINE",
"4 85 LINE",
"-11 0 LINE",
"496 0 LINE",
"513 90 LINE",
"137 90 LINE"
);
}
);
};
layerId = "6641C2CA-B9F9-47EE-AEEC-6BEE387D8CB9";
paths = (
{
closed = 1;
nodes = (
"138 91 LINE",
"574 615 LINE",
"587 690 LINE",
"119 690 LINE",
"103 600 LINE",
"438 600 LINE",
"438 599 LINE",
"2 75 LINE",
"-11 0 LINE",
"467 0 LINE",
"484 90 LINE",
"138 90 LINE"
);
}
);
width = 550;
}
);
unicode = 005A;
userData = {
RMXScaler = {
source = Z;
};
};
},
{
color = 9;
glyphname = a;
lastChange = "2018-07-13 18:06:59 +0000";
layers = (
{
anchors = (
{
name = ogonek;
position = "{457, 0}";
},
{
name = top;
position = "{358, 525}";
}
);
associatedMasterId = "CC363ACD-D5A5-4E19-A940-9AF36D109D9E";
background = {
anchors = (
{
name = ogonek;
position = "{509, 0}";
},
{
name = top;
position = "{312, 525}";
}
);
paths = (
{
closed = 1;
nodes = (
"419 314 LINE",
"240 301 LINE SMOOTH",
"98 291 OFFCURVE",
"32 235 OFFCURVE",
"32 132 CURVE SMOOTH",
"32 51 OFFCURVE",
"83 -13 OFFCURVE",
"210 -13 CURVE SMOOTH",
"285 -13 OFFCURVE",
"346 23 OFFCURVE",
"369 79 CURVE",
"356 72 LINE",
"383 72 LINE",
"372 81 LINE",
"374 0 LINE",
"485 0 LINE",
"535 316 LINE SMOOTH",
"539 342 OFFCURVE",
"541 360 OFFCURVE",
"541 382 CURVE SMOOTH",
"541 496 OFFCURVE",
"463 540 OFFCURVE",
"333 540 CURVE SMOOTH",
"188 540 OFFCURVE",
"117 476 OFFCURVE",
"85 360 CURVE",
"227 360 LINE",
"243 411 OFFCURVE",
"267 432 OFFCURVE",
"332 432 CURVE SMOOTH",
"383 432 OFFCURVE",
"408 413 OFFCURVE",
"408 372 CURVE SMOOTH",
"408 361 OFFCURVE",
"406 347 OFFCURVE",
"404 334 CURVE SMOOTH",
"382 194 LINE SMOOTH",
"372 129 OFFCURVE",
"324 89 OFFCURVE",
"254 89 CURVE SMOOTH",
"201 89 OFFCURVE",
"174 109 OFFCURVE",
"174 148 CURVE SMOOTH",
"174 187 OFFCURVE",
"201 211 OFFCURVE",
"248 215 CURVE SMOOTH",
"405 228 LINE"
);
}
);
};
layerId = "50DF258C-215D-4CC1-BFC7-39FCC540560D";
name = "Aug 30 17, 11:22";
paths = (
{
closed = 1;
nodes = (
"416 320 LINE",
"240 300 LINE SMOOTH",
"87 282 OFFCURVE",
"31 225 OFFCURVE",
"31 113 CURVE SMOOTH",
"31 38 OFFCURVE",
"78 -13 OFFCURVE",
"184 -13 CURVE SMOOTH",
"267 -13 OFFCURVE",
"331 17 OFFCURVE",
"358 79 CURVE",
"344 72 LINE",
"372 72 LINE",
"361 81 LINE",
"362 0 LINE",
"477 0 LINE",
"539 354 LINE SMOOTH",
"561 481 OFFCURVE",
"496 540 OFFCURVE",
"359 540 CURVE SMOOTH",
"207 540 OFFCURVE",
"132 479 OFFCURVE",
"97 360 CURVE",
"238 360 LINE",
"254 411 OFFCURVE",
"277 432 OFFCURVE",
"337 432 CURVE SMOOTH",
"397 432 OFFCURVE",
"414 403 OFFCURVE",
"403 342 CURVE SMOOTH",
"379 208 LINE SMOOTH",
"367 142 OFFCURVE",
"329 89 OFFCURVE",
"247 89 CURVE SMOOTH",
"193 89 OFFCURVE",
"174 109 OFFCURVE",
"174 140 CURVE SMOOTH",
"174 180 OFFCURVE",
"197 207 OFFCURVE",
"249 214 CURVE SMOOTH",
"401 234 LINE"
);
}
);
width = 601;
},
{
anchors = (
{
name = bottom;
position = "{240, 0}";
},
{
name = ogonek;
position = "{392, 0}";
},
{
name = top;
position = "{317, 515}";
}
);
background = {
paths = (
{
closed = 1;
nodes = (
"212 530 OFFCURVE",
"151 477 OFFCURVE",
"108 365 CURVE",
"128 365 LINE",
"169 465 OFFCURVE",
"220 512 OFFCURVE",
"310 512 CURVE SMOOTH",
"408 512 OFFCURVE",
"458 460 OFFCURVE",
"440 351 CURVE SMOOTH",
"439 345 LINE",
"436 326 OFFCURVE",
"419 310 OFFCURVE",
"387 303 CURVE SMOOTH",
"196 262 LINE SMOOTH",
"101 242 OFFCURVE",
"57 201 OFFCURVE",
"47 126 CURVE SMOOTH",
"35 39 OFFCURVE",
"92 -15 OFFCURVE",
"189 -15 CURVE SMOOTH",
"295 -15 OFFCURVE",
"364 53 OFFCURVE",
"400 125 CURVE",
"401 125 LINE",
"383 0 LINE",
"399 0 LINE",
"457 344 LINE SMOOTH",
"478 466 OFFCURVE",
"422 530 OFFCURVE",
"311 530 CURVE SMOOTH"
);
},
{
closed = 1;
nodes = (
"105 3 OFFCURVE",
"56 50 OFFCURVE",
"66 125 CURVE SMOOTH",
"75 190 OFFCURVE",
"109 225 OFFCURVE",
"200 245 CURVE SMOOTH",
"385 285 LINE SMOOTH",
"418 292 OFFCURVE",
"435 303 OFFCURVE",
"441 326 CURVE",
"437 326 LINE",
"421 231 LINE SMOOTH",
"397 91 OFFCURVE",
"295 3 OFFCURVE",
"192 3 CURVE SMOOTH"
);
}
);
};
layerId = "CC363ACD-D5A5-4E19-A940-9AF36D109D9E";
paths = (
{
closed = 1;
nodes = (
"212 530 OFFCURVE",
"151 477 OFFCURVE",
"108 365 CURVE",
"128 365 LINE",
"169 465 OFFCURVE",
"220 512 OFFCURVE",
"310 512 CURVE SMOOTH",
"408 512 OFFCURVE",
"458 460 OFFCURVE",
"440 351 CURVE SMOOTH",
"439 345 LINE",
"436 326 OFFCURVE",
"419 310 OFFCURVE",
"387 303 CURVE SMOOTH",
"196 262 LINE SMOOTH",
"101 242 OFFCURVE",
"56 201 OFFCURVE",
"47 126 CURVE SMOOTH",
"36 39 OFFCURVE",
"97 -15 OFFCURVE",
"194 -15 CURVE SMOOTH",
"300 -15 OFFCURVE",
"364 53 OFFCURVE",
"400 125 CURVE",
"401 125 LINE",
"383 0 LINE",
"399 0 LINE",
"457 344 LINE SMOOTH",
"478 466 OFFCURVE",
"422 530 OFFCURVE",
"311 530 CURVE SMOOTH"
);
},
{
closed = 1;
nodes = (
"110 3 OFFCURVE",
"58 50 OFFCURVE",
"67 125 CURVE SMOOTH",
"75 190 OFFCURVE",
"109 225 OFFCURVE",
"200 245 CURVE SMOOTH",
"385 285 LINE SMOOTH",
"418 292 OFFCURVE",
"435 303 OFFCURVE",
"441 326 CURVE",
"437 326 LINE",
"421 231 LINE SMOOTH",
"397 91 OFFCURVE",
"296 3 OFFCURVE",
"197 3 CURVE SMOOTH"
);
}
);
width = 524;
},
{
anchors = (
{
name = bottom;
position = "{269, 0}";
},
{
name = ogonek;
position = "{459, 0}";
},
{
name = top;
position = "{343, 535}";
}
);
background = {
paths = (
{
closed = 1;
nodes = (
"141 553 OFFCURVE",
"75 495 OFFCURVE",
"41 352 CURVE",
"239 352 LINE",
"255 394 OFFCURVE",
"267 407 OFFCURVE",
"302 407 CURVE SMOOTH",
"335 407 OFFCURVE",
"350 389 OFFCURVE",
"350 364 CURVE SMOOTH",
"350 356 LINE",
"350 339 OFFCURVE",
"345 330 OFFCURVE",
"320 326 CURVE SMOOTH",
"200 309 LINE SMOOTH",
"71 291 OFFCURVE",
"18 235 OFFCURVE",
"18 145 CURVE SMOOTH",
"18 42 OFFCURVE",
"86 -14 OFFCURVE",
"194 -14 CURVE SMOOTH",
"284 -14 OFFCURVE",
"330 20 OFFCURVE",
"357 73 CURVE",
"358 73 LINE",
"375 0 LINE",
"554 0 LINE",
"554 344 LINE SMOOTH",
"554 487 OFFCURVE",
"473 553 OFFCURVE",
"308 553 CURVE SMOOTH"
);
},
{
closed = 1;
nodes = (
"246 121 OFFCURVE",
"227 134 OFFCURVE",
"227 161 CURVE SMOOTH",
"227 187 OFFCURVE",
"243 199 OFFCURVE",
"276 205 CURVE SMOOTH",
"318 213 LINE SMOOTH",
"347 219 OFFCURVE",
"363 228 OFFCURVE",
"363 248 CURVE",
"350 248 LINE",
"350 200 LINE SMOOTH",
"350 150 OFFCURVE",
"325 121 OFFCURVE",
"276 121 CURVE SMOOTH"
);
}
);
};
guideLines = (
{
angle = 80.1186;
position = "{404, 334}";
}
);
layerId = "C1DA716A-5F29-4CD0-A38F-CCADF5849A80";
paths = (
{
closed = 1;
nodes = (
"166 553 OFFCURVE",
"102 495 OFFCURVE",
"56 352 CURVE",
"254 352 LINE",
"274 391 OFFCURVE",
"286 407 OFFCURVE",
"321 407 CURVE SMOOTH",
"349 407 OFFCURVE",
"364 390 OFFCURVE",
"361 364 CURVE SMOOTH",
"360 356 LINE SMOOTH",
"358 339 OFFCURVE",
"351 330 OFFCURVE",
"325 326 CURVE SMOOTH",
"209 309 LINE SMOOTH",
"77 290 OFFCURVE",
"16 245 OFFCURVE",
"0 155 CURVE SMOOTH",
"-18 52 OFFCURVE",
"41 -14 OFFCURVE",
"149 -14 CURVE SMOOTH",
"246 -14 OFFCURVE",
"283 17 OFFCURVE",
"316 70 CURVE",
"317 70 LINE",
"321 0 LINE",
"501 0 LINE",
"558 324 LINE SMOOTH",
"583 467 OFFCURVE",
"508 553 OFFCURVE",
"343 553 CURVE SMOOTH"
);
},
{
closed = 1;
nodes = (
"221 124 OFFCURVE",
"206 137 OFFCURVE",
"211 164 CURVE SMOOTH",
"216 190 OFFCURVE",
"234 201 OFFCURVE",
"266 208 CURVE SMOOTH",
"304 216 LINE SMOOTH",
"334 222 OFFCURVE",
"352 231 OFFCURVE",
"355 251 CURVE",
"342 251 LINE",
"334 203 LINE SMOOTH",
"326 153 OFFCURVE",
"295 124 OFFCURVE",
"251 124 CURVE SMOOTH"
);
}
);
width = 583;
},
{
anchors = (
{
name = ogonek;
position = "{502, 0}";
},
{
name = top;
position = "{391, 535}";
}
);
associatedMasterId = "C1DA716A-5F29-4CD0-A38F-CCADF5849A80";
layerId = "78F4CA00-5BF0-4446-8E2B-D14509F47C7F";
name = "Oct 4 17, 18:09";
paths = (
{
closed = 1;
nodes = (
"267 -13 OFFCURVE",
"327 18 OFFCURVE",
"364 75 CURVE",
"337 68 LINE",
"384 68 LINE",
"366 84 LINE",
"373 0 LINE",
"543 0 LINE",
"597 310 LINE SMOOTH",
"601 332 OFFCURVE",
"602 355 OFFCURVE",
"602 371 CURVE SMOOTH",
"602 487 OFFCURVE",
"519 550 OFFCURVE",
"369 550 CURVE SMOOTH",
"191 550 OFFCURVE",
"119 474 OFFCURVE",
"93 350 CURVE",
"282 350 LINE",
"293 390 OFFCURVE",
"309 407 OFFCURVE",
"354 407 CURVE SMOOTH",
"391 407 OFFCURVE",
"409 390 OFFCURVE",
"409 358 CURVE SMOOTH",
"409 351 OFFCURVE",
"407 338 OFFCURVE",
"405 327 CURVE SMOOTH",
"381 197 LINE SMOOTH",
"369 132 OFFCURVE",
"333 114 OFFCURVE",
"282 114 CURVE SMOOTH",
"253 114 OFFCURVE",
"232 129 OFFCURVE",
"232 155 CURVE SMOOTH",
"232 192 OFFCURVE",
"261 208 OFFCURVE",
"307 213 CURVE SMOOTH",
"414 225 LINE",
"435 329 LINE",
"228 303 LINE SMOOTH",
"109 288 OFFCURVE",
"33 238 OFFCURVE",
"33 125 CURVE SMOOTH",
"33 39 OFFCURVE",
"93 -13 OFFCURVE",
"194 -13 CURVE SMOOTH"
);
}
);
width = 647;
},
{
anchors = (
{
name = bottom;
position = "{234, 0}";
},
{
name = ogonek;
position = "{395, 0}";
},
{
name = top;
position = "{323, 528}";
}
);
background = {
paths = (
{
closed = 1;
nodes = (
"185 544 OFFCURVE",
"131 490 OFFCURVE",
"83 366 CURVE",
"181 366 LINE",
"216 443 OFFCURVE",
"245 463 OFFCURVE",
"307 463 CURVE SMOOTH",
"377 463 OFFCURVE",
"402 427 OFFCURVE",
"394 369 CURVE SMOOTH",
"392 355 LINE",
"387 330 OFFCURVE",
"377 317 OFFCURVE",
"347 312 CURVE SMOOTH",
"227 292 LINE SMOOTH",
"112 273 OFFCURVE",
"41 241 OFFCURVE",
"25 147 CURVE SMOOTH",
"9 53 OFFCURVE",
"67 -14 OFFCURVE",
"178 -14 CURVE SMOOTH",
"265 -14 OFFCURVE",
"316 28 OFFCURVE",
"344 71 CURVE",
"345 71 LINE",
"341 0 LINE",
"426 0 LINE",
"485 333 LINE SMOOTH",
"509 470 OFFCURVE",
"447 544 OFFCURVE",
"316 544 CURVE SMOOTH"
);
},
{
closed = 1;
nodes = (
"151 65 OFFCURVE",
"119 91 OFFCURVE",
"125 141 CURVE SMOOTH",
"131 190 OFFCURVE",
"163 208 OFFCURVE",
"224 219 CURVE SMOOTH",
"335 239 LINE SMOOTH",
"366 245 OFFCURVE",
"375 254 OFFCURVE",
"387 277 CURVE",
"378 277 LINE",
"368 219 LINE SMOOTH",
"351 121 OFFCURVE",
"288 65 OFFCURVE",
"207 65 CURVE SMOOTH"
);
}
);
};
layerId = "6641C2CA-B9F9-47EE-AEEC-6BEE387D8CB9";
paths = (
{
closed = 1;
nodes = (
"185 544 OFFCURVE",
"131 490 OFFCURVE",
"83 366 CURVE",
"181 366 LINE",
"216 443 OFFCURVE",
"245 463 OFFCURVE",
"307 463 CURVE SMOOTH",
"377 463 OFFCURVE",
"402 427 OFFCURVE",
"394 369 CURVE SMOOTH",
"392 355 LINE",
"387 330 OFFCURVE",
"377 317 OFFCURVE",
"347 312 CURVE SMOOTH",
"227 292 LINE SMOOTH",
"112 273 OFFCURVE",
"41 241 OFFCURVE",
"25 147 CURVE SMOOTH",
"9 53 OFFCURVE",
"67 -14 OFFCURVE",
"178 -14 CURVE SMOOTH",
"270 -14 OFFCURVE",
"317 30 OFFCURVE",
"344 76 CURVE",
"345 76 LINE",
"341 0 LINE",
"426 0 LINE",
"485 333 LINE SMOOTH",
"509 470 OFFCURVE",
"447 544 OFFCURVE",
"316 544 CURVE SMOOTH"
);
},
{
closed = 1;
nodes = (
"151 65 OFFCURVE",
"119 91 OFFCURVE",
"125 141 CURVE SMOOTH",
"131 190 OFFCURVE",
"163 208 OFFCURVE",
"224 219 CURVE SMOOTH",
"335 239 LINE SMOOTH",
"366 245 OFFCURVE",
"375 254 OFFCURVE",
"387 277 CURVE",
"378 277 LINE",
"368 219 LINE SMOOTH",
"352 126 OFFCURVE",
"283 65 OFFCURVE",
"202 65 CURVE SMOOTH"
);
}
);
width = 535;
}
);
rightMetricsKey = n;
unicode = 0061;
userData = {
RMXScaler = {
source = a;
};
};
},
{
color = 9;
glyphname = b;
lastChange = "2018-07-13 14:14:58 +0000";
layers = (
{
associatedMasterId = "CC363ACD-D5A5-4E19-A940-9AF36D109D9E";
background = {
paths = (
{
closed = 1;
nodes = (
"83 750 LINE",
"83 0 LINE",
"206 0 LINE",
"221 85 LINE",
"228 85 LINE",
"259 19 OFFCURVE",
"315 -14 OFFCURVE",
"389 -14 CURVE SMOOTH",
"532 -14 OFFCURVE",
"618 90 OFFCURVE",
"618 263 CURVE SMOOTH",
"618 436 OFFCURVE",
"532 540 OFFCURVE",
"389 540 CURVE SMOOTH",
"315 540 OFFCURVE",
"259 508 OFFCURVE",
"228 446 CURVE",
"223 446 LINE",
"223 750 LINE"
);
},
{
closed = 1;
nodes = (
"266 106 OFFCURVE",
"223 161 OFFCURVE",
"223 263 CURVE SMOOTH",
"223 365 OFFCURVE",
"266 420 OFFCURVE",
"347 420 CURVE SMOOTH",
"432 420 OFFCURVE",
"473 370 OFFCURVE",
"473 263 CURVE SMOOTH",
"473 156 OFFCURVE",
"432 106 OFFCURVE",
"347 106 CURVE SMOOTH"
);
}
);
};
layerId = "84435905-EDCB-4949-A8A3-0E53308A2F50";
paths = (
{
closed = 1;
nodes = (
"64 750 LINE",
"64 0 LINE",
"245 0 LINE",
"262 81 LINE",
"275 81 LINE",
"296 33 OFFCURVE",
"350 -14 OFFCURVE",
"436 -14 CURVE SMOOTH",
"573 -14 OFFCURVE",
"653 93 OFFCURVE",
"653 267 CURVE SMOOTH",
"653 442 OFFCURVE",
"573 550 OFFCURVE",
"436 550 CURVE SMOOTH",
"350 550 OFFCURVE",
"296 503 OFFCURVE",
"275 455 CURVE",
"269 455 LINE",
"269 750 LINE"
);
},
{
closed = 1;
nodes = (
"299 151 OFFCURVE",
"269 190 OFFCURVE",
"269 267 CURVE SMOOTH",
"269 345 OFFCURVE",
"299 384 OFFCURVE",
"356 384 CURVE SMOOTH",
"417 384 OFFCURVE",
"443 346 OFFCURVE",
"443 267 CURVE SMOOTH",
"443 189 OFFCURVE",
"417 151 OFFCURVE",
"356 151 CURVE SMOOTH"
);
}
);
userData = {
RMXScaler = {
height = 100.1;
};
};
width = 689;
},
{
associatedMasterId = "CC363ACD-D5A5-4E19-A940-9AF36D109D9E";
background = {
paths = (
{
closed = 1;
nodes = (
"107 750 LINE",
"107 0 LINE",
"148 0 LINE",
"162 101 LINE",
"166 101 LINE",
"192 48 OFFCURVE",
"243 -15 OFFCURVE",
"345 -15 CURVE SMOOTH",
"492 -15 OFFCURVE",
"574 86 OFFCURVE",
"574 257 CURVE SMOOTH",
"574 426 OFFCURVE",
"487 530 OFFCURVE",
"345 530 CURVE SMOOTH",
"262 530 OFFCURVE",
"204 496 OFFCURVE",
"167 425 CURVE",
"162 425 LINE",
"162 750 LINE"
);
},
{
closed = 1;
nodes = (
"223 32 OFFCURVE",
"157 149 OFFCURVE",
"157 257 CURVE SMOOTH",
"157 381 OFFCURVE",
"223 483 OFFCURVE",
"343 483 CURVE SMOOTH",
"456 483 OFFCURVE",
"518 402 OFFCURVE",
"518 257 CURVE SMOOTH",
"518 112 OFFCURVE",
"462 32 OFFCURVE",
"343 32 CURVE SMOOTH"
);
}
);
};
layerId = "0A1AFE58-107D-4787-BDA0-D82FB635C3A6";
paths = (
{
closed = 1;
nodes = (
"107 750 LINE",
"107 0 LINE",
"148 0 LINE",
"162 101 LINE",
"166 101 LINE",
"192 48 OFFCURVE",
"243 -15 OFFCURVE",
"345 -15 CURVE SMOOTH",
"492 -15 OFFCURVE",
"574 86 OFFCURVE",
"574 257 CURVE SMOOTH",
"574 426 OFFCURVE",
"487 530 OFFCURVE",
"345 530 CURVE SMOOTH",
"262 530 OFFCURVE",
"204 496 OFFCURVE",
"167 425 CURVE",
"162 425 LINE",
"162 750 LINE"
);
},
{
closed = 1;
nodes = (
"223 32 OFFCURVE",
"157 149 OFFCURVE",
"157 257 CURVE SMOOTH",
"157 381 OFFCURVE",
"223 483 OFFCURVE",
"343 483 CURVE SMOOTH",
"456 483 OFFCURVE",
"518 402 OFFCURVE",
"518 257 CURVE SMOOTH",
"518 112 OFFCURVE",
"462 32 OFFCURVE",
"343 32 CURVE SMOOTH"
);
}
);
width = 641;
},
{
background = {
paths = (
{
closed = 1;
nodes = (
"45 0 LINE",
"61 0 LINE",
"89 140 LINE",
"90 140 LINE",
"97 55 OFFCURVE",
"150 -15 OFFCURVE",
"256 -15 CURVE SMOOTH",
"394 -15 OFFCURVE",
"480 87 OFFCURVE",
"510 258 CURVE SMOOTH",
"540 428 OFFCURVE",
"481 530 OFFCURVE",
"343 530 CURVE SMOOTH",
"229 530 OFFCURVE",
"164 457 OFFCURVE",
"133 381 CURVE",
"132 381 LINE",
"196 740 LINE",
"176 740 LINE"
);
},
{
closed = 1;
nodes = (
"465 511 OFFCURVE",
"518 418 OFFCURVE",
"490 258 CURVE SMOOTH",
"462 97 OFFCURVE",
"386 4 OFFCURVE",
"260 4 CURVE SMOOTH",
"145 4 OFFCURVE",
"81 92 OFFCURVE",
"111 258 CURVE SMOOTH",
"143 436 OFFCURVE",
"228 511 OFFCURVE",
"339 511 CURVE SMOOTH"
);
}
);
};
guideLines = (
{
angle = 80;
position = "{181, 347}";
}
);
layerId = "CC363ACD-D5A5-4E19-A940-9AF36D109D9E";
paths = (
{
closed = 1;
nodes = (
"45 0 LINE",
"61 0 LINE",
"89 140 LINE",
"90 140 LINE",
"103 53 OFFCURVE",
"162 -15 OFFCURVE",
"263 -15 CURVE SMOOTH",
"396 -15 OFFCURVE",
"479 85 OFFCURVE",
"508 246 CURVE SMOOTH",
"539 416 OFFCURVE",
"473 530 OFFCURVE",
"335 530 CURVE SMOOTH",
"233 530 OFFCURVE",
"167 462 OFFCURVE",
"134 386 CURVE",
"133 386 LINE",
"196 740 LINE",
"176 740 LINE"
);
},
{
closed = 1;
nodes = (
"460 511 OFFCURVE",
"517 408 OFFCURVE",
"488 248 CURVE SMOOTH",
"461 97 OFFCURVE",
"385 4 OFFCURVE",
"264 4 CURVE SMOOTH",
"154 4 OFFCURVE",
"81 92 OFFCURVE",
"111 258 CURVE SMOOTH",
"143 436 OFFCURVE",
"233 511 OFFCURVE",
"334 511 CURVE SMOOTH"
);
}
);
width = 560;
},
{
background = {
paths = (
{
closed = 1;
nodes = (
"-7 0 LINE",
"179 0 LINE",
"213 88 LINE",
"214 88 LINE",
"225 34 OFFCURVE",
"255 -15 OFFCURVE",
"348 -15 CURVE SMOOTH",
"475 -15 OFFCURVE",
"569 94 OFFCURVE",
"599 268 CURVE SMOOTH",
"630 443 OFFCURVE",
"570 550 OFFCURVE",
"448 550 CURVE SMOOTH",
"365 550 OFFCURVE",
"320 513 OFFCURVE",
"285 461 CURVE",
"284 461 LINE",
"334 740 LINE",
"124 740 LINE"
);
},
{
closed = 1;
nodes = (
"387 390 OFFCURVE",
"401 350 OFFCURVE",
"386 267 CURVE SMOOTH",
"372 184 OFFCURVE",
"344 145 OFFCURVE",
"296 145 CURVE SMOOTH",
"247 145 OFFCURVE",
"234 184 OFFCURVE",
"248 267 CURVE SMOOTH",
"263 350 OFFCURVE",
"290 390 OFFCURVE",
"339 390 CURVE SMOOTH"
);
}
);
};
guideLines = (
{
angle = 80;
position = "{655, 347}";
}
);
layerId = "C1DA716A-5F29-4CD0-A38F-CCADF5849A80";
paths = (
{
closed = 1;
nodes = (
"-7 0 LINE",
"173 0 LINE",
"208 93 LINE",
"209 93 LINE",
"225 39 OFFCURVE",
"260 -15 OFFCURVE",
"353 -15 CURVE SMOOTH",
"480 -15 OFFCURVE",
"566 94 OFFCURVE",
"593 268 CURVE SMOOTH",
"620 443 OFFCURVE",
"565 550 OFFCURVE",
"438 550 CURVE SMOOTH",
"360 550 OFFCURVE",
"321 518 OFFCURVE",
"286 466 CURVE",
"285 466 LINE",
"334 740 LINE",
"124 740 LINE"
);
},
{
closed = 1;
nodes = (
"380 390 OFFCURVE",
"395 350 OFFCURVE",
"380 267 CURVE SMOOTH",
"365 184 OFFCURVE",
"340 145 OFFCURVE",
"295 145 CURVE SMOOTH",
"250 145 OFFCURVE",
"233 184 OFFCURVE",
"248 267 CURVE SMOOTH",
"263 350 OFFCURVE",
"292 390 OFFCURVE",
"332 390 CURVE SMOOTH"
);
}
);
width = 618;
},
{
background = {
paths = (
{
closed = 1;
nodes = (
"88 -212 LINE",
"140 78 LINE",
"141 78 LINE",
"163 25 OFFCURVE",
"209 -15 OFFCURVE",
"292 -15 CURVE SMOOTH",
"419 -15 OFFCURVE",
"514 78 OFFCURVE",
"544 249 CURVE SMOOTH",
"575 425 OFFCURVE",
"505 543 OFFCURVE",
"369 543 CURVE SMOOTH",
"281 543 OFFCURVE",
"238 504 OFFCURVE",
"204 452 CURVE",
"203 452 LINE",
"204 528 LINE",
"119 528 LINE",
"-12 -212 LINE"
);
},
{
closed = 1;
nodes = (
"182 70 OFFCURVE",
"150 155 OFFCURVE",
"172 279 CURVE SMOOTH",
"192 391 OFFCURVE",
"256 458 OFFCURVE",
"338 458 CURVE SMOOTH",
"425 458 OFFCURVE",
"467 384 OFFCURVE",
"444 254 CURVE SMOOTH",
"425 144 OFFCURVE",
"376 70 OFFCURVE",
"284 70 CURVE SMOOTH"
);
}
);
};
guideLines = (
{
angle = 80;
position = "{184, 347}";
}
);
layerId = "6641C2CA-B9F9-47EE-AEEC-6BEE387D8CB9";
paths = (
{
closed = 1;
nodes = (
"25 0 LINE",
"110 0 LINE",
"137 81 LINE",
"138 81 LINE",
"158 34 OFFCURVE",
"204 -15 OFFCURVE",
"292 -15 CURVE SMOOTH",
"419 -15 OFFCURVE",
"518 78 OFFCURVE",
"544 249 CURVE SMOOTH",
"571 425 OFFCURVE",
"498 543 OFFCURVE",
"366 543 CURVE SMOOTH",
"289 543 OFFCURVE",
"245 512 OFFCURVE",
"207 459 CURVE",
"206 459 LINE",
"256 740 LINE",
"156 740 LINE"
);
},
{
closed = 1;
nodes = (
"425 458 OFFCURVE",
"466 384 OFFCURVE",
"444 254 CURVE SMOOTH",
"425 144 OFFCURVE",
"376 70 OFFCURVE",
"283 70 CURVE SMOOTH",
"182 70 OFFCURVE",
"150 155 OFFCURVE",
"172 279 CURVE SMOOTH",
"192 391 OFFCURVE",
"256 458 OFFCURVE",
"337 458 CURVE SMOOTH"
);
}
);
width = 587;
}
);
leftMetricsKey = h;
rightMetricsKey = o;
unicode = 0062;
userData = {
RMXScaler = {
source = b;
};
};
},
{
color = 9;
glyphname = c;
lastChange = "2018-07-13 14:14:58 +0000";
layers = (
{
anchors = (
{
name = bottom;
position = "{231, 0}";
},
{
name = top;
position = "{300, 515}";
}
);
background = {
paths = (
{
closed = 1;
nodes = (
"363 -15 OFFCURVE",
"450 78 OFFCURVE",
"481 251 CURVE SMOOTH",
"512 424 OFFCURVE",
"441 530 OFFCURVE",
"302 530 CURVE SMOOTH",
"169 530 OFFCURVE",
"81 438 OFFCURVE",
"51 265 CURVE SMOOTH",
"21 92 OFFCURVE",
"91 -15 OFFCURVE",
"230 -15 CURVE SMOOTH"
);
},
{
closed = 1;
nodes = (
"104 4 OFFCURVE",
"43 101 OFFCURVE",
"71 263 CURVE SMOOTH",
"99 425 OFFCURVE",
"177 511 OFFCURVE",
"301 511 CURVE SMOOTH",
"428 511 OFFCURVE",
"490 415 OFFCURVE",
"461 253 CURVE SMOOTH",
"432 91 OFFCURVE",
"355 4 OFFCURVE",
"231 4 CURVE SMOOTH"
);
}
);
};
guideLines = (
{
angle = 80;
position = "{131, 353}";
}
);
layerId = "CC363ACD-D5A5-4E19-A940-9AF36D109D9E";
paths = (
{
closed = 1;
nodes = (
"339 -15 OFFCURVE",
"398 38 OFFCURVE",
"449 159 CURVE",
"428 159 LINE",
"380 54 OFFCURVE",
"333 4 OFFCURVE",
"228 4 CURVE SMOOTH",
"101 4 OFFCURVE",
"42 105 OFFCURVE",
"72 268 CURVE SMOOTH",
"101 428 OFFCURVE",
"182 511 OFFCURVE",
"294 511 CURVE SMOOTH",
"391 511 OFFCURVE",
"440 469 OFFCURVE",
"458 361 CURVE",
"477 361 LINE",
"457 481 OFFCURVE",
"404 530 OFFCURVE",
"295 530 CURVE SMOOTH",
"171 530 OFFCURVE",
"83 439 OFFCURVE",
"52 268 CURVE SMOOTH",
"20 94 OFFCURVE",
"88 -15 OFFCURVE",
"227 -15 CURVE SMOOTH"
);
}
);
width = 516;
},
{
anchors = (
{
name = bottom;
position = "{268, 0}";
},
{
name = top;
position = "{332, 535}";
}
);
background = {
paths = (
{
closed = 1;
nodes = (
"471 -15 OFFCURVE",
"543 67 OFFCURVE",
"567 227 CURVE",
"370 227 LINE",
"358 176 OFFCURVE",
"347 145 OFFCURVE",
"301 145 CURVE SMOOTH",
"251 145 OFFCURVE",
"233 190 OFFCURVE",
"233 264 CURVE SMOOTH",
"233 347 OFFCURVE",
"251 390 OFFCURVE",
"301 390 CURVE SMOOTH",
"346 390 OFFCURVE",
"358 363 OFFCURVE",
"370 310 CURVE",
"567 310 LINE",
"549 464 OFFCURVE",
"477 550 OFFCURVE",
"293 550 CURVE SMOOTH",
"127 550 OFFCURVE",
"20 448 OFFCURVE",
"20 264 CURVE SMOOTH",
"20 88 OFFCURVE",
"127 -15 OFFCURVE",
"293 -15 CURVE SMOOTH"
);
}
);
};
guideLines = (
{
angle = 80;
position = "{42, 347}";
}
);
layerId = "C1DA716A-5F29-4CD0-A38F-CCADF5849A80";
paths = (
{
closed = 1;
nodes = (
"446 -15 OFFCURVE",
"518 67 OFFCURVE",
"555 227 CURVE",
"358 227 LINE",
"342 176 OFFCURVE",
"323 145 OFFCURVE",
"282 145 CURVE SMOOTH",
"237 145 OFFCURVE",
"224 190 OFFCURVE",
"237 264 CURVE SMOOTH",
"252 352 OFFCURVE",
"275 390 OFFCURVE",
"317 390 CURVE SMOOTH",
"357 390 OFFCURVE",
"368 363 OFFCURVE",
"372 310 CURVE",
"569 310 LINE",
"559 464 OFFCURVE",
"492 550 OFFCURVE",
"318 550 CURVE SMOOTH",
"157 550 OFFCURVE",
"55 458 OFFCURVE",
"26 274 CURVE SMOOTH",
"-2 98 OFFCURVE",
"92 -15 OFFCURVE",
"263 -15 CURVE SMOOTH"
);
}
);
width = 584;
},
{
anchors = (
{
name = bottom;
position = "{234, 0}";
},
{
name = top;
position = "{309, 528}";
}
);
background = {
anchors = (
{
name = bottom;
position = "{246, 0}";
},
{
name = top;
position = "{313, 520}";
}
);
paths = (
{
closed = 1;
nodes = (
"388 -15 OFFCURVE",
"460 48 OFFCURVE",
"488 164 CURVE",
"390 177 LINE",
"374 104 OFFCURVE",
"328 68 OFFCURVE",
"256 68 CURVE SMOOTH",
"175 68 OFFCURVE",
"134 117 OFFCURVE",
"134 207 CURVE SMOOTH",
"134 373 OFFCURVE",
"204 452 OFFCURVE",
"305 452 CURVE SMOOTH",
"381 452 OFFCURVE",
"414 413 OFFCURVE",
"413 340 CURVE",
"514 347 LINE",
"515 458 OFFCURVE",
"447 535 OFFCURVE",
"306 535 CURVE SMOOTH",
"139 535 OFFCURVE",
"31 403 OFFCURVE",
"31 211 CURVE SMOOTH",
"31 65 OFFCURVE",
"113 -15 OFFCURVE",
"247 -15 CURVE SMOOTH"
);
}
);
};
guideLines = (
{
angle = 80;
position = "{53, 353}";
}
);
layerId = "6641C2CA-B9F9-47EE-AEEC-6BEE387D8CB9";
paths = (
{
closed = 1;
nodes = (
"379 -15 OFFCURVE",
"446 49 OFFCURVE",
"489 187 CURVE",
"389 187 LINE",
"355 107 OFFCURVE",
"324 70 OFFCURVE",
"248 70 CURVE SMOOTH",
"160 70 OFFCURVE",
"121 139 OFFCURVE",
"143 264 CURVE SMOOTH",
"163 380 OFFCURVE",
"208 458 OFFCURVE",
"301 458 CURVE SMOOTH",
"380 458 OFFCURVE",
"404 424 OFFCURVE",
"415 345 CURVE",
"515 345 LINE",
"501 483 OFFCURVE",
"441 543 OFFCURVE",
"306 543 CURVE SMOOTH",
"159 543 OFFCURVE",
"71 439 OFFCURVE",
"41 269 CURVE SMOOTH",
"9 90 OFFCURVE",
"86 -15 OFFCURVE",
"238 -15 CURVE SMOOTH"
);
}
);
width = 533;
}
);
leftMetricsKey = o;
unicode = 0063;
userData = {
RMXScaler = {
source = c;
};
};
},
{
color = 9;
glyphname = d;
lastChange = "2018-07-13 14:14:58 +0000";
layers = (
{
anchors = (
{
name = topright;
position = "{615, 515}";
}
);
background = {
paths = (
{
closed = 1;
nodes = (
"534 740 LINE",
"470 381 LINE",
"469 381 LINE",
"466 457 OFFCURVE",
"417 530 OFFCURVE",
"303 530 CURVE SMOOTH",
"165 530 OFFCURVE",
"81 428 OFFCURVE",
"50 258 CURVE SMOOTH",
"19 87 OFFCURVE",
"78 -15 OFFCURVE",
"216 -15 CURVE SMOOTH",
"322 -15 OFFCURVE",
"391 55 OFFCURVE",
"428 140 CURVE",
"429 140 LINE",
"407 0 LINE",
"423 0 LINE",
"554 740 LINE"
);
},
{
closed = 1;
nodes = (
"410 511 OFFCURVE",
"480 436 OFFCURVE",
"449 258 CURVE SMOOTH",
"420 92 OFFCURVE",
"335 4 OFFCURVE",
"220 4 CURVE SMOOTH",
"94 4 OFFCURVE",
"41 97 OFFCURVE",
"70 258 CURVE SMOOTH",
"99 418 OFFCURVE",
"173 511 OFFCURVE",
"299 511 CURVE SMOOTH"
);
}
);
};
guideLines = (
{
angle = 80;
position = "{90, 353}";
}
);
layerId = "CC363ACD-D5A5-4E19-A940-9AF36D109D9E";
paths = (
{
closed = 1;
nodes = (
"534 740 LINE",
"470 381 LINE",
"469 381 LINE",
"451 457 OFFCURVE",
"404 530 OFFCURVE",
"295 530 CURVE SMOOTH",
"167 530 OFFCURVE",
"83 441 OFFCURVE",
"52 271 CURVE SMOOTH",
"21 100 OFFCURVE",
"89 -15 OFFCURVE",
"224 -15 CURVE SMOOTH",
"326 -15 OFFCURVE",
"393 50 OFFCURVE",
"427 135 CURVE",
"428 135 LINE",
"407 0 LINE",
"423 0 LINE",
"554 740 LINE"
);
},
{
closed = 1;
nodes = (
"400 511 OFFCURVE",
"480 426 OFFCURVE",
"447 248 CURVE SMOOTH",
"418 92 OFFCURVE",
"335 4 OFFCURVE",
"225 4 CURVE SMOOTH",
"103 4 OFFCURVE",
"42 107 OFFCURVE",
"71 268 CURVE SMOOTH",
"100 428 OFFCURVE",
"178 511 OFFCURVE",
"294 511 CURVE SMOOTH"
);
}
);
width = 559;
},
{
anchors = (
{
name = topright;
position = "{718, 535}";
}
);
background = {
components = (
{
name = b;
transform = "{-1, 0, 0, -1, 618, 535}";
}
);
};
layerId = "C1DA716A-5F29-4CD0-A38F-CCADF5849A80";
paths = (
{
closed = 1;
nodes = (
"451 740 LINE",
"401 461 LINE",
"400 461 LINE",
"378 517 OFFCURVE",
"347 550 OFFCURVE",
"269 550 CURVE SMOOTH",
"147 550 OFFCURVE",
"57 453 OFFCURVE",
"27 278 CURVE SMOOTH",
"-3 104 OFFCURVE",
"51 -15 OFFCURVE",
"182 -15 CURVE SMOOTH",
"275 -15 OFFCURVE",
"321 34 OFFCURVE",
"347 88 CURVE",
"348 88 LINE",
"350 0 LINE",
"530 0 LINE",
"661 740 LINE"
);
},
{
closed = 1;
nodes = (
"367 390 OFFCURVE",
"384 350 OFFCURVE",
"369 267 CURVE SMOOTH",
"355 184 OFFCURVE",
"327 145 OFFCURVE",
"283 145 CURVE SMOOTH",
"238 145 OFFCURVE",
"224 184 OFFCURVE",
"238 267 CURVE SMOOTH",
"252 350 OFFCURVE",
"279 390 OFFCURVE",
"320 390 CURVE SMOOTH"
);
}
);
width = 618;
},
{
anchors = (
{
name = topright;
position = "{648, 528}";
}
);
background = {
paths = (
{
closed = 1;
nodes = (
"499 740 LINE",
"449 459 LINE",
"448 459 LINE",
"418 512 OFFCURVE",
"373 543 OFFCURVE",
"295 543 CURVE SMOOTH",
"168 543 OFFCURVE",
"70 455 OFFCURVE",
"41 274 CURVE SMOOTH",
"13 98 OFFCURVE",
"82 -15 OFFCURVE",
"218 -15 CURVE SMOOTH",
"306 -15 OFFCURVE",
"348 24 OFFCURVE",
"382 71 CURVE",
"383 71 LINE",
"383 0 LINE",
"468 0 LINE",
"599 740 LINE"
);
},
{
closed = 1;
nodes = (
"395 458 OFFCURVE",
"438 378 OFFCURVE",
"417 259 CURVE SMOOTH",
"395 134 OFFCURVE",
"331 70 OFFCURVE",
"249 70 CURVE SMOOTH",
"162 70 OFFCURVE",
"119 139 OFFCURVE",
"142 269 CURVE SMOOTH",
"163 389 OFFCURVE",
"211 458 OFFCURVE",
"303 458 CURVE SMOOTH"
);
}
);
};
guideLines = (
{
angle = 80;
position = "{430, 347}";
}
);
layerId = "6641C2CA-B9F9-47EE-AEEC-6BEE387D8CB9";
paths = (
{
closed = 1;
nodes = (
"499 740 LINE",
"447 450 LINE",
"446 450 LINE",
"424 503 OFFCURVE",
"378 543 OFFCURVE",
"295 543 CURVE SMOOTH",
"168 543 OFFCURVE",
"71 450 OFFCURVE",
"43 279 CURVE SMOOTH",
"14 103 OFFCURVE",
"90 -15 OFFCURVE",
"223 -15 CURVE SMOOTH",
"306 -15 OFFCURVE",
"349 24 OFFCURVE",
"383 76 CURVE",
"384 76 LINE",
"383 0 LINE",
"468 0 LINE",
"599 740 LINE"
);
},
{
closed = 1;
nodes = (
"405 458 OFFCURVE",
"437 373 OFFCURVE",
"415 249 CURVE SMOOTH",
"395 137 OFFCURVE",
"331 70 OFFCURVE",
"249 70 CURVE SMOOTH",
"162 70 OFFCURVE",
"122 144 OFFCURVE",
"143 274 CURVE SMOOTH",
"161 384 OFFCURVE",
"213 458 OFFCURVE",
"303 458 CURVE SMOOTH"
);
}
);
width = 587;
}
);
leftMetricsKey = o;
rightMetricsKey = "=|n";
unicode = 0064;
userData = {
RMXScaler = {
source = d;
};
};
},
{
color = 9;
glyphname = e;
lastChange = "2018-07-13 14:14:58 +0000";
layers = (
{
anchors = (
{
name = ogonek;
position = "{356, 0}";
},
{
name = top;
position = "{357, 525}";
}
);
associatedMasterId = "CC363ACD-D5A5-4E19-A940-9AF36D109D9E";
background = {
anchors = (
{
name = ogonek;
position = "{409, 0}";
},
{
name = top;
position = "{314, 525}";
}
);
paths = (
{
closed = 1;
nodes = (
"436 -15 OFFCURVE",
"508 49 OFFCURVE",
"541 147 CURVE",
"400 147 LINE",
"383 111 OFFCURVE",
"353 95 OFFCURVE",
"297 95 CURVE SMOOTH",
"221 95 OFFCURVE",
"189 130 OFFCURVE",
"189 205 CURVE SMOOTH",
"189 222 OFFCURVE",
"191 241 OFFCURVE",
"197 286 CURVE SMOOTH",
"211 383 OFFCURVE",
"255 429 OFFCURVE",
"335 429 CURVE SMOOTH",
"399 429 OFFCURVE",
"430 400 OFFCURVE",
"430 339 CURVE SMOOTH",
"430 328 OFFCURVE",
"427 303 OFFCURVE",
"423 287 CURVE",
"444 311 LINE",
"168 311 LINE",
"153 221 LINE",
"551 221 LINE",
"557 254 LINE SMOOTH",
"562 284 OFFCURVE",
"566 309 OFFCURVE",
"566 334 CURVE SMOOTH",
"566 468 OFFCURVE",
"485 540 OFFCURVE",
"336 540 CURVE SMOOTH",
"137 540 OFFCURVE",
"49 395 OFFCURVE",
"49 210 CURVE SMOOTH",
"49 65 OFFCURVE",
"129 -15 OFFCURVE",
"288 -15 CURVE SMOOTH"
);
}
);
};
guideLines = (
{
angle = 91.7357;
position = "{536, 225}";
}
);
layerId = "EAB54FD9-3D60-4BB1-8D7E-6213FCC49E20";
name = "Aug 30 17, 12:25";
paths = (
{
closed = 1;
nodes = (
"418 -15 OFFCURVE",
"492 49 OFFCURVE",
"528 147 CURVE",
"388 147 LINE",
"370 111 OFFCURVE",
"343 95 OFFCURVE",
"284 95 CURVE SMOOTH",
"219 95 OFFCURVE",
"189 129 OFFCURVE",
"189 207 CURVE SMOOTH",
"189 376 OFFCURVE",
"251 429 OFFCURVE",
"338 429 CURVE SMOOTH",
"415 429 OFFCURVE",
"439 391 OFFCURVE",
"422 306 CURVE SMOOTH",
"418 287 LINE",
"440 311 LINE",
"172 311 LINE",
"156 221 LINE",
"545 221 LINE",
"556 284 LINE SMOOTH",
"584 442 OFFCURVE",
"525 540 OFFCURVE",
"359 540 CURVE SMOOTH",
"178 540 OFFCURVE",
"47 416 OFFCURVE",
"47 200 CURVE SMOOTH",
"47 70 OFFCURVE",
"116 -15 OFFCURVE",
"265 -15 CURVE SMOOTH"
);
}
);
width = 602;
},
{
anchors = (
{
name = bottom;
position = "{221, 0}";
},
{
name = ogonek;
position = "{319, 0}";
},
{
name = top;
position = "{300, 515}";
}
);
background = {
paths = (
{
closed = 1;
nodes = (
"363 -15 OFFCURVE",
"450 78 OFFCURVE",
"481 251 CURVE SMOOTH",
"512 424 OFFCURVE",
"441 530 OFFCURVE",
"302 530 CURVE SMOOTH",
"169 530 OFFCURVE",
"81 438 OFFCURVE",
"51 265 CURVE SMOOTH",
"21 92 OFFCURVE",
"91 -15 OFFCURVE",
"230 -15 CURVE SMOOTH"
);
},
{
closed = 1;
nodes = (
"104 4 OFFCURVE",
"43 101 OFFCURVE",
"71 263 CURVE SMOOTH",
"99 425 OFFCURVE",
"177 511 OFFCURVE",
"301 511 CURVE SMOOTH",
"428 511 OFFCURVE",
"490 415 OFFCURVE",
"461 253 CURVE SMOOTH",
"432 91 OFFCURVE",
"355 4 OFFCURVE",
"231 4 CURVE SMOOTH"
);
}
);
};
guideLines = (
{
angle = 80;
position = "{131, 353}";
}
);
layerId = "CC363ACD-D5A5-4E19-A940-9AF36D109D9E";
paths = (
{
closed = 1;
nodes = (
"323 -15 OFFCURVE",
"379 24 OFFCURVE",
"431 123 CURVE",
"409 123 LINE",
"366 41 OFFCURVE",
"316 4 OFFCURVE",
"223 4 CURVE SMOOTH",
"99 4 OFFCURVE",
"43 106 OFFCURVE",
"72 268 CURVE SMOOTH",
"100 425 OFFCURVE",
"179 511 OFFCURVE",
"294 511 CURVE SMOOTH",
"416 511 OFFCURVE",
"467 421 OFFCURVE",
"442 267 CURVE",
"450 273 LINE",
"68 273 LINE",
"65 255 LINE",
"460 255 LINE",
"462 267 LINE SMOOTH",
"489 432 OFFCURVE",
"426 530 OFFCURVE",
"295 530 CURVE SMOOTH",
"169 530 OFFCURVE",
"82 437 OFFCURVE",
"52 269 CURVE SMOOTH",
"21 96 OFFCURVE",
"87 -15 OFFCURVE",
"222 -15 CURVE SMOOTH"
);
}
);
width = 510;
},
{
anchors = (
{
name = bottom;
position = "{284, 0}";
},
{
name = ogonek;
position = "{375, 0}";
},
{
name = top;
position = "{325, 535}";
}
);
background = {
paths = (
{
closed = 1;
nodes = (
"462 -15 OFFCURVE",
"528 39 OFFCURVE",
"567 171 CURVE",
"375 171 LINE",
"359 142 OFFCURVE",
"351 125 OFFCURVE",
"305 125 CURVE SMOOTH",
"249 125 OFFCURVE",
"224 162 OFFCURVE",
"224 268 CURVE SMOOTH",
"224 376 OFFCURVE",
"251 411 OFFCURVE",
"301 411 CURVE SMOOTH",
"350 411 OFFCURVE",
"374 378 OFFCURVE",
"374 301 CURVE",
"393 331 LINE",
"200 331 LINE",
"200 210 LINE",
"571 211 LINE",
"571 277 LINE SMOOTH",
"571 453 OFFCURVE",
"468 553 OFFCURVE",
"299 553 CURVE SMOOTH",
"128 553 OFFCURVE",
"20 447 OFFCURVE",
"20 267 CURVE SMOOTH",
"20 88 OFFCURVE",
"122 -15 OFFCURVE",
"299 -15 CURVE SMOOTH"
);
}
);
};
guideLines = (
{
angle = 260.2101;
position = "{43, 353}";
}
);
layerId = "C1DA716A-5F29-4CD0-A38F-CCADF5849A80";
paths = (
{
closed = 1;
nodes = (
"432 -15 OFFCURVE",
"505 42 OFFCURVE",
"550 171 CURVE",
"358 171 LINE",
"340 142 OFFCURVE",
"326 125 OFFCURVE",
"285 125 CURVE SMOOTH",
"236 125 OFFCURVE",
"215 166 OFFCURVE",
"229 272 CURVE SMOOTH",
"242 371 OFFCURVE",
"271 411 OFFCURVE",
"321 411 CURVE SMOOTH",
"368 411 OFFCURVE",
"385 378 OFFCURVE",
"375 301 CURVE",
"399 331 LINE",
"211 331 LINE",
"190 210 LINE",
"556 211 LINE",
"564 267 LINE SMOOTH",
"588 432 OFFCURVE",
"508 553 OFFCURVE",
"329 553 CURVE SMOOTH",
"163 553 OFFCURVE",
"53 457 OFFCURVE",
"28 282 CURVE SMOOTH",
"0 88 OFFCURVE",
"87 -15 OFFCURVE",
"269 -15 CURVE SMOOTH"
);
}
);
width = 592;
},
{
anchors = (
{
name = ogonek;
position = "{404, 0}";
},
{
name = top;
position = "{309, 525}";
}
);
associatedMasterId = "CC363ACD-D5A5-4E19-A940-9AF36D109D9E";
background = {
paths = (
{
closed = 1;
nodes = (
"483 -15 OFFCURVE",
"587 123 OFFCURVE",
"587 315 CURVE SMOOTH",
"587 461 OFFCURVE",
"496 540 OFFCURVE",
"343 540 CURVE SMOOTH",
"156 540 OFFCURVE",
"52 402 OFFCURVE",
"52 210 CURVE SMOOTH",
"52 64 OFFCURVE",
"143 -15 OFFCURVE",
"296 -15 CURVE SMOOTH"
);
},
{
closed = 1;
nodes = (
"228 100 OFFCURVE",
"194 137 OFFCURVE",
"194 213 CURVE SMOOTH",
"194 350 OFFCURVE",
"245 425 OFFCURVE",
"339 425 CURVE SMOOTH",
"411 425 OFFCURVE",
"445 388 OFFCURVE",
"445 312 CURVE SMOOTH",
"445 175 OFFCURVE",
"394 100 OFFCURVE",
"300 100 CURVE SMOOTH"
);
}
);
};
guideLines = (
{
angle = 91.7357;
position = "{531, 225}";
}
);
layerId = "E5273CF7-7070-45AC-A945-88C8A9873BCE";
name = "Oct 3 17, 17:55";
paths = (
{
closed = 1;
nodes = (
"429 -15 OFFCURVE",
"500 49 OFFCURVE",
"533 147 CURVE",
"392 147 LINE",
"375 111 OFFCURVE",
"346 95 OFFCURVE",
"292 95 CURVE SMOOTH",
"220 95 OFFCURVE",
"189 130 OFFCURVE",
"189 205 CURVE SMOOTH",
"189 325 OFFCURVE",
"223 429 OFFCURVE",
"335 429 CURVE SMOOTH",
"397 429 OFFCURVE",
"427 400 OFFCURVE",
"427 339 CURVE SMOOTH",
"427 328 OFFCURVE",
"424 303 OFFCURVE",
"420 287 CURVE",
"441 311 LINE",
"167 311 LINE",
"152 221 LINE",
"548 221 LINE",
"560 289 OFFCURVE",
"563 308 OFFCURVE",
"563 334 CURVE SMOOTH",
"563 468 OFFCURVE",
"483 540 OFFCURVE",
"337 540 CURVE SMOOTH",
"153 540 OFFCURVE",
"52 394 OFFCURVE",
"52 210 CURVE SMOOTH",
"52 65 OFFCURVE",
"130 -15 OFFCURVE",
"283 -15 CURVE SMOOTH"
);
}
);
width = 605;
},
{
anchors = (
{
name = ogonek;
position = "{371, 0}";
}
);
associatedMasterId = "C1DA716A-5F29-4CD0-A38F-CCADF5849A80";
background = {
anchors = (
{
name = top;
position = "{368, 535}";
}
);
paths = (
{
closed = 1;
nodes = (
"517 -15 OFFCURVE",
"606 136 OFFCURVE",
"609 315 CURVE SMOOTH",
"612 473 OFFCURVE",
"512 550 OFFCURVE",
"345 550 CURVE SMOOTH",
"126 550 OFFCURVE",
"37 399 OFFCURVE",
"34 220 CURVE SMOOTH",
"31 62 OFFCURVE",
"131 -15 OFFCURVE",
"298 -15 CURVE SMOOTH"
);
},
{
closed = 1;
nodes = (
"261 143 OFFCURVE",
"238 164 OFFCURVE",
"238 221 CURVE SMOOTH",
"238 326 OFFCURVE",
"273 392 OFFCURVE",
"336 392 CURVE SMOOTH",
"382 392 OFFCURVE",
"405 371 OFFCURVE",
"405 314 CURVE SMOOTH",
"405 209 OFFCURVE",
"370 143 OFFCURVE",
"307 143 CURVE SMOOTH"
);
}
);
};
layerId = "F8D2E8E2-B06B-4F49-BA7A-D31E7DE54CD7";
name = "Oct 4 17, 12:32";
paths = (
{
closed = 1;
nodes = (
"463 -15 OFFCURVE",
"543 56 OFFCURVE",
"574 180 CURVE",
"384 180 LINE",
"374 151 OFFCURVE",
"355 132 OFFCURVE",
"306 132 CURVE SMOOTH",
"250 132 OFFCURVE",
"226 169 OFFCURVE",
"226 223 CURVE SMOOTH",
"226 322 OFFCURVE",
"249 410 OFFCURVE",
"335 410 CURVE SMOOTH",
"391 410 OFFCURVE",
"413 383 OFFCURVE",
"413 338 CURVE SMOOTH",
"413 321 OFFCURVE",
"411 307 OFFCURVE",
"407 286 CURVE",
"451 323 LINE",
"221 323 LINE",
"204 225 LINE",
"583 225 LINE",
"592 257 OFFCURVE",
"596 303 OFFCURVE",
"596 328 CURVE SMOOTH",
"596 459 OFFCURVE",
"508 550 OFFCURVE",
"354 550 CURVE SMOOTH",
"127 550 OFFCURVE",
"34 400 OFFCURVE",
"34 215 CURVE SMOOTH",
"34 73 OFFCURVE",
"138 -15 OFFCURVE",
"293 -15 CURVE SMOOTH"
);
}
);
width = 627;
},
{
anchors = (
{
name = bottom;
position = "{249, 0}";
},
{
name = ogonek;
position = "{330, 0}";
},
{
name = top;
position = "{308, 528}";
}
);
background = {
paths = (
{
closed = 1;
nodes = (
"387 -15 OFFCURVE",
"440 55 OFFCURVE",
"474 146 CURVE",
"376 146 LINE",
"342 90 OFFCURVE",
"313 70 OFFCURVE",
"255 70 CURVE SMOOTH",
"165 70 OFFCURVE",
"118 134 OFFCURVE",
"140 264 CURVE SMOOTH",
"163 399 OFFCURVE",
"214 462 OFFCURVE",
"305 462 CURVE SMOOTH",
"376 462 OFFCURVE",
"415 422 OFFCURVE",
"415 342 CURVE SMOOTH",
"415 326 OFFCURVE",
"413 307 OFFCURVE",
"410 289 CURVE",
"427 308 LINE",
"119 308 LINE",
"106 233 LINE",
"499 233 LINE",
"506 272 OFFCURVE",
"510 313 OFFCURVE",
"510 346 CURVE SMOOTH",
"510 465 OFFCURVE",
"433 544 OFFCURVE",
"310 544 CURVE SMOOTH",
"171 544 OFFCURVE",
"71 451 OFFCURVE",
"42 273 CURVE SMOOTH",
"14 104 OFFCURVE",
"89 -15 OFFCURVE",
"247 -15 CURVE SMOOTH"
);
}
);
};
guideLines = (
{
angle = 80;
position = "{151, 353}";
}
);
layerId = "6641C2CA-B9F9-47EE-AEEC-6BEE387D8CB9";
paths = (
{
closed = 1;
nodes = (
"385 -15 OFFCURVE",
"440 55 OFFCURVE",
"474 146 CURVE",
"376 146 LINE",
"346 90 OFFCURVE",
"317 70 OFFCURVE",
"255 70 CURVE SMOOTH",
"165 70 OFFCURVE",
"118 134 OFFCURVE",
"140 264 CURVE SMOOTH",
"163 399 OFFCURVE",
"214 462 OFFCURVE",
"305 462 CURVE SMOOTH",
"401 462 OFFCURVE",
"427 390 OFFCURVE",
"410 289 CURVE",
"427 308 LINE",
"119 308 LINE",
"107 235 LINE",
"499 235 LINE",
"506 287 LINE SMOOTH",
"526 435 OFFCURVE",
"459 544 OFFCURVE",
"310 544 CURVE SMOOTH",
"171 544 OFFCURVE",
"69 448 OFFCURVE",
"42 273 CURVE SMOOTH",
"16 104 OFFCURVE",
"89 -15 OFFCURVE",
"247 -15 CURVE SMOOTH"
);
}
);
width = 547;
}
);
leftMetricsKey = o;
unicode = 0065;
userData = {
RMXScaler = {
source = e;
};
};
},
{
color = 9;
glyphname = f;
lastChange = "2018-07-13 14:14:58 +0000";
layers = (
{
background = {
paths = (
{
closed = 1;
nodes = (
"368 497 LINE",
"371 515 LINE",
"85 515 LINE",
"82 497 LINE"
);
},
{
closed = 1;
nodes = (
"401 751 OFFCURVE",
"382 755 OFFCURVE",
"354 755 CURVE SMOOTH",
"277 755 OFFCURVE",
"230 712 OFFCURVE",
"210 599 CURVE SMOOTH",
"104 0 LINE",
"124 0 LINE",
"230 599 LINE SMOOTH",
"248 702 OFFCURVE",
"283 736 OFFCURVE",
"350 736 CURVE SMOOTH",
"378 736 OFFCURVE",
"398 732 OFFCURVE",
"414 728 CURVE",
"417 746 LINE"
);
}
);
};
layerId = "CC363ACD-D5A5-4E19-A940-9AF36D109D9E";
paths = (
{
closed = 1;
nodes = (
"368 497 LINE",
"371 515 LINE",
"85 515 LINE",
"82 497 LINE"
);
},
{
closed = 1;
nodes = (
"401 751 OFFCURVE",
"381 755 OFFCURVE",
"353 755 CURVE SMOOTH",
"276 755 OFFCURVE",
"230 712 OFFCURVE",
"210 599 CURVE SMOOTH",
"104 0 LINE",
"124 0 LINE",
"230 599 LINE SMOOTH",
"248 702 OFFCURVE",
"287 736 OFFCURVE",
"352 736 CURVE SMOOTH",
"380 736 OFFCURVE",
"398 732 OFFCURVE",
"414 728 CURVE",
"417 746 LINE"
);
}
);
width = 331;
},
{
background = {
paths = (
{
closed = 1;
nodes = (
"436 380 LINE",
"463 535 LINE",
"57 535 LINE",
"30 380 LINE"
);
},
{
closed = 1;
nodes = (
"467 756 OFFCURVE",
"412 765 OFFCURVE",
"358 765 CURVE SMOOTH",
"238 765 OFFCURVE",
"172 713 OFFCURVE",
"148 579 CURVE SMOOTH",
"46 0 LINE",
"256 0 LINE",
"351 536 LINE SMOOTH",
"360 586 OFFCURVE",
"371 603 OFFCURVE",
"410 603 CURVE SMOOTH",
"432 603 OFFCURVE",
"457 599 OFFCURVE",
"471 595 CURVE",
"505 744 LINE"
);
}
);
};
layerId = "C1DA716A-5F29-4CD0-A38F-CCADF5849A80";
paths = (
{
closed = 1;
nodes = (
"426 380 LINE",
"453 535 LINE",
"57 535 LINE",
"30 380 LINE"
);
},
{
closed = 1;
nodes = (
"458 748 OFFCURVE",
"415 755 OFFCURVE",
"361 755 CURVE SMOOTH",
"241 755 OFFCURVE",
"170 703 OFFCURVE",
"146 569 CURVE SMOOTH",
"46 0 LINE",
"256 0 LINE",
"350 531 LINE SMOOTH",
"359 581 OFFCURVE",
"379 593 OFFCURVE",
"418 593 CURVE SMOOTH",
"440 593 OFFCURVE",
"455 589 OFFCURVE",
"469 585 CURVE",
"496 735 LINE"
);
}
);
width = 404;
},
{
background = {
paths = (
{
closed = 1;
nodes = (
"376 443 LINE",
"391 528 LINE",
"67 528 LINE",
"53 443 LINE"
);
},
{
closed = 1;
nodes = (
"424 757 OFFCURVE",
"388 765 OFFCURVE",
"341 765 CURVE SMOOTH",
"254 765 OFFCURVE",
"196 721 OFFCURVE",
"177 610 CURVE SMOOTH",
"70 0 LINE",
"170 0 LINE",
"274 588 LINE SMOOTH",
"286 654 OFFCURVE",
"306 678 OFFCURVE",
"358 678 CURVE SMOOTH",
"384 678 OFFCURVE",
"415 672 OFFCURVE",
"426 669 CURVE",
"444 750 LINE"
);
}
);
};
layerId = "6641C2CA-B9F9-47EE-AEEC-6BEE387D8CB9";
paths = (
{
closed = 1;
nodes = (
"380 443 LINE",
"395 528 LINE",
"67 528 LINE",
"53 443 LINE"
);
},
{
closed = 1;
nodes = (
"408 750 OFFCURVE",
"380 755 OFFCURVE",
"341 755 CURVE SMOOTH",
"250 755 OFFCURVE",
"194 701 OFFCURVE",
"174 590 CURVE SMOOTH",
"70 0 LINE",
"170 0 LINE",
"272 578 LINE SMOOTH",
"284 644 OFFCURVE",
"310 668 OFFCURVE",
"357 668 CURVE SMOOTH",
"383 668 OFFCURVE",
"408 662 OFFCURVE",
"419 659 CURVE",
"433 741 LINE"
);
}
);
width = 339;
}
);
unicode = 0066;
userData = {
RMXScaler = {
source = f;
};
};
},
{
color = 9;
glyphname = g;
lastChange = "2018-07-13 14:14:58 +0000";
layers = (
{
anchors = (
{
name = top;
position = "{380, 525}";
}
);
associatedMasterId = "CC363ACD-D5A5-4E19-A940-9AF36D109D9E";
background = {
paths = (
{
closed = 1;
nodes = (
"224 131 OFFCURVE",
"190 167 OFFCURVE",
"190 242 CURVE SMOOTH",
"190 341 OFFCURVE",
"235 420 OFFCURVE",
"337 420 CURVE SMOOTH",
"407 420 OFFCURVE",
"440 389 OFFCURVE",
"440 317 CURVE SMOOTH",
"440 214 OFFCURVE",
"396 131 OFFCURVE",
"293 131 CURVE SMOOTH"
);
},
{
closed = 0;
nodes = (
"463 437 LINE",
"445 506 OFFCURVE",
"390 540 OFFCURVE",
"313 540 CURVE SMOOTH",
"152 540 OFFCURVE",
"48 407 OFFCURVE",
"48 234 CURVE SMOOTH",
"48 91 OFFCURVE",
"120 15 OFFCURVE",
"237 15 CURVE SMOOTH",
"305 15 OFFCURVE",
"364 50 OFFCURVE",
"404 110 CURVE"
);
}
);
};
layerId = "5EC14379-3221-4247-9F84-B6206966E7EE";
name = "Aug 30 17, 12:39";
paths = (
{
closed = 1;
nodes = (
"471 434 LINE",
"465 434 LINE",
"457 497 OFFCURVE",
"407 540 OFFCURVE",
"323 540 CURVE SMOOTH",
"144 540 OFFCURVE",
"49 386 OFFCURVE",
"49 219 CURVE SMOOTH",
"49 103 OFFCURVE",
"105 15 OFFCURVE",
"230 15 CURVE SMOOTH",
"324 15 OFFCURVE",
"378 69 OFFCURVE",
"403 103 CURVE",
"409 103 LINE",
"399 45 LINE SMOOTH",
"382 -55 OFFCURVE",
"348 -99 OFFCURVE",
"268 -99 CURVE SMOOTH",
"197 -99 OFFCURVE",
"169 -81 OFFCURVE",
"168 -35 CURVE",
"26 -35 LINE",
"21 -147 OFFCURVE",
"93 -210 OFFCURVE",
"253 -210 CURVE SMOOTH",
"436 -210 OFFCURVE",
"509 -124 OFFCURVE",
"543 69 CURVE SMOOTH",
"623 525 LINE",
"500 525 LINE"
);
},
{
closed = 1;
nodes = (
"225 127 OFFCURVE",
"195 167 OFFCURVE",
"195 235 CURVE SMOOTH",
"195 335 OFFCURVE",
"238 418 OFFCURVE",
"342 418 CURVE SMOOTH",
"410 418 OFFCURVE",
"443 374 OFFCURVE",
"443 308 CURVE SMOOTH",
"443 203 OFFCURVE",
"391 127 OFFCURVE",
"291 127 CURVE SMOOTH"
);
}
);
width = 643;
},
{
anchors = (
{
name = top;
position = "{314, 515}";
}
);
background = {
paths = (
{
closed = 1;
nodes = (
"387 -96 OFFCURVE",
"340 -186 OFFCURVE",
"195 -186 CURVE SMOOTH",
"101 -186 OFFCURVE",
"61 -157 OFFCURVE",
"34 -65 CURVE",
"14 -65 LINE",
"40 -167 OFFCURVE",
"89 -205 OFFCURVE",
"190 -205 CURVE SMOOTH",
"346 -205 OFFCURVE",
"404 -107 OFFCURVE",
"431 45 CURVE SMOOTH",
"514 515 LINE",
"498 515 LINE",
"470 375 LINE",
"469 375 LINE",
"462 460 OFFCURVE",
"406 530 OFFCURVE",
"300 530 CURVE SMOOTH",
"163 530 OFFCURVE",
"80 428 OFFCURVE",
"52 267 CURVE SMOOTH",
"24 107 OFFCURVE",
"86 5 OFFCURVE",
"223 5 CURVE SMOOTH",
"337 5 OFFCURVE",
"399 78 OFFCURVE",
"430 154 CURVE",
"431 154 LINE",
"412 47 LINE SMOOTH"
);
},
{
closed = 1;
nodes = (
"99 24 OFFCURVE",
"46 117 OFFCURVE",
"72 267 CURVE SMOOTH",
"98 418 OFFCURVE",
"174 511 OFFCURVE",
"299 511 CURVE SMOOTH",
"414 511 OFFCURVE",
"478 423 OFFCURVE",
"450 267 CURVE SMOOTH",
"420 99 OFFCURVE",
"335 24 OFFCURVE",
"224 24 CURVE SMOOTH"
);
}
);
};
guideLines = (
{
angle = 80;
position = "{446, 347}";
}
);
layerId = "CC363ACD-D5A5-4E19-A940-9AF36D109D9E";
paths = (
{
closed = 1;
nodes = (
"387 -96 OFFCURVE",
"344 -186 OFFCURVE",
"201 -186 CURVE SMOOTH",
"115 -186 OFFCURVE",
"66 -157 OFFCURVE",
"34 -65 CURVE",
"14 -65 LINE",
"45 -167 OFFCURVE",
"104 -205 OFFCURVE",
"200 -205 CURVE SMOOTH",
"356 -205 OFFCURVE",
"404 -107 OFFCURVE",
"431 45 CURVE SMOOTH",
"514 515 LINE",
"498 515 LINE",
"470 375 LINE",
"469 375 LINE",
"459 460 OFFCURVE",
"401 530 OFFCURVE",
"300 530 CURVE SMOOTH",
"163 530 OFFCURVE",
"80 428 OFFCURVE",
"53 277 CURVE SMOOTH",
"24 117 OFFCURVE",
"96 5 OFFCURVE",
"228 5 CURVE SMOOTH",
"342 5 OFFCURVE",
"399 78 OFFCURVE",
"430 154 CURVE",
"431 154 LINE",
"412 47 LINE SMOOTH"
);
},
{
closed = 1;
nodes = (
"109 24 OFFCURVE",
"46 127 OFFCURVE",
"73 277 CURVE SMOOTH",
"98 418 OFFCURVE",
"174 511 OFFCURVE",
"299 511 CURVE SMOOTH",
"409 511 OFFCURVE",
"478 423 OFFCURVE",
"448 257 CURVE SMOOTH",
"421 109 OFFCURVE",
"340 24 OFFCURVE",
"229 24 CURVE SMOOTH"
);
}
);
width = 559;
},
{
anchors = (
{
name = top;
position = "{361, 535}";
}
);
background = {
components = (
{
name = b;
transform = "{-1, 0, 0, -1, 617, 535}";
}
);
};
layerId = "C1DA716A-5F29-4CD0-A38F-CCADF5849A80";
paths = (
{
closed = 1;
nodes = (
"315 -28 OFFCURVE",
"293 -50 OFFCURVE",
"257 -50 CURVE SMOOTH",
"225 -50 OFFCURVE",
"210 -38 OFFCURVE",
"196 0 CURVE",
"-15 0 LINE",
"6 -147 OFFCURVE",
"81 -200 OFFCURVE",
"245 -200 CURVE SMOOTH",
"445 -200 OFFCURVE",
"514 -89 OFFCURVE",
"547 98 CURVE SMOOTH",
"624 535 LINE",
"444 535 LINE",
"411 447 LINE",
"410 447 LINE",
"394 501 OFFCURVE",
"354 550 OFFCURVE",
"270 550 CURVE SMOOTH",
"143 550 OFFCURVE",
"57 461 OFFCURVE",
"29 292 CURVE SMOOTH",
"2 132 OFFCURVE",
"71 35 OFFCURVE",
"188 35 CURVE SMOOTH",
"271 35 OFFCURVE",
"307 67 OFFCURVE",
"339 114 CURVE",
"340 114 LINE",
"325 29 LINE SMOOTH"
);
},
{
closed = 1;
nodes = (
"248 180 OFFCURVE",
"229 220 OFFCURVE",
"241 288 CURVE SMOOTH",
"253 356 OFFCURVE",
"279 395 OFFCURVE",
"323 395 CURVE SMOOTH",
"369 395 OFFCURVE",
"386 356 OFFCURVE",
"374 288 CURVE SMOOTH",
"362 220 OFFCURVE",
"334 180 OFFCURVE",
"290 180 CURVE SMOOTH"
);
}
);
width = 617;
},
{
anchors = (
{
name = top;
position = "{323, 528}";
}
);
background = {
paths = (
{
closed = 1;
nodes = (
"562 528 LINE",
"477 528 LINE",
"450 447 LINE",
"449 447 LINE",
"429 494 OFFCURVE",
"383 543 OFFCURVE",
"295 543 CURVE SMOOTH",
"168 543 OFFCURVE",
"69 450 OFFCURVE",
"43 279 CURVE SMOOTH",
"16 103 OFFCURVE",
"89 -15 OFFCURVE",
"221 -15 CURVE SMOOTH",
"298 -15 OFFCURVE",
"342 16 OFFCURVE",
"380 69 CURVE",
"381 69 LINE",
"331 -212 LINE",
"431 -212 LINE"
);
},
{
closed = 1;
nodes = (
"162 70 OFFCURVE",
"121 144 OFFCURVE",
"143 274 CURVE SMOOTH",
"162 384 OFFCURVE",
"211 458 OFFCURVE",
"304 458 CURVE SMOOTH",
"405 458 OFFCURVE",
"437 373 OFFCURVE",
"415 249 CURVE SMOOTH",
"395 137 OFFCURVE",
"331 70 OFFCURVE",
"250 70 CURVE SMOOTH"
);
}
);
};
guideLines = (
{
angle = 80;
position = "{28, 353}";
}
);
layerId = "6641C2CA-B9F9-47EE-AEEC-6BEE387D8CB9";
paths = (
{
closed = 1;
nodes = (
"360 -57 OFFCURVE",
"313 -116 OFFCURVE",
"221 -116 CURVE SMOOTH",
"156 -116 OFFCURVE",
"124 -94 OFFCURVE",
"103 -31 CURVE",
"1 -31 LINE",
"25 -153 OFFCURVE",
"99 -200 OFFCURVE",
"216 -200 CURVE SMOOTH",
"375 -200 OFFCURVE",
"449 -107 OFFCURVE",
"478 54 CURVE SMOOTH",
"562 528 LINE",
"477 528 LINE",
"450 446 LINE",
"449 446 LINE",
"429 494 OFFCURVE",
"383 543 OFFCURVE",
"295 543 CURVE SMOOTH",
"160 543 OFFCURVE",
"68 437 OFFCURVE",
"45 289 CURVE SMOOTH",
"20 128 OFFCURVE",
"94 17 OFFCURVE",
"231 17 CURVE SMOOTH",
"299 17 OFFCURVE",
"348 46 OFFCURVE",
"384 96 CURVE",
"385 96 LINE",
"378 53 LINE SMOOTH"
);
},
{
closed = 1;
nodes = (
"163 100 OFFCURVE",
"128 174 OFFCURVE",
"147 289 CURVE SMOOTH",
"164 391 OFFCURVE",
"215 458 OFFCURVE",
"304 458 CURVE SMOOTH",
"405 458 OFFCURVE",
"433 369 OFFCURVE",
"418 269 CURVE SMOOTH",
"402 165 OFFCURVE",
"347 100 OFFCURVE",
"255 100 CURVE SMOOTH"
);
}
);
width = 587;
}
);
leftMetricsKey = o;
rightMetricsKey = "=|n";
unicode = 0067;
userData = {
RMXScaler = {
source = g;
};
};
},
{
color = 9;
glyphname = h;
lastChange = "2018-07-13 14:14:58 +0000";
layers = (
{
anchors = (
{
name = top;
position = "{185, 731}";
}
);
background = {
paths = (
{
closed = 1;
nodes = (
"45 0 LINE",
"65 0 LINE",
"115 282 LINE SMOOTH",
"139 419 OFFCURVE",
"226 511 OFFCURVE",
"334 511 CURVE SMOOTH",
"423 511 OFFCURVE",
"463 462 OFFCURVE",
"463 382 CURVE SMOOTH",
"463 366 OFFCURVE",
"461 349 OFFCURVE",
"458 330 CURVE SMOOTH",
"400 0 LINE",
"420 0 LINE",
"478 330 LINE SMOOTH",
"481 349 OFFCURVE",
"483 367 OFFCURVE",
"483 383 CURVE SMOOTH",
"483 474 OFFCURVE",
"434 530 OFFCURVE",
"334 530 CURVE SMOOTH",
"231 530 OFFCURVE",
"164 457 OFFCURVE",
"133 385 CURVE",
"132 385 LINE",
"152 515 LINE",
"136 515 LINE"
);
}
);
};
guideLines = (
{
angle = 80;
position = "{110, 252}";
}
);
layerId = "CC363ACD-D5A5-4E19-A940-9AF36D109D9E";
paths = (
{
closed = 1;
nodes = (
"45 0 LINE",
"65 0 LINE",
"115 282 LINE SMOOTH",
"139 419 OFFCURVE",
"226 511 OFFCURVE",
"334 511 CURVE SMOOTH",
"423 511 OFFCURVE",
"463 462 OFFCURVE",
"463 382 CURVE SMOOTH",
"463 366 OFFCURVE",
"461 349 OFFCURVE",
"458 330 CURVE SMOOTH",
"400 0 LINE",
"420 0 LINE",
"478 330 LINE SMOOTH",
"481 349 OFFCURVE",
"483 367 OFFCURVE",
"483 383 CURVE SMOOTH",
"483 474 OFFCURVE",
"434 530 OFFCURVE",
"334 530 CURVE SMOOTH",
"234 530 OFFCURVE",
"167 461 OFFCURVE",
"135 389 CURVE",
"134 389 LINE",
"196 740 LINE",
"176 740 LINE"
);
}
);
width = 545;
},
{
anchors = (
{
name = top;
position = "{223, 731}";
}
);
background = {
paths = (
{
closed = 1;
nodes = (
"355 550 OFFCURVE",
"321 488 OFFCURVE",
"288 432 CURVE",
"281 432 LINE",
"335 750 LINE",
"125 750 LINE",
"-7 0 LINE",
"203 0 LINE",
"251 272 LINE SMOOTH",
"263 338 OFFCURVE",
"294 370 OFFCURVE",
"343 370 CURVE SMOOTH",
"378 370 OFFCURVE",
"396 353 OFFCURVE",
"396 319 CURVE SMOOTH",
"396 308 OFFCURVE",
"394 293 OFFCURVE",
"392 282 CURVE SMOOTH",
"342 0 LINE",
"552 0 LINE",
"607 310 LINE SMOOTH",
"612 338 OFFCURVE",
"614 364 OFFCURVE",
"614 391 CURVE SMOOTH",
"614 487 OFFCURVE",
"564 550 OFFCURVE",
"462 550 CURVE SMOOTH"
);
}
);
};
layerId = "C1DA716A-5F29-4CD0-A38F-CCADF5849A80";
paths = (
{
closed = 1;
nodes = (
"-7 0 LINE",
"203 0 LINE",
"253 282 LINE SMOOTH",
"265 348 OFFCURVE",
"294 370 OFFCURVE",
"323 370 CURVE SMOOTH",
"356 370 OFFCURVE",
"369 353 OFFCURVE",
"369 319 CURVE SMOOTH",
"369 308 OFFCURVE",
"367 293 OFFCURVE",
"365 282 CURVE SMOOTH",
"315 0 LINE",
"525 0 LINE",
"580 310 LINE SMOOTH",
"585 338 OFFCURVE",
"587 364 OFFCURVE",
"587 391 CURVE SMOOTH",
"587 487 OFFCURVE",
"537 550 OFFCURVE",
"437 550 CURVE SMOOTH",
"350 550 OFFCURVE",
"317 508 OFFCURVE",
"285 452 CURVE",
"284 452 LINE",
"333 740 LINE",
"123 740 LINE"
);
}
);
width = 608;
},
{
anchors = (
{
name = top;
position = "{203, 721}";
}
);
background = {
paths = (
{
closed = 1;
nodes = (
"277 543 OFFCURVE",
"229 493 OFFCURVE",
"202 447 CURVE",
"201 447 LINE",
"205 528 LINE",
"120 528 LINE",
"26 0 LINE",
"126 0 LINE",
"176 285 LINE SMOOTH",
"193 384 OFFCURVE",
"258 453 OFFCURVE",
"333 453 CURVE SMOOTH",
"393 453 OFFCURVE",
"423 422 OFFCURVE",
"423 361 CURVE SMOOTH",
"423 347 OFFCURVE",
"421 328 OFFCURVE",
"417 304 CURVE SMOOTH",
"363 0 LINE",
"463 0 LINE",
"517 303 LINE SMOOTH",
"522 333 OFFCURVE",
"524 360 OFFCURVE",
"524 386 CURVE SMOOTH",
"524 476 OFFCURVE",
"468 543 OFFCURVE",
"370 543 CURVE SMOOTH"
);
}
);
};
guideLines = (
{
angle = 80;
position = "{170, 252}";
}
);
layerId = "6641C2CA-B9F9-47EE-AEEC-6BEE387D8CB9";
paths = (
{
closed = 1;
nodes = (
"26 0 LINE",
"126 0 LINE",
"176 285 LINE SMOOTH",
"193 384 OFFCURVE",
"258 453 OFFCURVE",
"333 453 CURVE SMOOTH",
"393 453 OFFCURVE",
"423 422 OFFCURVE",
"423 361 CURVE SMOOTH",
"423 347 OFFCURVE",
"421 328 OFFCURVE",
"417 304 CURVE SMOOTH",
"363 0 LINE",
"463 0 LINE",
"517 303 LINE SMOOTH",
"522 333 OFFCURVE",
"524 360 OFFCURVE",
"524 386 CURVE SMOOTH",
"524 476 OFFCURVE",
"468 543 OFFCURVE",
"370 543 CURVE SMOOTH",
"280 543 OFFCURVE",
"233 497 OFFCURVE",
"206 451 CURVE",
"205 451 LINE",
"256 740 LINE",
"156 740 LINE"
);
}
);
width = 572;
}
);
leftMetricsKey = n;
rightMetricsKey = n;
unicode = 0068;
userData = {
RMXScaler = {
source = h;
};
};
},
{
glyphname = j;
lastChange = "2018-07-13 14:14:58 +0000";
layers = (
{
background = {
paths = (
{
closed = 1;
nodes = (
"43 -210 OFFCURVE",
"85 -181 OFFCURVE",
"102 -86 CURVE SMOOTH",
"208 515 LINE",
"153 515 LINE",
"48 -82 LINE SMOOTH",
"36 -148 OFFCURVE",
"9 -161 OFFCURVE",
"-26 -161 CURVE SMOOTH",
"-39 -161 OFFCURVE",
"-60 -158 OFFCURVE",
"-75 -154 CURVE",
"-84 -200 LINE",
"-66 -205 OFFCURVE",
"-39 -210 OFFCURVE",
"-17 -210 CURVE SMOOTH"
);
},
{
closed = 1;
nodes = (
"224 610 OFFCURVE",
"246 626 OFFCURVE",
"246 659 CURVE SMOOTH",
"246 683 OFFCURVE",
"231 696 OFFCURVE",
"209 696 CURVE SMOOTH",
"184 696 OFFCURVE",
"163 680 OFFCURVE",
"163 647 CURVE SMOOTH",
"163 624 OFFCURVE",
"177 610 OFFCURVE",
"200 610 CURVE SMOOTH"
);
}
);
};
components = (
{
name = jdotless;
},
{
name = dotaccentcomb;
transform = "{1, 0, 0, 1, 118, 0}";
}
);
layerId = "CC363ACD-D5A5-4E19-A940-9AF36D109D9E";
width = 217;
},
{
background = {
paths = (
{
closed = 1;
nodes = (
"157 -210 OFFCURVE",
"216 -136 OFFCURVE",
"242 9 CURVE SMOOTH",
"336 535 LINE",
"131 535 LINE",
"40 14 LINE SMOOTH",
"32 -32 OFFCURVE",
"13 -56 OFFCURVE",
"-30 -56 CURVE SMOOTH",
"-47 -56 OFFCURVE",
"-71 -53 OFFCURVE",
"-95 -45 CURVE",
"-124 -187 LINE",
"-93 -199 OFFCURVE",
"-31 -210 OFFCURVE",
"12 -210 CURVE SMOOTH"
);
},
{
closed = 1;
nodes = (
"322 599 OFFCURVE",
"369 645 OFFCURVE",
"369 713 CURVE SMOOTH",
"369 762 OFFCURVE",
"336 793 OFFCURVE",
"275 793 CURVE SMOOTH",
"196 793 OFFCURVE",
"149 748 OFFCURVE",
"149 679 CURVE SMOOTH",
"149 630 OFFCURVE",
"183 599 OFFCURVE",
"245 599 CURVE SMOOTH"
);
}
);
};
components = (
{
name = jdotless;
},
{
name = dotaccentcomb;
transform = "{1, 0, 0, 1, 146, 0}";
}
);
layerId = "C1DA716A-5F29-4CD0-A38F-CCADF5849A80";
width = 291;
},
{
components = (
{
name = jdotless;
},
{
name = dotaccentcomb;
transform = "{1, 0, 0, 1, 137, 0}";
}
);
layerId = "6641C2CA-B9F9-47EE-AEEC-6BEE387D8CB9";
width = 259;
}
);
rightMetricsKey = "=i";
unicode = 006A;
userData = {
RMXScaler = {
source = j;
};
};
},
{
color = 9;
glyphname = k;
lastChange = "2018-07-13 14:14:58 +0000";
layers = (
{
anchors = (
{
name = bottom;
position = "{261, 0}";
}
);
associatedMasterId = "CC363ACD-D5A5-4E19-A940-9AF36D109D9E";
background = {
anchors = (
{
name = bottom;
position = "{311, 0}";
}
);
paths = (
{
closed = 1;
nodes = (
"292 221 LINE",
"573 525 LINE",
"408 525 LINE",
"229 323 LINE",
"196 323 LINE",
"196 221 LINE"
);
},
{
closed = 1;
nodes = (
"223 0 LINE",
"223 750 LINE",
"83 750 LINE",
"83 0 LINE"
);
},
{
closed = 1;
nodes = (
"583 0 LINE",
"313 319 LINE",
"200 253 LINE",
"416 0 LINE"
);
}
);
};
layerId = "873A0B25-08FC-42D7-98BE-1098C7D91BCD";
name = "Aug 30 17, 11:49";
paths = (
{
closed = 1;
nodes = (
"287 221 LINE",
"609 525 LINE",
"445 525 LINE",
"240 323 LINE",
"207 323 LINE",
"189 221 LINE"
);
},
{
closed = 1;
nodes = (
"177 0 LINE",
"309 750 LINE",
"169 750 LINE",
"37 0 LINE"
);
},
{
closed = 1;
nodes = (
"526 0 LINE",
"324 319 LINE",
"199 253 LINE",
"360 0 LINE"
);
}
);
width = 588;
},
{
anchors = (
{
name = bottom;
position = "{204, 0}";
}
);
background = {
anchors = (
{
name = bottom;
position = "{269, 0}";
}
);
paths = (
{
closed = 1;
nodes = (
"130 0 LINE",
"130 740 LINE",
"110 740 LINE",
"110 0 LINE"
);
},
{
closed = 1;
nodes = (
"449 0 LINE",
"150 271 LINE",
"150 259 LINE",
"439 515 LINE",
"411 515 LINE",
"130 266 LINE",
"128 266 LINE",
"128 262 LINE",
"130 262 LINE",
"420 0 LINE"
);
}
);
};
layerId = "CC363ACD-D5A5-4E19-A940-9AF36D109D9E";
paths = (
{
closed = 1;
nodes = (
"65 0 LINE",
"195 740 LINE",
"175 740 LINE",
"45 0 LINE"
);
},
{
closed = 1;
nodes = (
"374 0 LINE",
"132 268 LINE",
"129 256 LINE",
"455 515 LINE",
"426 515 LINE",
"112 266 LINE",
"110 266 LINE",
"109 262 LINE",
"111 262 LINE",
"348 0 LINE"
);
}
);
width = 439;
},
{
anchors = (
{
name = bottom;
position = "{266, 0}";
}
);
background = {
paths = (
{
closed = 1;
nodes = (
"250 0 LINE",
"250 740 LINE",
"40 740 LINE",
"40 0 LINE"
);
},
{
closed = 1;
nodes = (
"610 0 LINE",
"404 384 LINE",
"403 222 LINE",
"600 535 LINE",
"390 535 LINE",
"250 290 LINE",
"243 290 LINE",
"243 259 LINE",
"250 259 LINE",
"380 0 LINE"
);
}
);
};
layerId = "C1DA716A-5F29-4CD0-A38F-CCADF5849A80";
paths = (
{
closed = 1;
nodes = (
"203 0 LINE",
"333 740 LINE",
"123 740 LINE",
"-7 0 LINE"
);
},
{
closed = 1;
nodes = (
"418 535 LINE",
"254 290 LINE",
"236 290 LINE",
"230 259 LINE",
"249 259 LINE",
"323 0 LINE",
"540 0 LINE",
"419 362 LINE",
"398 203 LINE",
"635 535 LINE"
);
}
);
width = 593;
},
{
anchors = (
{
name = bottom;
position = "{224, 0}";
}
);
background = {
paths = (
{
closed = 1;
nodes = (
"172 0 LINE",
"172 740 LINE",
"72 740 LINE",
"72 0 LINE"
);
},
{
closed = 1;
nodes = (
"514 0 LINE",
"254 319 LINE",
"252 251 LINE",
"504 528 LINE",
"386 528 LINE",
"172 285 LINE",
"167 285 LINE",
"167 268 LINE",
"172 268 LINE",
"392 0 LINE"
);
}
);
};
layerId = "6641C2CA-B9F9-47EE-AEEC-6BEE387D8CB9";
paths = (
{
closed = 1;
nodes = (
"126 0 LINE",
"256 740 LINE",
"156 740 LINE",
"26 0 LINE"
);
},
{
closed = 1;
nodes = (
"414 528 LINE",
"177 285 LINE",
"165 285 LINE",
"161 268 LINE",
"174 268 LINE",
"336 0 LINE",
"446 0 LINE",
"261 309 LINE",
"252 245 LINE",
"532 528 LINE"
);
}
);
width = 498;
}
);
leftMetricsKey = h;
unicode = 006B;
userData = {
RMXScaler = {
source = k;
};
};
},
{
color = 9;
glyphname = l;
lastChange = "2018-07-13 14:14:58 +0000";
layers = (
{
anchors = (
{
name = bottom;
position = "{55, 0}";
},
{
name = periodcentered;
position = "{270, 370}";
},
{
name = top;
position = "{183, 730}";
},
{
name = topright;
position = "{256, 515}";
}
);
background = {
anchors = (
{
name = bottom;
position = "{120, 0}";
},
{
name = periodcentered;
position = "{270, 370}";
},
{
name = top;
position = "{120, 730}";
},
{
name = topright;
position = "{230, 515}";
}
);
paths = (
{
closed = 1;
nodes = (
"130 0 LINE",
"130 740 LINE",
"110 740 LINE",
"110 0 LINE"
);
}
);
};
layerId = "CC363ACD-D5A5-4E19-A940-9AF36D109D9E";
paths = (
{
closed = 1;
nodes = (
"65 0 LINE",
"195 740 LINE",
"175 740 LINE",
"45 0 LINE"
);
}
);
width = 200;
},
{
anchors = (
{
name = bottom;
position = "{101, 0}";
},
{
name = periodcentered;
position = "{326, 370}";
},
{
name = top;
position = "{229, 731}";
},
{
name = topright;
position = "{390, 535}";
}
);
background = {
paths = (
{
closed = 1;
nodes = (
"203 0 LINE",
"335 750 LINE",
"125 750 LINE",
"-7 0 LINE"
);
}
);
};
layerId = "C1DA716A-5F29-4CD0-A38F-CCADF5849A80";
paths = (
{
closed = 1;
nodes = (
"203 0 LINE",
"333 740 LINE",
"123 740 LINE",
"-7 0 LINE"
);
}
);
width = 290;
},
{
anchors = (
{
name = bottom;
position = "{75, 0}";
},
{
name = periodcentered;
position = "{277, 370}";
},
{
name = top;
position = "{201, 720}";
},
{
name = topright;
position = "{305, 528}";
}
);
background = {
paths = (
{
closed = 1;
nodes = (
"126 0 LINE",
"258 750 LINE",
"158 750 LINE",
"26 0 LINE"
);
}
);
};
guideLines = (
{
angle = 80;
position = "{70, 252}";
}
);
layerId = "6641C2CA-B9F9-47EE-AEEC-6BEE387D8CB9";
paths = (
{
closed = 1;
nodes = (
"126 0 LINE",
"256 740 LINE",
"156 740 LINE",
"26 0 LINE"
);
}
);
width = 245;
}
);
leftMetricsKey = h;
rightMetricsKey = d;
unicode = 006C;
userData = {
RMXScaler = {
source = l;
};
};
},
{
color = 9;
glyphname = m;
lastChange = "2018-07-13 14:14:58 +0000";
layers = (
{
background = {
paths = (
{
closed = 1;
nodes = (
"25 0 LINE",
"45 0 LINE",
"95 282 LINE SMOOTH",
"119 419 OFFCURVE",
"206 511 OFFCURVE",
"314 511 CURVE SMOOTH",
"403 511 OFFCURVE",
"443 462 OFFCURVE",
"443 382 CURVE SMOOTH",
"443 366 OFFCURVE",
"441 349 OFFCURVE",
"438 330 CURVE SMOOTH",
"380 0 LINE",
"400 0 LINE",
"458 330 LINE SMOOTH",
"461 349 OFFCURVE",
"463 367 OFFCURVE",
"463 383 CURVE SMOOTH",
"463 474 OFFCURVE",
"414 530 OFFCURVE",
"314 530 CURVE SMOOTH",
"211 530 OFFCURVE",
"144 457 OFFCURVE",
"113 385 CURVE",
"112 385 LINE",
"132 515 LINE",
"116 515 LINE"
);
}
);
};
layerId = "CC363ACD-D5A5-4E19-A940-9AF36D109D9E";
paths = (
{
closed = 1;
nodes = (
"45 0 LINE",
"65 0 LINE",
"115 282 LINE SMOOTH",
"139 419 OFFCURVE",
"221 511 OFFCURVE",
"324 511 CURVE SMOOTH",
"413 511 OFFCURVE",
"453 462 OFFCURVE",
"453 382 CURVE SMOOTH",
"453 366 OFFCURVE",
"451 349 OFFCURVE",
"448 330 CURVE SMOOTH",
"390 0 LINE",
"410 0 LINE",
"460 282 LINE SMOOTH",
"484 419 OFFCURVE",
"566 511 OFFCURVE",
"669 511 CURVE SMOOTH",
"758 511 OFFCURVE",
"798 462 OFFCURVE",
"798 382 CURVE SMOOTH",
"798 366 OFFCURVE",
"796 349 OFFCURVE",
"793 330 CURVE SMOOTH",
"735 0 LINE",
"755 0 LINE",
"813 330 LINE SMOOTH",
"816 349 OFFCURVE",
"818 367 OFFCURVE",
"818 383 CURVE SMOOTH",
"818 474 OFFCURVE",
"769 530 OFFCURVE",
"669 530 CURVE SMOOTH",
"571 530 OFFCURVE",
"504 455 OFFCURVE",
"473 381 CURVE",
"472 381 LINE",
"472 472 OFFCURVE",
"424 530 OFFCURVE",
"324 530 CURVE SMOOTH",
"226 530 OFFCURVE",
"164 457 OFFCURVE",
"133 385 CURVE",
"132 385 LINE",
"152 515 LINE",
"136 515 LINE"
);
}
);
width = 880;
},
{
background = {
paths = (
{
closed = 1;
nodes = (
"-13 0 LINE",
"197 0 LINE",
"247 282 LINE SMOOTH",
"259 348 OFFCURVE",
"288 370 OFFCURVE",
"317 370 CURVE SMOOTH",
"350 370 OFFCURVE",
"363 353 OFFCURVE",
"363 319 CURVE SMOOTH",
"363 308 OFFCURVE",
"361 293 OFFCURVE",
"359 282 CURVE SMOOTH",
"309 0 LINE",
"519 0 LINE",
"569 282 LINE SMOOTH",
"581 348 OFFCURVE",
"610 370 OFFCURVE",
"639 370 CURVE SMOOTH",
"672 370 OFFCURVE",
"685 353 OFFCURVE",
"685 319 CURVE SMOOTH",
"685 308 OFFCURVE",
"683 293 OFFCURVE",
"681 282 CURVE SMOOTH",
"631 0 LINE",
"841 0 LINE",
"896 310 LINE SMOOTH",
"901 338 OFFCURVE",
"903 364 OFFCURVE",
"903 391 CURVE SMOOTH",
"903 487 OFFCURVE",
"853 550 OFFCURVE",
"753 550 CURVE SMOOTH",
"656 550 OFFCURVE",
"610 498 OFFCURVE",
"582 442 CURVE",
"581 442 LINE",
"561 511 OFFCURVE",
"514 550 OFFCURVE",
"431 550 CURVE SMOOTH",
"334 550 OFFCURVE",
"293 498 OFFCURVE",
"265 442 CURVE",
"264 442 LINE",
"262 535 LINE",
"82 535 LINE"
);
}
);
};
layerId = "C1DA716A-5F29-4CD0-A38F-CCADF5849A80";
paths = (
{
closed = 1;
nodes = (
"-7 0 LINE",
"203 0 LINE",
"253 282 LINE SMOOTH",
"265 348 OFFCURVE",
"291 370 OFFCURVE",
"320 370 CURVE SMOOTH",
"352 370 OFFCURVE",
"365 353 OFFCURVE",
"365 319 CURVE SMOOTH",
"365 308 OFFCURVE",
"363 293 OFFCURVE",
"361 282 CURVE SMOOTH",
"311 0 LINE",
"521 0 LINE",
"571 282 LINE SMOOTH",
"583 348 OFFCURVE",
"609 370 OFFCURVE",
"638 370 CURVE SMOOTH",
"670 370 OFFCURVE",
"683 353 OFFCURVE",
"683 319 CURVE SMOOTH",
"683 308 OFFCURVE",
"681 293 OFFCURVE",
"679 282 CURVE SMOOTH",
"629 0 LINE",
"839 0 LINE",
"894 310 LINE SMOOTH",
"899 338 OFFCURVE",
"901 364 OFFCURVE",
"901 391 CURVE SMOOTH",
"901 487 OFFCURVE",
"851 550 OFFCURVE",
"752 550 CURVE SMOOTH",
"655 550 OFFCURVE",
"612 498 OFFCURVE",
"584 442 CURVE",
"583 442 LINE",
"563 511 OFFCURVE",
"516 550 OFFCURVE",
"433 550 CURVE SMOOTH",
"336 550 OFFCURVE",
"298 498 OFFCURVE",
"270 442 CURVE",
"269 442 LINE",
"268 535 LINE",
"88 535 LINE"
);
}
);
width = 922;
},
{
background = {
paths = (
{
closed = 0;
nodes = (
"504 386 LINE",
"504 476 OFFCURVE",
"448 543 OFFCURVE",
"350 543 CURVE SMOOTH",
"257 543 OFFCURVE",
"209 493 OFFCURVE",
"182 447 CURVE",
"181 447 LINE",
"185 528 LINE",
"100 528 LINE",
"6 0 LINE",
"106 0 LINE",
"156 285 LINE SMOOTH",
"173 384 OFFCURVE",
"238 453 OFFCURVE",
"313 453 CURVE SMOOTH",
"373 453 OFFCURVE",
"403 422 OFFCURVE",
"403 361 CURVE SMOOTH",
"403 347 OFFCURVE",
"401 328 OFFCURVE",
"397 304 CURVE SMOOTH",
"343 0 LINE",
"443 0 LINE",
"493 285 LINE SMOOTH",
"510 384 OFFCURVE",
"575 453 OFFCURVE",
"650 453 CURVE SMOOTH",
"710 453 OFFCURVE",
"740 422 OFFCURVE",
"740 361 CURVE SMOOTH",
"740 347 OFFCURVE",
"738 328 OFFCURVE",
"734 304 CURVE SMOOTH",
"680 0 LINE",
"780 0 LINE",
"834 303 LINE SMOOTH",
"839 333 OFFCURVE",
"841 360 OFFCURVE",
"841 386 CURVE SMOOTH",
"841 476 OFFCURVE",
"785 543 OFFCURVE",
"687 543 CURVE SMOOTH",
"594 543 OFFCURVE",
"526 483 OFFCURVE",
"499 437 CURVE",
"498 437 LINE"
);
}
);
};
layerId = "6641C2CA-B9F9-47EE-AEEC-6BEE387D8CB9";
paths = (
{
closed = 1;
nodes = (
"25 0 LINE",
"125 0 LINE",
"175 285 LINE SMOOTH",
"192 384 OFFCURVE",
"252 453 OFFCURVE",
"322 453 CURVE SMOOTH",
"382 453 OFFCURVE",
"412 422 OFFCURVE",
"412 361 CURVE SMOOTH",
"412 347 OFFCURVE",
"410 328 OFFCURVE",
"406 304 CURVE SMOOTH",
"352 0 LINE",
"452 0 LINE",
"502 285 LINE SMOOTH",
"519 384 OFFCURVE",
"580 453 OFFCURVE",
"650 453 CURVE SMOOTH",
"710 453 OFFCURVE",
"740 422 OFFCURVE",
"740 361 CURVE SMOOTH",
"740 347 OFFCURVE",
"738 328 OFFCURVE",
"734 304 CURVE SMOOTH",
"680 0 LINE",
"780 0 LINE",
"834 303 LINE SMOOTH",
"839 333 OFFCURVE",
"841 360 OFFCURVE",
"841 386 CURVE SMOOTH",
"841 476 OFFCURVE",
"785 543 OFFCURVE",
"687 543 CURVE SMOOTH",
"594 543 OFFCURVE",
"543 489 OFFCURVE",
"508 434 CURVE",
"507 434 LINE",
"488 499 OFFCURVE",
"439 543 OFFCURVE",
"359 543 CURVE SMOOTH",
"271 543 OFFCURVE",
"229 493 OFFCURVE",
"201 447 CURVE",
"200 447 LINE",
"204 528 LINE",
"119 528 LINE"
);
}
);
width = 889;
}
);
leftMetricsKey = n;
rightMetricsKey = n;
unicode = 006D;
userData = {
RMXScaler = {
source = m;
};
};
},
{
color = 9;
glyphname = n;
lastChange = "2018-07-13 14:14:58 +0000";
layers = (
{
anchors = (
{
name = apostrophe;
position = "{37, 515}";
},
{
name = bottom;
position = "{232, 0}";
},
{
name = top;
position = "{308, 515}";
}
);
background = {
paths = (
{
closed = 1;
nodes = (
"90 0 LINE",
"110 0 LINE",
"110 282 LINE SMOOTH",
"110 419 OFFCURVE",
"196 511 OFFCURVE",
"304 511 CURVE SMOOTH",
"411 511 OFFCURVE",
"455 445 OFFCURVE",
"455 340 CURVE SMOOTH",
"455 0 LINE",
"475 0 LINE",
"475 340 LINE SMOOTH",
"475 460 OFFCURVE",
"421 530 OFFCURVE",
"304 530 CURVE SMOOTH",
"198 530 OFFCURVE",
"129 452 OFFCURVE",
"110 380 CURVE",
"109 380 LINE",
"106 515 LINE",
"90 515 LINE"
);
}
);
};
guideLines = (
{
angle = 80;
position = "{552, 353}";
}
);
layerId = "CC363ACD-D5A5-4E19-A940-9AF36D109D9E";
paths = (
{
closed = 1;
nodes = (
"45 0 LINE",
"65 0 LINE",
"115 282 LINE SMOOTH",
"139 419 OFFCURVE",
"226 511 OFFCURVE",
"334 511 CURVE SMOOTH",
"423 511 OFFCURVE",
"463 462 OFFCURVE",
"463 382 CURVE SMOOTH",
"463 366 OFFCURVE",
"461 349 OFFCURVE",
"458 330 CURVE SMOOTH",
"400 0 LINE",
"420 0 LINE",
"478 330 LINE SMOOTH",
"481 349 OFFCURVE",
"483 367 OFFCURVE",
"483 383 CURVE SMOOTH",
"483 474 OFFCURVE",
"434 530 OFFCURVE",
"334 530 CURVE SMOOTH",
"231 530 OFFCURVE",
"164 457 OFFCURVE",
"133 385 CURVE",
"132 385 LINE",
"152 515 LINE",
"136 515 LINE"
);
}
);
width = 545;
},
{
anchors = (
{
name = apostrophe;
position = "{31, 535}";
},
{
name = bottom;
position = "{272, 0}";
},
{
name = top;
position = "{343, 535}";
}
);
background = {
paths = (
{
closed = 1;
nodes = (
"355 550 OFFCURVE",
"311 493 OFFCURVE",
"273 427 CURVE",
"266 427 LINE",
"264 535 LINE",
"88 535 LINE",
"-7 0 LINE",
"203 0 LINE",
"251 272 LINE SMOOTH",
"263 338 OFFCURVE",
"294 370 OFFCURVE",
"343 370 CURVE SMOOTH",
"378 370 OFFCURVE",
"396 353 OFFCURVE",
"396 319 CURVE SMOOTH",
"396 308 OFFCURVE",
"394 293 OFFCURVE",
"392 282 CURVE SMOOTH",
"342 0 LINE",
"552 0 LINE",
"607 310 LINE SMOOTH",
"612 338 OFFCURVE",
"614 364 OFFCURVE",
"614 391 CURVE SMOOTH",
"614 487 OFFCURVE",
"564 550 OFFCURVE",
"462 550 CURVE SMOOTH"
);
}
);
};
guideLines = (
{
angle = 79.9309;
position = "{203, 0}";
}
);
layerId = "C1DA716A-5F29-4CD0-A38F-CCADF5849A80";
paths = (
{
closed = 1;
nodes = (
"-7 0 LINE",
"203 0 LINE",
"253 282 LINE SMOOTH",
"265 348 OFFCURVE",
"294 370 OFFCURVE",
"323 370 CURVE SMOOTH",
"356 370 OFFCURVE",
"369 353 OFFCURVE",
"369 319 CURVE SMOOTH",
"369 308 OFFCURVE",
"367 293 OFFCURVE",
"365 282 CURVE SMOOTH",
"315 0 LINE",
"525 0 LINE",
"580 310 LINE SMOOTH",
"585 338 OFFCURVE",
"587 364 OFFCURVE",
"587 391 CURVE SMOOTH",
"587 487 OFFCURVE",
"537 550 OFFCURVE",
"437 550 CURVE SMOOTH",
"340 550 OFFCURVE",
"299 498 OFFCURVE",
"271 442 CURVE",
"270 442 LINE",
"268 535 LINE",
"88 535 LINE"
);
}
);
width = 608;
},
{
anchors = (
{
name = apostrophe;
position = "{34, 528}";
},
{
name = bottom;
position = "{251, 0}";
},
{
name = top;
position = "{324, 528}";
}
);
background = {
paths = (
{
closed = 1;
nodes = (
"72 0 LINE",
"172 0 LINE",
"172 280 LINE SMOOTH",
"172 388 OFFCURVE",
"227 453 OFFCURVE",
"310 453 CURVE SMOOTH",
"384 453 OFFCURVE",
"419 409 OFFCURVE",
"419 323 CURVE SMOOTH",
"419 0 LINE",
"519 0 LINE",
"519 346 LINE SMOOTH",
"519 466 OFFCURVE",
"459 543 OFFCURVE",
"337 543 CURVE SMOOTH",
"251 543 OFFCURVE",
"202 500 OFFCURVE",
"171 447 CURVE",
"170 447 LINE",
"157 528 LINE",
"72 528 LINE"
);
}
);
};
layerId = "6641C2CA-B9F9-47EE-AEEC-6BEE387D8CB9";
paths = (
{
closed = 1;
nodes = (
"25 0 LINE",
"125 0 LINE",
"175 285 LINE SMOOTH",
"192 384 OFFCURVE",
"257 453 OFFCURVE",
"332 453 CURVE SMOOTH",
"392 453 OFFCURVE",
"422 422 OFFCURVE",
"422 361 CURVE SMOOTH",
"422 347 OFFCURVE",
"420 328 OFFCURVE",
"416 304 CURVE SMOOTH",
"362 0 LINE",
"462 0 LINE",
"516 303 LINE SMOOTH",
"521 333 OFFCURVE",
"523 360 OFFCURVE",
"523 386 CURVE SMOOTH",
"523 476 OFFCURVE",
"467 543 OFFCURVE",
"369 543 CURVE SMOOTH",
"276 543 OFFCURVE",
"228 493 OFFCURVE",
"201 447 CURVE",
"200 447 LINE",
"204 528 LINE",
"119 528 LINE"
);
}
);
width = 571;
}
);
unicode = 006E;
userData = {
RMXScaler = {
source = n;
};
};
},
{
color = 9;
glyphname = o;
lastChange = "2018-07-13 14:14:58 +0000";
layers = (
{
anchors = (
{
name = bottom;
position = "{226, 0}";
},
{
name = top;
position = "{303, 515}";
}
);
background = {
paths = (
{
closed = 1;
nodes = (
"363 -15 OFFCURVE",
"452 85 OFFCURVE",
"483 258 CURVE SMOOTH",
"514 431 OFFCURVE",
"449 530 OFFCURVE",
"309 530 CURVE SMOOTH",
"169 530 OFFCURVE",
"79 431 OFFCURVE",
"49 258 CURVE SMOOTH",
"19 85 OFFCURVE",
"83 -15 OFFCURVE",
"223 -15 CURVE SMOOTH"
);
},
{
closed = 1;
nodes = (
"98 4 OFFCURVE",
"41 96 OFFCURVE",
"69 258 CURVE SMOOTH",
"97 420 OFFCURVE",
"178 511 OFFCURVE",
"306 511 CURVE SMOOTH",
"434 511 OFFCURVE",
"492 420 OFFCURVE",
"463 258 CURVE SMOOTH",
"434 96 OFFCURVE",
"354 4 OFFCURVE",
"226 4 CURVE SMOOTH"
);
}
);
};
layerId = "CC363ACD-D5A5-4E19-A940-9AF36D109D9E";
paths = (
{
closed = 1;
nodes = (
"363 -15 OFFCURVE",
"450 78 OFFCURVE",
"481 251 CURVE SMOOTH",
"512 424 OFFCURVE",
"441 530 OFFCURVE",
"302 530 CURVE SMOOTH",
"169 530 OFFCURVE",
"81 438 OFFCURVE",
"51 265 CURVE SMOOTH",
"21 92 OFFCURVE",
"91 -15 OFFCURVE",
"230 -15 CURVE SMOOTH"
);
},
{
closed = 1;
nodes = (
"104 4 OFFCURVE",
"43 101 OFFCURVE",
"71 263 CURVE SMOOTH",
"99 425 OFFCURVE",
"177 511 OFFCURVE",
"301 511 CURVE SMOOTH",
"428 511 OFFCURVE",
"490 415 OFFCURVE",
"461 253 CURVE SMOOTH",
"432 91 OFFCURVE",
"355 4 OFFCURVE",
"231 4 CURVE SMOOTH"
);
}
);
width = 532;
},
{
anchors = (
{
name = bottom;
position = "{265, 0}";
},
{
name = top;
position = "{341, 535}";
}
);
background = {
paths = (
{
closed = 1;
nodes = (
"456 -15 OFFCURVE",
"564 78 OFFCURVE",
"594 247 CURVE SMOOTH",
"627 435 OFFCURVE",
"536 550 OFFCURVE",
"342 550 CURVE SMOOTH",
"148 550 OFFCURVE",
"40 456 OFFCURVE",
"10 287 CURVE SMOOTH",
"-23 99 OFFCURVE",
"68 -15 OFFCURVE",
"262 -15 CURVE SMOOTH"
);
},
{
closed = 1;
nodes = (
"223 140 OFFCURVE",
"203 180 OFFCURVE",
"218 267 CURVE SMOOTH",
"233 355 OFFCURVE",
"259 395 OFFCURVE",
"322 395 CURVE SMOOTH",
"380 395 OFFCURVE",
"401 355 OFFCURVE",
"386 267 CURVE SMOOTH",
"371 180 OFFCURVE",
"344 140 OFFCURVE",
"281 140 CURVE SMOOTH"
);
}
);
};
guideLines = (
{
angle = 80;
position = "{592, 238}";
}
);
layerId = "C1DA716A-5F29-4CD0-A38F-CCADF5849A80";
paths = (
{
closed = 1;
nodes = (
"443 -15 OFFCURVE",
"546 78 OFFCURVE",
"576 247 CURVE SMOOTH",
"609 435 OFFCURVE",
"524 550 OFFCURVE",
"340 550 CURVE SMOOTH",
"161 550 OFFCURVE",
"58 456 OFFCURVE",
"28 287 CURVE SMOOTH",
"-5 99 OFFCURVE",
"80 -15 OFFCURVE",
"264 -15 CURVE SMOOTH"
);
},
{
closed = 1;
nodes = (
"235 140 OFFCURVE",
"221 180 OFFCURVE",
"236 267 CURVE SMOOTH",
"251 355 OFFCURVE",
"272 395 OFFCURVE",
"320 395 CURVE SMOOTH",
"368 395 OFFCURVE",
"383 355 OFFCURVE",
"368 267 CURVE SMOOTH",
"353 180 OFFCURVE",
"331 140 OFFCURVE",
"283 140 CURVE SMOOTH"
);
}
);
width = 605;
},
{
anchors = (
{
name = top;
position = "{341, 515}";
}
);
associatedMasterId = "CC363ACD-D5A5-4E19-A940-9AF36D109D9E";
background = {
paths = (
{
closed = 1;
nodes = (
"463 -15 OFFCURVE",
"531 157 OFFCURVE",
"531 317 CURVE SMOOTH",
"531 450 OFFCURVE",
"452 530 OFFCURVE",
"328 530 CURVE SMOOTH",
"131 530 OFFCURVE",
"62 356 OFFCURVE",
"62 197 CURVE SMOOTH",
"62 64 OFFCURVE",
"142 -15 OFFCURVE",
"265 -15 CURVE SMOOTH"
);
},
{
closed = 1;
nodes = (
"170 32 OFFCURVE",
"117 92 OFFCURVE",
"117 197 CURVE SMOOTH",
"117 328 OFFCURVE",
"159 483 OFFCURVE",
"326 483 CURVE SMOOTH",
"423 483 OFFCURVE",
"476 422 OFFCURVE",
"476 317 CURVE SMOOTH",
"476 185 OFFCURVE",
"434 32 OFFCURVE",
"267 32 CURVE SMOOTH"
);
}
);
};
layerId = "9D8F7E6B-5AAE-410B-B2B6-D8CC432F32E6";
name = "Sep 27 17, 14:13";
paths = (
{
closed = 1;
nodes = (
"463 -15 OFFCURVE",
"531 157 OFFCURVE",
"531 317 CURVE SMOOTH",
"531 450 OFFCURVE",
"452 530 OFFCURVE",
"328 530 CURVE SMOOTH",
"131 530 OFFCURVE",
"62 356 OFFCURVE",
"62 197 CURVE SMOOTH",
"62 64 OFFCURVE",
"142 -15 OFFCURVE",
"265 -15 CURVE SMOOTH"
);
},
{
closed = 1;
nodes = (
"170 32 OFFCURVE",
"117 92 OFFCURVE",
"117 197 CURVE SMOOTH",
"117 328 OFFCURVE",
"159 483 OFFCURVE",
"326 483 CURVE SMOOTH",
"423 483 OFFCURVE",
"476 422 OFFCURVE",
"476 317 CURVE SMOOTH",
"476 185 OFFCURVE",
"434 32 OFFCURVE",
"267 32 CURVE SMOOTH"
);
}
);
width = 594;
},
{
anchors = (
{
name = top;
position = "{346, 525}";
}
);
associatedMasterId = "CC363ACD-D5A5-4E19-A940-9AF36D109D9E";
background = {
paths = (
{
closed = 1;
nodes = (
"474 -15 OFFCURVE",
"583 108 OFFCURVE",
"583 323 CURVE SMOOTH",
"583 459 OFFCURVE",
"496 540 OFFCURVE",
"348 540 CURVE SMOOTH",
"157 540 OFFCURVE",
"48 417 OFFCURVE",
"48 202 CURVE SMOOTH",
"48 66 OFFCURVE",
"135 -15 OFFCURVE",
"283 -15 CURVE SMOOTH"
);
},
{
closed = 1;
nodes = (
"223 100 OFFCURVE",
"190 133 OFFCURVE",
"190 205 CURVE SMOOTH",
"190 325 OFFCURVE",
"229 425 OFFCURVE",
"337 425 CURVE SMOOTH",
"408 425 OFFCURVE",
"441 392 OFFCURVE",
"441 320 CURVE SMOOTH",
"441 200 OFFCURVE",
"402 100 OFFCURVE",
"294 100 CURVE SMOOTH"
);
}
);
};
layerId = "9E1BBE25-F631-4A0C-B01E-887E684B7725";
name = "Oct 3 17, 16:52";
paths = (
{
closed = 1;
nodes = (
"474 -15 OFFCURVE",
"583 108 OFFCURVE",
"583 323 CURVE SMOOTH",
"583 459 OFFCURVE",
"496 540 OFFCURVE",
"348 540 CURVE SMOOTH",
"157 540 OFFCURVE",
"48 417 OFFCURVE",
"48 202 CURVE SMOOTH",
"48 66 OFFCURVE",
"135 -15 OFFCURVE",
"283 -15 CURVE SMOOTH"
);
},
{
closed = 1;
nodes = (
"223 100 OFFCURVE",
"190 133 OFFCURVE",
"190 205 CURVE SMOOTH",
"190 325 OFFCURVE",
"229 425 OFFCURVE",
"337 425 CURVE SMOOTH",
"408 425 OFFCURVE",
"441 392 OFFCURVE",
"441 320 CURVE SMOOTH",
"441 200 OFFCURVE",
"402 100 OFFCURVE",
"294 100 CURVE SMOOTH"
);
}
);
width = 631;
},
{
anchors = (
{
name = top;
position = "{368, 535}";
}
);
associatedMasterId = "C1DA716A-5F29-4CD0-A38F-CCADF5849A80";
background = {
paths = (
{
closed = 1;
nodes = (
"507 -15 OFFCURVE",
"608 125 OFFCURVE",
"608 320 CURVE SMOOTH",
"608 462 OFFCURVE",
"507 550 OFFCURVE",
"354 550 CURVE SMOOTH",
"135 550 OFFCURVE",
"34 410 OFFCURVE",
"34 215 CURVE SMOOTH",
"34 73 OFFCURVE",
"136 -15 OFFCURVE",
"288 -15 CURVE SMOOTH"
);
},
{
closed = 1;
nodes = (
"263 143 OFFCURVE",
"239 172 OFFCURVE",
"239 225 CURVE SMOOTH",
"239 305 OFFCURVE",
"249 391 OFFCURVE",
"337 391 CURVE SMOOTH",
"379 391 OFFCURVE",
"403 362 OFFCURVE",
"403 309 CURVE SMOOTH",
"403 229 OFFCURVE",
"391 143 OFFCURVE",
"305 143 CURVE SMOOTH"
);
}
);
};
layerId = "238EBE47-9D70-4C6C-998E-759ED4EA4CB0";
name = "Oct 3 17, 21:07";
paths = (
{
closed = 1;
nodes = (
"507 -15 OFFCURVE",
"608 125 OFFCURVE",
"608 320 CURVE SMOOTH",
"608 462 OFFCURVE",
"507 550 OFFCURVE",
"354 550 CURVE SMOOTH",
"135 550 OFFCURVE",
"34 410 OFFCURVE",
"34 215 CURVE SMOOTH",
"34 73 OFFCURVE",
"136 -15 OFFCURVE",
"288 -15 CURVE SMOOTH"
);
},
{
closed = 1;
nodes = (
"263 143 OFFCURVE",
"239 172 OFFCURVE",
"239 225 CURVE SMOOTH",
"239 305 OFFCURVE",
"249 391 OFFCURVE",
"337 391 CURVE SMOOTH",
"379 391 OFFCURVE",
"403 362 OFFCURVE",
"403 309 CURVE SMOOTH",
"403 229 OFFCURVE",
"391 143 OFFCURVE",
"305 143 CURVE SMOOTH"
);
}
);
width = 642;
},
{
anchors = (
{
name = top;
position = "{368, 535}";
}
);
associatedMasterId = "C1DA716A-5F29-4CD0-A38F-CCADF5849A80";
background = {
paths = (
{
closed = 1;
nodes = (
"507 -25 OFFCURVE",
"608 125 OFFCURVE",
"608 320 CURVE SMOOTH",
"608 462 OFFCURVE",
"507 546 OFFCURVE",
"354 550 CURVE SMOOTH",
"135 556 OFFCURVE",
"46 410 OFFCURVE",
"38 236 CURVE SMOOTH",
"30 73 OFFCURVE",
"136 -8 OFFCURVE",
"288 -15 CURVE SMOOTH"
);
},
{
closed = 1;
nodes = (
"255 146 OFFCURVE",
"232 172 OFFCURVE",
"237 245 CURVE SMOOTH",
"244 340 OFFCURVE",
"269 395 OFFCURVE",
"337 392 CURVE SMOOTH",
"379 390 OFFCURVE",
"403 362 OFFCURVE",
"403 309 CURVE SMOOTH",
"403 229 OFFCURVE",
"386 137 OFFCURVE",
"300 143 CURVE SMOOTH"
);
}
);
};
guideLines = (
{
angle = 80;
position = "{321, 268}";
}
);
layerId = "6D7BA73E-2F40-4FDE-A60F-57F1F342B806";
name = "Oct 3 17, 21:24";
paths = (
{
closed = 1;
nodes = (
"490 -15 OFFCURVE",
"602 115 OFFCURVE",
"605 316 CURVE SMOOTH",
"607 463 OFFCURVE",
"507 550 OFFCURVE",
"344 550 CURVE SMOOTH",
"152 550 OFFCURVE",
"39 420 OFFCURVE",
"37 219 CURVE SMOOTH",
"36 72 OFFCURVE",
"135 -15 OFFCURVE",
"298 -15 CURVE SMOOTH"
);
},
{
closed = 1;
nodes = (
"260 145 OFFCURVE",
"235 164 OFFCURVE",
"237 227 CURVE SMOOTH",
"240 339 OFFCURVE",
"275 393 OFFCURVE",
"336 392 CURVE SMOOTH",
"382 391 OFFCURVE",
"407 371 OFFCURVE",
"405 308 CURVE SMOOTH",
"401 196 OFFCURVE",
"367 141 OFFCURVE",
"306 143 CURVE SMOOTH"
);
}
);
width = 642;
},
{
anchors = (
{
name = top;
position = "{368, 535}";
}
);
associatedMasterId = "C1DA716A-5F29-4CD0-A38F-CCADF5849A80";
background = {
anchors = (
{
name = top;
position = "{368, 535}";
}
);
paths = (
{
closed = 1;
nodes = (
"490 -15 OFFCURVE",
"602 115 OFFCURVE",
"605 316 CURVE SMOOTH",
"607 463 OFFCURVE",
"507 550 OFFCURVE",
"344 550 CURVE SMOOTH",
"152 550 OFFCURVE",
"39 420 OFFCURVE",
"37 219 CURVE SMOOTH",
"36 72 OFFCURVE",
"135 -15 OFFCURVE",
"298 -15 CURVE SMOOTH"
);
},
{
closed = 1;
nodes = (
"260 145 OFFCURVE",
"235 164 OFFCURVE",
"237 227 CURVE SMOOTH",
"240 339 OFFCURVE",
"275 393 OFFCURVE",
"336 392 CURVE SMOOTH",
"382 391 OFFCURVE",
"407 371 OFFCURVE",
"405 308 CURVE SMOOTH",
"401 196 OFFCURVE",
"367 141 OFFCURVE",
"306 143 CURVE SMOOTH"
);
}
);
};
guideLines = (
{
angle = 80;
position = "{321, 268}";
}
);
layerId = "704A058A-F542-4D34-B1D0-03F1D0473D69";
name = "Oct 3 17, 21:28";
paths = (
{
closed = 1;
nodes = (
"490 -15 OFFCURVE",
"603 115 OFFCURVE",
"606 316 CURVE SMOOTH",
"608 463 OFFCURVE",
"507 550 OFFCURVE",
"346 550 CURVE SMOOTH",
"152 550 OFFCURVE",
"40 420 OFFCURVE",
"37 219 CURVE SMOOTH",
"35 72 OFFCURVE",
"135 -15 OFFCURVE",
"297 -15 CURVE SMOOTH"
);
},
{
closed = 1;
nodes = (
"260 143 OFFCURVE",
"237 164 OFFCURVE",
"237 221 CURVE SMOOTH",
"237 326 OFFCURVE",
"272 392 OFFCURVE",
"336 392 CURVE SMOOTH",
"383 392 OFFCURVE",
"406 371 OFFCURVE",
"406 314 CURVE SMOOTH",
"406 209 OFFCURVE",
"371 143 OFFCURVE",
"307 143 CURVE SMOOTH"
);
}
);
width = 642;
},
{
anchors = (
{
name = bottom;
position = "{246, 0}";
},
{
name = top;
position = "{318, 528}";
}
);
background = {
paths = (
{
closed = 1;
nodes = (
"404 -15 OFFCURVE",
"498 75 OFFCURVE",
"530 255 CURVE SMOOTH",
"562 434 OFFCURVE",
"475 543 OFFCURVE",
"318 543 CURVE SMOOTH",
"160 543 OFFCURVE",
"67 454 OFFCURVE",
"35 275 CURVE SMOOTH",
"3 95 OFFCURVE",
"89 -15 OFFCURVE",
"245 -15 CURVE SMOOTH"
);
},
{
closed = 1;
nodes = (
"156 70 OFFCURVE",
"113 137 OFFCURVE",
"135 265 CURVE SMOOTH",
"157 392 OFFCURVE",
"209 458 OFFCURVE",
"311 458 CURVE SMOOTH",
"408 458 OFFCURVE",
"452 392 OFFCURVE",
"430 265 CURVE SMOOTH",
"408 137 OFFCURVE",
"355 70 OFFCURVE",
"252 70 CURVE SMOOTH"
);
}
);
};
guideLines = (
{
angle = 80;
position = "{588, 353}";
}
);
layerId = "6641C2CA-B9F9-47EE-AEEC-6BEE387D8CB9";
paths = (
{
closed = 1;
nodes = (
"392 -15 OFFCURVE",
"491 80 OFFCURVE",
"523 255 CURVE SMOOTH",
"556 434 OFFCURVE",
"469 543 OFFCURVE",
"318 543 CURVE SMOOTH",
"172 543 OFFCURVE",
"74 449 OFFCURVE",
"42 275 CURVE SMOOTH",
"9 95 OFFCURVE",
"95 -15 OFFCURVE",
"245 -15 CURVE SMOOTH"
);
},
{
closed = 1;
nodes = (
"162 70 OFFCURVE",
"119 137 OFFCURVE",
"142 265 CURVE SMOOTH",
"164 387 OFFCURVE",
"216 458 OFFCURVE",
"311 458 CURVE SMOOTH",
"402 458 OFFCURVE",
"446 392 OFFCURVE",
"423 265 CURVE SMOOTH",
"401 142 OFFCURVE",
"348 70 OFFCURVE",
"252 70 CURVE SMOOTH"
);
}
);
width = 565;
}
);
unicode = 006F;
userData = {
RMXScaler = {
source = o;
};
};
},
{
glyphname = p;
lastChange = "2018-07-17 10:54:22 +0000";
layers = (
{
background = {
paths = (
{
closed = 1;
nodes = (
"45 0 LINE",
"61 0 LINE",
"89 140 LINE",
"90 140 LINE",
"103 53 OFFCURVE",
"162 -15 OFFCURVE",
"263 -15 CURVE SMOOTH",
"396 -15 OFFCURVE",
"479 85 OFFCURVE",
"508 246 CURVE SMOOTH",
"539 416 OFFCURVE",
"473 530 OFFCURVE",
"335 530 CURVE SMOOTH",
"233 530 OFFCURVE",
"167 462 OFFCURVE",
"134 386 CURVE",
"133 386 LINE",
"196 740 LINE",
"176 740 LINE"
);
},
{
closed = 1;
nodes = (
"460 511 OFFCURVE",
"517 408 OFFCURVE",
"488 248 CURVE SMOOTH",
"461 97 OFFCURVE",
"385 4 OFFCURVE",
"264 4 CURVE SMOOTH",
"154 4 OFFCURVE",
"81 92 OFFCURVE",
"111 258 CURVE SMOOTH",
"143 436 OFFCURVE",
"233 511 OFFCURVE",
"334 511 CURVE SMOOTH"
);
}
);
};
components = (
{
name = d;
transform = "{-1, 0, 0, -1, 559, 515}";
}
);
layerId = "CC363ACD-D5A5-4E19-A940-9AF36D109D9E";
width = 559;
},
{
background = {
paths = (
{
closed = 1;
nodes = (
"232 80 LINE",
"238 80 LINE",
"260 32 OFFCURVE",
"299 -15 OFFCURVE",
"389 -15 CURVE SMOOTH",
"567 -15 OFFCURVE",
"643 149 OFFCURVE",
"643 330 CURVE SMOOTH",
"643 450 OFFCURVE",
"583 549 OFFCURVE",
"467 549 CURVE SMOOTH",
"388 549 OFFCURVE",
"329 502 OFFCURVE",
"301 454 CURVE",
"289 454 LINE",
"287 535 LINE",
"107 535 LINE",
"-22 -195 LINE",
"183 -195 LINE"
);
},
{
closed = 1;
nodes = (
"411 384 OFFCURVE",
"437 352 OFFCURVE",
"437 302 CURVE SMOOTH",
"437 242 OFFCURVE",
"424 151 OFFCURVE",
"331 151 CURVE SMOOTH",
"284 151 OFFCURVE",
"259 183 OFFCURVE",
"259 233 CURVE SMOOTH",
"259 293 OFFCURVE",
"274 384 OFFCURVE",
"365 384 CURVE SMOOTH"
);
}
);
};
components = (
{
name = d;
transform = "{-1, 0, 0, -1, 618, 535}";
}
);
layerId = "C1DA716A-5F29-4CD0-A38F-CCADF5849A80";
width = 618;
},
{
background = {
paths = (
{
closed = 1;
nodes = (
"276 543 OFFCURVE",
"228 493 OFFCURVE",
"201 447 CURVE",
"200 447 LINE",
"204 528 LINE",
"119 528 LINE",
"25 0 LINE",
"125 0 LINE",
"175 285 LINE SMOOTH",
"192 384 OFFCURVE",
"257 453 OFFCURVE",
"332 453 CURVE SMOOTH",
"392 453 OFFCURVE",
"422 422 OFFCURVE",
"422 361 CURVE SMOOTH",
"422 347 OFFCURVE",
"420 328 OFFCURVE",
"416 304 CURVE SMOOTH",
"362 0 LINE",
"462 0 LINE",
"516 303 LINE SMOOTH",
"521 333 OFFCURVE",
"523 360 OFFCURVE",
"523 386 CURVE SMOOTH",
"523 476 OFFCURVE",
"467 543 OFFCURVE",
"369 543 CURVE SMOOTH"
);
}
);
};
components = (
{
name = d;
transform = "{-1, 0, 0, -1, 587, 528}";
}
);
layerId = "6641C2CA-B9F9-47EE-AEEC-6BEE387D8CB9";
width = 587;
}
);
leftMetricsKey = n;
rightMetricsKey = o;
unicode = 0070;
userData = {
RMXScaler = {
source = p;
};
};
},
{
glyphname = q;
lastChange = "2018-07-13 14:14:58 +0000";
layers = (
{
background = {
components = (
{
name = b;
transform = "{-1, 0, 0, -1, 560, 515}";
}
);
};
components = (
{
name = b;
transform = "{-1, 0, 0, -1, 560, 515}";
}
);
layerId = "CC363ACD-D5A5-4E19-A940-9AF36D109D9E";
width = 560;
},
{
background = {
paths = (
{
closed = 1;
nodes = (
"531 -195 LINE",
"661 535 LINE",
"479 535 LINE",
"448 454 LINE",
"436 454 LINE",
"410 507 OFFCURVE",
"365 549 OFFCURVE",
"280 549 CURVE SMOOTH",
"113 549 OFFCURVE",
"32 385 OFFCURVE",
"32 194 CURVE SMOOTH",
"32 74 OFFCURVE",
"92 -15 OFFCURVE",
"207 -15 CURVE SMOOTH",
"287 -15 OFFCURVE",
"336 21 OFFCURVE",
"370 80 CURVE",
"377 80 LINE",
"326 -195 LINE"
);
},
{
closed = 1;
nodes = (
"390 384 OFFCURVE",
"416 352 OFFCURVE",
"416 302 CURVE SMOOTH",
"416 242 OFFCURVE",
"403 151 OFFCURVE",
"310 151 CURVE SMOOTH",
"263 151 OFFCURVE",
"238 183 OFFCURVE",
"238 233 CURVE SMOOTH",
"238 293 OFFCURVE",
"253 384 OFFCURVE",
"344 384 CURVE SMOOTH"
);
}
);
};
components = (
{
name = b;
transform = "{-1, 0, 0, -1, 618, 535}";
}
);
layerId = "C1DA716A-5F29-4CD0-A38F-CCADF5849A80";
width = 618;
},
{
components = (
{
name = b;
transform = "{-1, 0, 0, -1, 587, 528}";
}
);
layerId = "6641C2CA-B9F9-47EE-AEEC-6BEE387D8CB9";
width = 587;
}
);
leftMetricsKey = o;
rightMetricsKey = idotless;
unicode = 0071;
userData = {
RMXScaler = {
source = q;
};
};
},
{
color = 9;
glyphname = r;
lastChange = "2018-07-13 14:14:58 +0000";
layers = (
{
anchors = (
{
name = bottom;
position = "{55, 0}";
},
{
name = top;
position = "{237, 515}";
}
);
background = {
paths = (
{
closed = 1;
nodes = (
"45 0 LINE",
"65 0 LINE",
"115 282 LINE SMOOTH",
"139 419 OFFCURVE",
"226 511 OFFCURVE",
"334 511 CURVE SMOOTH",
"423 511 OFFCURVE",
"463 462 OFFCURVE",
"463 382 CURVE SMOOTH",
"463 366 OFFCURVE",
"461 349 OFFCURVE",
"458 330 CURVE SMOOTH",
"400 0 LINE",
"420 0 LINE",
"478 330 LINE SMOOTH",
"481 349 OFFCURVE",
"483 367 OFFCURVE",
"483 383 CURVE SMOOTH",
"483 474 OFFCURVE",
"434 530 OFFCURVE",
"334 530 CURVE SMOOTH",
"231 530 OFFCURVE",
"164 457 OFFCURVE",
"133 385 CURVE",
"132 385 LINE",
"152 515 LINE",
"136 515 LINE"
);
}
);
};
layerId = "CC363ACD-D5A5-4E19-A940-9AF36D109D9E";
paths = (
{
closed = 1;
nodes = (
"222 525 OFFCURVE",
"165 473 OFFCURVE",
"133 385 CURVE",
"132 385 LINE",
"152 515 LINE",
"136 515 LINE",
"45 0 LINE",
"65 0 LINE",
"113 272 LINE SMOOTH",
"136 405 OFFCURVE",
"199 507 OFFCURVE",
"302 507 CURVE SMOOTH",
"320 507 OFFCURVE",
"339 504 OFFCURVE",
"350 501 CURVE",
"353 519 LINE",
"342 522 OFFCURVE",
"322 525 OFFCURVE",
"304 525 CURVE SMOOTH"
);
}
);
width = 317;
},
{
anchors = (
{
name = bottom;
position = "{96, 0}";
},
{
name = top;
position = "{261, 535}";
}
);
background = {
paths = (
{
closed = 1;
nodes = (
"327 550 OFFCURVE",
"298 504 OFFCURVE",
"273 417 CURVE",
"266 417 LINE",
"264 535 LINE",
"88 535 LINE",
"-7 0 LINE",
"203 0 LINE",
"245 242 LINE SMOOTH",
"260 329 OFFCURVE",
"297 358 OFFCURVE",
"372 358 CURVE SMOOTH",
"388 358 OFFCURVE",
"409 355 OFFCURVE",
"424 352 CURVE",
"467 540 LINE",
"455 545 OFFCURVE",
"428 550 OFFCURVE",
"407 550 CURVE SMOOTH"
);
}
);
};
layerId = "C1DA716A-5F29-4CD0-A38F-CCADF5849A80";
paths = (
{
closed = 1;
nodes = (
"327 550 OFFCURVE",
"296 514 OFFCURVE",
"271 427 CURVE",
"270 427 LINE",
"268 535 LINE",
"88 535 LINE",
"-7 0 LINE",
"203 0 LINE",
"242 222 LINE SMOOTH",
"257 310 OFFCURVE",
"297 358 OFFCURVE",
"372 358 CURVE SMOOTH",
"388 358 OFFCURVE",
"409 355 OFFCURVE",
"424 352 CURVE",
"457 540 LINE",
"445 545 OFFCURVE",
"418 550 OFFCURVE",
"397 550 CURVE SMOOTH"
);
}
);
width = 414;
},
{
anchors = (
{
name = bottom;
position = "{75, 0}";
},
{
name = top;
position = "{252, 528}";
}
);
background = {
paths = (
{
closed = 1;
nodes = (
"281 543 OFFCURVE",
"238 510 OFFCURVE",
"202 437 CURVE",
"197 437 LINE",
"202 528 LINE",
"119 528 LINE",
"26 0 LINE",
"126 0 LINE",
"179 297 LINE SMOOTH",
"195 387 OFFCURVE",
"250 446 OFFCURVE",
"329 446 CURVE SMOOTH",
"352 446 OFFCURVE",
"373 442 OFFCURVE",
"386 438 CURVE",
"408 534 LINE",
"395 539 OFFCURVE",
"372 543 OFFCURVE",
"351 543 CURVE SMOOTH"
);
}
);
};
layerId = "6641C2CA-B9F9-47EE-AEEC-6BEE387D8CB9";
paths = (
{
closed = 1;
nodes = (
"266 543 OFFCURVE",
"227 503 OFFCURVE",
"201 447 CURVE",
"200 447 LINE",
"204 528 LINE",
"119 528 LINE",
"26 0 LINE",
"126 0 LINE",
"177 287 LINE SMOOTH",
"197 397 OFFCURVE",
"250 446 OFFCURVE",
"324 446 CURVE SMOOTH",
"344 446 OFFCURVE",
"363 443 OFFCURVE",
"376 440 CURVE",
"393 534 LINE",
"380 539 OFFCURVE",
"357 543 OFFCURVE",
"336 543 CURVE SMOOTH"
);
}
);
width = 355;
}
);
leftMetricsKey = n;
unicode = 0072;
userData = {
RMXScaler = {
source = r;
};
};
},
{
color = 9;
glyphname = s;
lastChange = "2018-07-13 14:14:58 +0000";
layers = (
{
anchors = (
{
name = bottom;
position = "{239, 0}";
},
{
name = top;
position = "{325, 525}";
}
);
associatedMasterId = "CC363ACD-D5A5-4E19-A940-9AF36D109D9E";
background = {
anchors = (
{
name = bottom;
position = "{284, 0}";
},
{
name = top;
position = "{277, 525}";
}
);
paths = (
{
closed = 1;
nodes = (
"403 -15 OFFCURVE",
"506 51 OFFCURVE",
"506 171 CURVE SMOOTH",
"506 252 OFFCURVE",
"450 293 OFFCURVE",
"345 312 CURVE SMOOTH",
"272 325 LINE SMOOTH",
"229 333 OFFCURVE",
"211 350 OFFCURVE",
"211 376 CURVE SMOOTH",
"211 414 OFFCURVE",
"242 435 OFFCURVE",
"299 435 CURVE SMOOTH",
"362 435 OFFCURVE",
"384 418 OFFCURVE",
"384 373 CURVE",
"520 373 LINE",
"524 481 OFFCURVE",
"461 540 OFFCURVE",
"304 540 CURVE SMOOTH",
"164 540 OFFCURVE",
"75 482 OFFCURVE",
"75 361 CURVE SMOOTH",
"75 276 OFFCURVE",
"132 233 OFFCURVE",
"224 217 CURVE SMOOTH",
"297 204 LINE SMOOTH",
"353 194 OFFCURVE",
"370 178 OFFCURVE",
"370 151 CURVE SMOOTH",
"370 109 OFFCURVE",
"329 90 OFFCURVE",
"271 90 CURVE SMOOTH",
"202 90 OFFCURVE",
"169 109 OFFCURVE",
"169 157 CURVE",
"33 157 LINE",
"33 39 OFFCURVE",
"108 -15 OFFCURVE",
"269 -15 CURVE SMOOTH"
);
}
);
};
layerId = "88BC82E2-047E-4845-A855-EDCB4372DCA0";
name = "Aug 30 17, 11:32";
paths = (
{
closed = 1;
nodes = (
"404 -15 OFFCURVE",
"500 54 OFFCURVE",
"500 180 CURVE SMOOTH",
"500 248 OFFCURVE",
"449 295 OFFCURVE",
"347 314 CURVE SMOOTH",
"276 327 LINE SMOOTH",
"236 334 OFFCURVE",
"221 351 OFFCURVE",
"221 375 CURVE SMOOTH",
"221 413 OFFCURVE",
"251 435 OFFCURVE",
"308 435 CURVE SMOOTH",
"370 435 OFFCURVE",
"391 419 OFFCURVE",
"388 373 CURVE",
"524 373 LINE",
"537 481 OFFCURVE",
"486 540 OFFCURVE",
"327 540 CURVE SMOOTH",
"167 540 OFFCURVE",
"82 463 OFFCURVE",
"82 354 CURVE SMOOTH",
"82 279 OFFCURVE",
"134 232 OFFCURVE",
"224 216 CURVE SMOOTH",
"291 204 LINE SMOOTH",
"344 195 OFFCURVE",
"359 175 OFFCURVE",
"359 151 CURVE SMOOTH",
"359 108 OFFCURVE",
"318 90 OFFCURVE",
"263 90 CURVE SMOOTH",
"196 90 OFFCURVE",
"165 109 OFFCURVE",
"167 157 CURVE",
"31 157 LINE",
"23 40 OFFCURVE",
"76 -15 OFFCURVE",
"240 -15 CURVE SMOOTH"
);
}
);
width = 568;
},
{
anchors = (
{
name = bottom;
position = "{209, 0}";
},
{
name = top;
position = "{271, 515}";
}
);
background = {
paths = (
{
closed = 1;
nodes = (
"300 -15 OFFCURVE",
"366 27 OFFCURVE",
"382 117 CURVE SMOOTH",
"396 194 OFFCURVE",
"363 237 OFFCURVE",
"268 264 CURVE SMOOTH",
"216 279 LINE SMOOTH",
"135 302 OFFCURVE",
"108 339 OFFCURVE",
"119 404 CURVE SMOOTH",
"132 480 OFFCURVE",
"187 512 OFFCURVE",
"266 512 CURVE SMOOTH",
"354 512 OFFCURVE",
"393 478 OFFCURVE",
"409 390 CURVE",
"428 390 LINE",
"412 489 OFFCURVE",
"365 530 OFFCURVE",
"267 530 CURVE SMOOTH",
"177 530 OFFCURVE",
"114 490 OFFCURVE",
"99 404 CURVE SMOOTH",
"86 329 OFFCURVE",
"123 286 OFFCURVE",
"209 261 CURVE SMOOTH",
"261 246 LINE SMOOTH",
"347 221 OFFCURVE",
"375 187 OFFCURVE",
"362 117 CURVE SMOOTH",
"348 40 OFFCURVE",
"290 3 OFFCURVE",
"211 3 CURVE SMOOTH",
"108 3 OFFCURVE",
"69 41 OFFCURVE",
"46 129 CURVE",
"27 129 LINE",
"50 29 OFFCURVE",
"99 -15 OFFCURVE",
"210 -15 CURVE SMOOTH"
);
}
);
};
guideLines = (
{
angle = 80;
position = "{147, 353}";
}
);
layerId = "CC363ACD-D5A5-4E19-A940-9AF36D109D9E";
paths = (
{
closed = 1;
nodes = (
"300 -15 OFFCURVE",
"369 27 OFFCURVE",
"382 117 CURVE SMOOTH",
"393 194 OFFCURVE",
"360 237 OFFCURVE",
"268 264 CURVE SMOOTH",
"216 279 LINE SMOOTH",
"137 302 OFFCURVE",
"111 339 OFFCURVE",
"119 404 CURVE SMOOTH",
"128 475 OFFCURVE",
"187 512 OFFCURVE",
"266 512 CURVE SMOOTH",
"354 512 OFFCURVE",
"393 478 OFFCURVE",
"409 390 CURVE",
"428 390 LINE",
"412 489 OFFCURVE",
"365 530 OFFCURVE",
"267 530 CURVE SMOOTH",
"177 530 OFFCURVE",
"110 485 OFFCURVE",
"99 404 CURVE SMOOTH",
"89 329 OFFCURVE",
"125 285 OFFCURVE",
"209 261 CURVE SMOOTH",
"261 246 LINE SMOOTH",
"344 222 OFFCURVE",
"372 187 OFFCURVE",
"362 117 CURVE SMOOTH",
"351 40 OFFCURVE",
"290 3 OFFCURVE",
"211 3 CURVE SMOOTH",
"108 3 OFFCURVE",
"69 41 OFFCURVE",
"46 129 CURVE",
"27 129 LINE",
"50 29 OFFCURVE",
"99 -15 OFFCURVE",
"210 -15 CURVE SMOOTH"
);
}
);
width = 457;
},
{
anchors = (
{
name = bottom;
position = "{260, 0}";
},
{
name = top;
position = "{312, 535}";
}
);
background = {
paths = (
{
closed = 1;
nodes = (
"446 -20 OFFCURVE",
"542 47 OFFCURVE",
"542 165 CURVE SMOOTH",
"542 266 OFFCURVE",
"488 310 OFFCURVE",
"370 335 CURVE SMOOTH",
"285 353 LINE SMOOTH",
"252 360 OFFCURVE",
"239 368 OFFCURVE",
"239 388 CURVE SMOOTH",
"239 406 OFFCURVE",
"257 415 OFFCURVE",
"283 415 CURVE SMOOTH",
"322 415 OFFCURVE",
"334 401 OFFCURVE",
"344 368 CURVE",
"541 368 LINE",
"509 497 OFFCURVE",
"441 553 OFFCURVE",
"278 553 CURVE SMOOTH",
"119 553 OFFCURVE",
"36 492 OFFCURVE",
"36 375 CURVE SMOOTH",
"36 280 OFFCURVE",
"84 222 OFFCURVE",
"213 195 CURVE SMOOTH",
"289 179 LINE SMOOTH",
"324 172 OFFCURVE",
"339 164 OFFCURVE",
"339 144 CURVE SMOOTH",
"339 124 OFFCURVE",
"319 115 OFFCURVE",
"286 115 CURVE SMOOTH",
"244 115 OFFCURVE",
"227 130 OFFCURVE",
"215 165 CURVE",
"17 165 LINE",
"40 40 OFFCURVE",
"113 -20 OFFCURVE",
"284 -20 CURVE SMOOTH"
);
}
);
};
layerId = "C1DA716A-5F29-4CD0-A38F-CCADF5849A80";
paths = (
{
closed = 1;
nodes = (
"415 -20 OFFCURVE",
"502 37 OFFCURVE",
"517 155 CURVE SMOOTH",
"530 256 OFFCURVE",
"479 299 OFFCURVE",
"365 332 CURVE SMOOTH",
"303 350 LINE SMOOTH",
"271 359 OFFCURVE",
"260 370 OFFCURVE",
"263 390 CURVE SMOOTH",
"266 408 OFFCURVE",
"283 415 OFFCURVE",
"306 415 CURVE SMOOTH",
"339 415 OFFCURVE",
"352 401 OFFCURVE",
"359 368 CURVE",
"556 368 LINE",
"534 497 OFFCURVE",
"469 553 OFFCURVE",
"316 553 CURVE SMOOTH",
"165 553 OFFCURVE",
"80 502 OFFCURVE",
"62 395 CURVE SMOOTH",
"46 300 OFFCURVE",
"85 236 OFFCURVE",
"209 198 CURVE SMOOTH",
"271 179 LINE SMOOTH",
"304 169 OFFCURVE",
"316 161 OFFCURVE",
"314 143 CURVE SMOOTH",
"312 123 OFFCURVE",
"292 115 OFFCURVE",
"262 115 CURVE SMOOTH",
"223 115 OFFCURVE",
"209 130 OFFCURVE",
"200 165 CURVE",
"2 165 LINE",
"23 30 OFFCURVE",
"85 -20 OFFCURVE",
"256 -20 CURVE SMOOTH"
);
}
);
width = 558;
},
{
anchors = (
{
name = bottom;
position = "{222, 0}";
},
{
name = top;
position = "{306, 515}";
}
);
associatedMasterId = "CC363ACD-D5A5-4E19-A940-9AF36D109D9E";
background = {
paths = (
{
closed = 1;
nodes = (
"343 -15 OFFCURVE",
"429 44 OFFCURVE",
"429 155 CURVE SMOOTH",
"429 225 OFFCURVE",
"378 258 OFFCURVE",
"299 277 CURVE SMOOTH",
"241 291 LINE SMOOTH",
"182 305 OFFCURVE",
"156 329 OFFCURVE",
"156 373 CURVE SMOOTH",
"156 447 OFFCURVE",
"213 483 OFFCURVE",
"297 483 CURVE SMOOTH",
"380 483 OFFCURVE",
"409 447 OFFCURVE",
"410 379 CURVE",
"463 379 LINE",
"466 476 OFFCURVE",
"412 530 OFFCURVE",
"299 530 CURVE SMOOTH",
"187 530 OFFCURVE",
"105 473 OFFCURVE",
"105 370 CURVE SMOOTH",
"105 297 OFFCURVE",
"156 260 OFFCURVE",
"220 245 CURVE SMOOTH",
"291 228 LINE SMOOTH",
"345 215 OFFCURVE",
"377 196 OFFCURVE",
"377 150 CURVE SMOOTH",
"377 68 OFFCURVE",
"316 31 OFFCURVE",
"221 31 CURVE SMOOTH",
"135 31 OFFCURVE",
"94 59 OFFCURVE",
"96 140 CURVE",
"43 140 LINE",
"34 38 OFFCURVE",
"100 -15 OFFCURVE",
"223 -15 CURVE SMOOTH"
);
},
{
closed = 1;
nodes = (
"-114 -15 OFFCURVE",
"-31 33 OFFCURVE",
"-31 133 CURVE SMOOTH",
"-31 224 OFFCURVE",
"-91 257 OFFCURVE",
"-190 278 CURVE SMOOTH",
"-255 292 LINE SMOOTH",
"-330 308 OFFCURVE",
"-363 336 OFFCURVE",
"-363 392 CURVE SMOOTH",
"-363 450 OFFCURVE",
"-317 483 OFFCURVE",
"-232 483 CURVE SMOOTH",
"-143 483 OFFCURVE",
"-99 451 OFFCURVE",
"-92 379 CURVE",
"-37 379 LINE",
"-46 483 OFFCURVE",
"-112 530 OFFCURVE",
"-232 530 CURVE SMOOTH",
"-341 530 OFFCURVE",
"-414 479 OFFCURVE",
"-414 392 CURVE SMOOTH",
"-414 299 OFFCURVE",
"-349 261 OFFCURVE",
"-271 244 CURVE SMOOTH",
"-191 227 LINE SMOOTH",
"-123 213 OFFCURVE",
"-82 194 OFFCURVE",
"-82 128 CURVE SMOOTH",
"-82 63 OFFCURVE",
"-139 31 OFFCURVE",
"-228 31 CURVE SMOOTH",
"-324 31 OFFCURVE",
"-376 65 OFFCURVE",
"-380 140 CURVE",
"-435 140 LINE",
"-435 39 OFFCURVE",
"-360 -15 OFFCURVE",
"-226 -15 CURVE SMOOTH"
);
}
);
};
layerId = "31CB84DC-1B2D-425A-B3D8-19BCB4EBD1F5";
name = "Sep 27 17, 15:35";
paths = (
{
closed = 1;
nodes = (
"349 -15 OFFCURVE",
"430 39 OFFCURVE",
"430 147 CURVE SMOOTH",
"430 217 OFFCURVE",
"375 252 OFFCURVE",
"296 276 CURVE SMOOTH",
"247 291 LINE SMOOTH",
"188 309 OFFCURVE",
"152 334 OFFCURVE",
"152 378 CURVE SMOOTH",
"152 447 OFFCURVE",
"199 483 OFFCURVE",
"293 483 CURVE SMOOTH",
"376 483 OFFCURVE",
"410 447 OFFCURVE",
"411 379 CURVE",
"464 379 LINE",
"467 466 OFFCURVE",
"408 530 OFFCURVE",
"295 530 CURVE SMOOTH",
"173 530 OFFCURVE",
"101 473 OFFCURVE",
"101 375 CURVE SMOOTH",
"101 301 OFFCURVE",
"162 266 OFFCURVE",
"228 246 CURVE SMOOTH",
"288 228 LINE SMOOTH",
"342 212 OFFCURVE",
"378 188 OFFCURVE",
"378 142 CURVE SMOOTH",
"378 65 OFFCURVE",
"322 31 OFFCURVE",
"227 31 CURVE SMOOTH",
"141 31 OFFCURVE",
"95 59 OFFCURVE",
"97 140 CURVE",
"44 140 LINE",
"40 38 OFFCURVE",
"106 -15 OFFCURVE",
"229 -15 CURVE SMOOTH"
);
}
);
width = 513;
},
{
associatedMasterId = "CC363ACD-D5A5-4E19-A940-9AF36D109D9E";
background = {
paths = (
{
closed = 1;
nodes = (
"357 -15 OFFCURVE",
"430 44 OFFCURVE",
"430 145 CURVE SMOOTH",
"430 214 OFFCURVE",
"391 255 OFFCURVE",
"308 275 CURVE SMOOTH",
"226 295 LINE SMOOTH",
"176 307 OFFCURVE",
"152 334 OFFCURVE",
"152 380 CURVE SMOOTH",
"152 450 OFFCURVE",
"198 485 OFFCURVE",
"287 485 CURVE SMOOTH",
"369 485 OFFCURVE",
"409 455 OFFCURVE",
"411 379 CURVE",
"463 379 LINE",
"466 476 OFFCURVE",
"397 530 OFFCURVE",
"290 530 CURVE SMOOTH",
"170 530 OFFCURVE",
"101 474 OFFCURVE",
"101 378 CURVE SMOOTH",
"101 308 OFFCURVE",
"141 268 OFFCURVE",
"214 250 CURVE SMOOTH",
"296 230 LINE SMOOTH",
"358 215 OFFCURVE",
"379 191 OFFCURVE",
"379 142 CURVE SMOOTH",
"379 67 OFFCURVE",
"330 30 OFFCURVE",
"230 30 CURVE SMOOTH",
"138 30 OFFCURVE",
"95 63 OFFCURVE",
"97 140 CURVE",
"45 140 LINE",
"41 40 OFFCURVE",
"110 -15 OFFCURVE",
"227 -15 CURVE SMOOTH"
);
}
);
};
guideLines = (
{
angle = 166.293;
position = "{296, 230}";
},
{
angle = -13.707;
position = "{308, 275}";
}
);
layerId = "3EA3D867-BB2D-4979-9C60-B32A886F64F9";
name = "Sep 27 17, 16:22";
paths = (
{
closed = 1;
nodes = (
"357 -15 OFFCURVE",
"430 44 OFFCURVE",
"430 145 CURVE SMOOTH",
"430 214 OFFCURVE",
"391 255 OFFCURVE",
"308 275 CURVE SMOOTH",
"226 295 LINE SMOOTH",
"176 307 OFFCURVE",
"152 334 OFFCURVE",
"152 380 CURVE SMOOTH",
"152 450 OFFCURVE",
"198 485 OFFCURVE",
"287 485 CURVE SMOOTH",
"369 485 OFFCURVE",
"409 455 OFFCURVE",
"411 379 CURVE",
"463 379 LINE",
"466 476 OFFCURVE",
"397 530 OFFCURVE",
"290 530 CURVE SMOOTH",
"170 530 OFFCURVE",
"101 474 OFFCURVE",
"101 378 CURVE SMOOTH",
"101 308 OFFCURVE",
"141 268 OFFCURVE",
"214 250 CURVE SMOOTH",
"296 230 LINE SMOOTH",
"358 215 OFFCURVE",
"379 191 OFFCURVE",
"379 142 CURVE SMOOTH",
"379 67 OFFCURVE",
"330 30 OFFCURVE",
"230 30 CURVE SMOOTH",
"138 30 OFFCURVE",
"95 63 OFFCURVE",
"97 140 CURVE",
"45 140 LINE",
"41 40 OFFCURVE",
"110 -15 OFFCURVE",
"227 -15 CURVE SMOOTH"
);
}
);
width = 513;
},
{
anchors = (
{
name = bottom;
position = "{245, 0}";
},
{
name = top;
position = "{334, 535}";
}
);
associatedMasterId = "C1DA716A-5F29-4CD0-A38F-CCADF5849A80";
background = {
anchors = (
{
name = bottom;
position = "{245, 0}";
},
{
name = top;
position = "{334, 535}";
}
);
paths = (
{
closed = 1;
nodes = (
"410 -15 OFFCURVE",
"523 42 OFFCURVE",
"523 182 CURVE SMOOTH",
"523 261 OFFCURVE",
"459 306 OFFCURVE",
"365 328 CURVE SMOOTH",
"305 342 LINE SMOOTH",
"265 351 OFFCURVE",
"253 363 OFFCURVE",
"253 383 CURVE SMOOTH",
"253 407 OFFCURVE",
"276 419 OFFCURVE",
"309 419 CURVE SMOOTH",
"350 419 OFFCURVE",
"365 402 OFFCURVE",
"365 369 CURVE",
"557 369 LINE",
"557 486 OFFCURVE",
"472 550 OFFCURVE",
"321 550 CURVE SMOOTH",
"161 550 OFFCURVE",
"60 487 OFFCURVE",
"60 361 CURVE SMOOTH",
"60 281 OFFCURVE",
"109 226 OFFCURVE",
"214 203 CURVE SMOOTH",
"282 188 LINE SMOOTH",
"321 179 OFFCURVE",
"328 166 OFFCURVE",
"328 150 CURVE SMOOTH",
"328 127 OFFCURVE",
"309 115 OFFCURVE",
"270 115 CURVE SMOOTH",
"227 115 OFFCURVE",
"211 131 OFFCURVE",
"209 165 CURVE",
"17 165 LINE",
"14 44 OFFCURVE",
"99 -15 OFFCURVE",
"254 -15 CURVE SMOOTH"
);
}
);
};
layerId = "A611FA9B-88AB-4381-83C3-65CCC488E4C5";
name = "Sep 27 17, 16:27";
paths = (
{
closed = 1;
nodes = (
"410 -15 OFFCURVE",
"523 42 OFFCURVE",
"523 182 CURVE SMOOTH",
"523 261 OFFCURVE",
"459 306 OFFCURVE",
"365 328 CURVE SMOOTH",
"305 342 LINE SMOOTH",
"265 351 OFFCURVE",
"253 363 OFFCURVE",
"253 383 CURVE SMOOTH",
"253 407 OFFCURVE",
"276 419 OFFCURVE",
"309 419 CURVE SMOOTH",
"350 419 OFFCURVE",
"365 402 OFFCURVE",
"365 369 CURVE",
"557 369 LINE",
"557 486 OFFCURVE",
"472 550 OFFCURVE",
"321 550 CURVE SMOOTH",
"161 550 OFFCURVE",
"60 487 OFFCURVE",
"60 361 CURVE SMOOTH",
"60 281 OFFCURVE",
"109 226 OFFCURVE",
"214 203 CURVE SMOOTH",
"282 188 LINE SMOOTH",
"321 179 OFFCURVE",
"328 166 OFFCURVE",
"328 150 CURVE SMOOTH",
"328 127 OFFCURVE",
"309 115 OFFCURVE",
"270 115 CURVE SMOOTH",
"227 115 OFFCURVE",
"211 131 OFFCURVE",
"209 165 CURVE",
"17 165 LINE",
"14 44 OFFCURVE",
"99 -15 OFFCURVE",
"254 -15 CURVE SMOOTH"
);
}
);
width = 577;
},
{
anchors = (
{
name = bottom;
position = "{226, 0}";
},
{
name = top;
position = "{305, 515}";
}
);
associatedMasterId = "CC363ACD-D5A5-4E19-A940-9AF36D109D9E";
background = {
anchors = (
{
name = bottom;
position = "{222, 0}";
},
{
name = top;
position = "{306, 515}";
}
);
paths = (
{
closed = 1;
nodes = (
"349 -15 OFFCURVE",
"430 39 OFFCURVE",
"430 147 CURVE SMOOTH",
"430 217 OFFCURVE",
"375 252 OFFCURVE",
"296 276 CURVE SMOOTH",
"247 291 LINE SMOOTH",
"188 309 OFFCURVE",
"152 334 OFFCURVE",
"152 378 CURVE SMOOTH",
"152 447 OFFCURVE",
"199 483 OFFCURVE",
"293 483 CURVE SMOOTH",
"376 483 OFFCURVE",
"410 447 OFFCURVE",
"411 379 CURVE",
"464 379 LINE",
"467 466 OFFCURVE",
"408 530 OFFCURVE",
"295 530 CURVE SMOOTH",
"173 530 OFFCURVE",
"101 473 OFFCURVE",
"101 375 CURVE SMOOTH",
"101 301 OFFCURVE",
"162 266 OFFCURVE",
"228 246 CURVE SMOOTH",
"288 228 LINE SMOOTH",
"342 212 OFFCURVE",
"378 188 OFFCURVE",
"378 142 CURVE SMOOTH",
"378 65 OFFCURVE",
"322 31 OFFCURVE",
"227 31 CURVE SMOOTH",
"141 31 OFFCURVE",
"95 59 OFFCURVE",
"97 140 CURVE",
"44 140 LINE",
"40 38 OFFCURVE",
"106 -15 OFFCURVE",
"229 -15 CURVE SMOOTH"
);
}
);
};
guideLines = (
{
angle = 166.293;
position = "{293, 230}";
},
{
angle = -13.707;
position = "{305, 275}";
},
{
angle = 256.8313;
position = "{229, 153}";
showMeasurement = 1;
}
);
layerId = "C9C38675-991D-44E1-B5E7-084FC7C680B3";
name = "Sep 29 17, 09:46";
paths = (
{
closed = 1;
nodes = (
"355 -15 OFFCURVE",
"428 46 OFFCURVE",
"428 146 CURVE SMOOTH",
"428 213 OFFCURVE",
"388 254 OFFCURVE",
"305 275 CURVE SMOOTH",
"222 296 LINE SMOOTH",
"173 309 OFFCURVE",
"149 335 OFFCURVE",
"149 381 CURVE SMOOTH",
"149 449 OFFCURVE",
"195 485 OFFCURVE",
"284 485 CURVE SMOOTH",
"366 485 OFFCURVE",
"406 455 OFFCURVE",
"408 379 CURVE",
"460 379 LINE",
"463 476 OFFCURVE",
"394 530 OFFCURVE",
"287 530 CURVE SMOOTH",
"167 530 OFFCURVE",
"98 473 OFFCURVE",
"98 378 CURVE SMOOTH",
"98 309 OFFCURVE",
"138 269 OFFCURVE",
"211 250 CURVE SMOOTH",
"294 229 LINE SMOOTH",
"356 213 OFFCURVE",
"377 189 OFFCURVE",
"377 142 CURVE SMOOTH",
"377 69 OFFCURVE",
"328 30 OFFCURVE",
"228 30 CURVE SMOOTH",
"137 30 OFFCURVE",
"93 63 OFFCURVE",
"95 140 CURVE",
"43 140 LINE",
"39 40 OFFCURVE",
"109 -15 OFFCURVE",
"225 -15 CURVE SMOOTH"
);
}
);
width = 509;
},
{
anchors = (
{
name = bottom;
position = "{258, 0}";
},
{
name = top;
position = "{319, 525}";
}
);
associatedMasterId = "CC363ACD-D5A5-4E19-A940-9AF36D109D9E";
background = {
paths = (
{
closed = 1;
nodes = (
"389 -15 OFFCURVE",
"496 52 OFFCURVE",
"496 168 CURVE SMOOTH",
"496 253 OFFCURVE",
"445 293 OFFCURVE",
"341 312 CURVE SMOOTH",
"271 325 LINE SMOOTH",
"229 333 OFFCURVE",
"213 350 OFFCURVE",
"213 376 CURVE SMOOTH",
"213 414 OFFCURVE",
"246 435 OFFCURVE",
"302 435 CURVE SMOOTH",
"364 435 OFFCURVE",
"385 418 OFFCURVE",
"384 373 CURVE",
"520 373 LINE",
"526 481 OFFCURVE",
"465 540 OFFCURVE",
"307 540 CURVE SMOOTH",
"168 540 OFFCURVE",
"77 480 OFFCURVE",
"77 362 CURVE SMOOTH",
"77 274 OFFCURVE",
"132 234 OFFCURVE",
"221 217 CURVE SMOOTH",
"291 204 LINE SMOOTH",
"345 194 OFFCURVE",
"360 179 OFFCURVE",
"360 154 CURVE SMOOTH",
"360 110 OFFCURVE",
"317 90 OFFCURVE",
"258 90 CURVE SMOOTH",
"190 90 OFFCURVE",
"161 109 OFFCURVE",
"162 157 CURVE",
"26 157 LINE",
"24 39 OFFCURVE",
"94 -15 OFFCURVE",
"256 -15 CURVE SMOOTH"
);
}
);
};
layerId = "754059F4-B6FF-448B-9855-BCEE341C79D6";
name = "Oct 3 17, 17:24";
paths = (
{
closed = 1;
nodes = (
"389 -15 OFFCURVE",
"496 52 OFFCURVE",
"496 168 CURVE SMOOTH",
"496 253 OFFCURVE",
"445 293 OFFCURVE",
"341 312 CURVE SMOOTH",
"271 325 LINE SMOOTH",
"229 333 OFFCURVE",
"213 350 OFFCURVE",
"213 376 CURVE SMOOTH",
"213 414 OFFCURVE",
"246 435 OFFCURVE",
"302 435 CURVE SMOOTH",
"364 435 OFFCURVE",
"385 418 OFFCURVE",
"384 373 CURVE",
"520 373 LINE",
"526 481 OFFCURVE",
"465 540 OFFCURVE",
"307 540 CURVE SMOOTH",
"168 540 OFFCURVE",
"77 480 OFFCURVE",
"77 362 CURVE SMOOTH",
"77 274 OFFCURVE",
"132 234 OFFCURVE",
"221 217 CURVE SMOOTH",
"291 204 LINE SMOOTH",
"345 194 OFFCURVE",
"360 179 OFFCURVE",
"360 154 CURVE SMOOTH",
"360 110 OFFCURVE",
"317 90 OFFCURVE",
"258 90 CURVE SMOOTH",
"190 90 OFFCURVE",
"161 109 OFFCURVE",
"162 157 CURVE",
"26 157 LINE",
"24 39 OFFCURVE",
"94 -15 OFFCURVE",
"256 -15 CURVE SMOOTH"
);
}
);
width = 561;
},
{
anchors = (
{
name = bottom;
position = "{245, 0}";
},
{
name = top;
position = "{334, 535}";
}
);
associatedMasterId = "C1DA716A-5F29-4CD0-A38F-CCADF5849A80";
background = {
anchors = (
{
name = bottom;
position = "{245, 0}";
},
{
name = top;
position = "{334, 535}";
}
);
paths = (
{
closed = 1;
nodes = (
"410 -15 OFFCURVE",
"523 42 OFFCURVE",
"523 182 CURVE SMOOTH",
"523 261 OFFCURVE",
"459 306 OFFCURVE",
"365 328 CURVE SMOOTH",
"305 342 LINE SMOOTH",
"265 351 OFFCURVE",
"253 363 OFFCURVE",
"253 383 CURVE SMOOTH",
"253 407 OFFCURVE",
"276 419 OFFCURVE",
"309 419 CURVE SMOOTH",
"350 419 OFFCURVE",
"365 402 OFFCURVE",
"365 369 CURVE",
"557 369 LINE",
"557 486 OFFCURVE",
"472 550 OFFCURVE",
"321 550 CURVE SMOOTH",
"161 550 OFFCURVE",
"60 487 OFFCURVE",
"60 361 CURVE SMOOTH",
"60 281 OFFCURVE",
"109 226 OFFCURVE",
"214 203 CURVE SMOOTH",
"282 188 LINE SMOOTH",
"321 179 OFFCURVE",
"328 166 OFFCURVE",
"328 150 CURVE SMOOTH",
"328 127 OFFCURVE",
"309 115 OFFCURVE",
"270 115 CURVE SMOOTH",
"227 115 OFFCURVE",
"211 131 OFFCURVE",
"209 165 CURVE",
"17 165 LINE",
"14 44 OFFCURVE",
"99 -15 OFFCURVE",
"254 -15 CURVE SMOOTH"
);
}
);
};
layerId = "7B4EF5A9-9A94-45B5-8843-F2E75965330F";
name = "Oct 4 17, 22:35";
paths = (
{
closed = 1;
nodes = (
"410 -15 OFFCURVE",
"523 42 OFFCURVE",
"523 182 CURVE SMOOTH",
"523 261 OFFCURVE",
"459 314 OFFCURVE",
"365 330 CURVE SMOOTH",
"302 341 LINE SMOOTH",
"265 347 OFFCURVE",
"252 359 OFFCURVE",
"253 382 CURVE SMOOTH",
"254 407 OFFCURVE",
"276 419 OFFCURVE",
"309 419 CURVE SMOOTH",
"350 419 OFFCURVE",
"366 402 OFFCURVE",
"365 369 CURVE",
"555 369 LINE",
"558 486 OFFCURVE",
"475 550 OFFCURVE",
"320 550 CURVE SMOOTH",
"160 550 OFFCURVE",
"60 487 OFFCURVE",
"60 361 CURVE SMOOTH",
"60 281 OFFCURVE",
"109 218 OFFCURVE",
"214 201 CURVE SMOOTH",
"282 190 LINE SMOOTH",
"321 184 OFFCURVE",
"328 166 OFFCURVE",
"328 150 CURVE SMOOTH",
"328 127 OFFCURVE",
"309 115 OFFCURVE",
"270 115 CURVE SMOOTH",
"227 115 OFFCURVE",
"211 131 OFFCURVE",
"209 165 CURVE",
"17 165 LINE",
"14 44 OFFCURVE",
"99 -15 OFFCURVE",
"254 -15 CURVE SMOOTH"
);
}
);
width = 577;
},
{
anchors = (
{
name = bottom;
position = "{223, 0}";
},
{
name = top;
position = "{286, 528}";
}
);
background = {
paths = (
{
closed = 1;
nodes = (
"350 -15 OFFCURVE",
"420 41 OFFCURVE",
"439 151 CURVE SMOOTH",
"454 236 OFFCURVE",
"411 277 OFFCURVE",
"305 303 CURVE SMOOTH",
"249 317 LINE SMOOTH",
"196 330 OFFCURVE",
"174 349 OFFCURVE",
"181 390 CURVE SMOOTH",
"189 439 OFFCURVE",
"218 464 OFFCURVE",
"282 464 CURVE SMOOTH",
"347 464 OFFCURVE",
"372 439 OFFCURVE",
"377 379 CURVE",
"476 379 LINE",
"464 495 OFFCURVE",
"415 545 OFFCURVE",
"287 545 CURVE SMOOTH",
"164 545 OFFCURVE",
"102 488 OFFCURVE",
"84 387 CURVE SMOOTH",
"67 293 OFFCURVE",
"118 256 OFFCURVE",
"213 230 CURVE SMOOTH",
"264 216 LINE SMOOTH",
"323 200 OFFCURVE",
"348 185 OFFCURVE",
"340 141 CURVE SMOOTH",
"331 92 OFFCURVE",
"298 65 OFFCURVE",
"228 65 CURVE SMOOTH",
"154 65 OFFCURVE",
"128 91 OFFCURVE",
"113 155 CURVE",
"14 155 LINE",
"29 43 OFFCURVE",
"87 -15 OFFCURVE",
"222 -15 CURVE SMOOTH"
);
}
);
};
guideLines = (
{
angle = 80;
position = "{504, 353}";
}
);
layerId = "6641C2CA-B9F9-47EE-AEEC-6BEE387D8CB9";
paths = (
{
closed = 1;
nodes = (
"338 -15 OFFCURVE",
"418 31 OFFCURVE",
"433 131 CURVE SMOOTH",
"446 216 OFFCURVE",
"409 271 OFFCURVE",
"304 299 CURVE SMOOTH",
"248 314 LINE SMOOTH",
"195 328 OFFCURVE",
"176 357 OFFCURVE",
"183 398 CURVE SMOOTH",
"191 447 OFFCURVE",
"224 464 OFFCURVE",
"281 464 CURVE SMOOTH",
"344 464 OFFCURVE",
"369 439 OFFCURVE",
"376 379 CURVE",
"474 379 LINE",
"457 495 OFFCURVE",
"404 545 OFFCURVE",
"286 545 CURVE SMOOTH",
"173 545 OFFCURVE",
"103 498 OFFCURVE",
"88 407 CURVE SMOOTH",
"72 313 OFFCURVE",
"117 259 OFFCURVE",
"212 233 CURVE SMOOTH",
"263 219 LINE SMOOTH",
"328 201 OFFCURVE",
"342 175 OFFCURVE",
"336 136 CURVE SMOOTH",
"329 92 OFFCURVE",
"292 65 OFFCURVE",
"227 65 CURVE SMOOTH",
"153 65 OFFCURVE",
"132 91 OFFCURVE",
"112 155 CURVE",
"14 155 LINE",
"32 35 OFFCURVE",
"94 -15 OFFCURVE",
"222 -15 CURVE SMOOTH"
);
}
);
width = 495;
}
);
unicode = 0073;
userData = {
RMXScaler = {
source = s;
};
};
},
{
color = 9;
glyphname = t;
lastChange = "2018-07-13 14:14:58 +0000";
layers = (
{
anchors = (
{
name = bottom;
position = "{166, 0}";
},
{
name = topright;
position = "{292, 525}";
}
);
background = {
paths = (
{
closed = 1;
nodes = (
"55 497 LINE",
"345 497 LINE",
"348 515 LINE",
"58 515 LINE"
);
},
{
closed = 1;
nodes = (
"267 22 LINE",
"239 11 OFFCURVE",
"218 8 OFFCURVE",
"186 8 CURVE SMOOTH",
"119 8 OFFCURVE",
"101 46 OFFCURVE",
"114 119 CURVE SMOOTH",
"207 650 LINE",
"191 650 LINE",
"163 515 LINE",
"94 119 LINE SMOOTH",
"79 36 OFFCURVE",
"108 -10 OFFCURVE",
"185 -10 CURVE SMOOTH",
"215 -10 OFFCURVE",
"239 -6 OFFCURVE",
"264 3 CURVE"
);
}
);
};
layerId = "CC363ACD-D5A5-4E19-A940-9AF36D109D9E";
paths = (
{
closed = 1;
nodes = (
"55 497 LINE",
"340 497 LINE",
"343 515 LINE",
"58 515 LINE"
);
},
{
closed = 1;
nodes = (
"264 22 LINE",
"236 11 OFFCURVE",
"215 8 OFFCURVE",
"186 8 CURVE SMOOTH",
"119 8 OFFCURVE",
"103 52 OFFCURVE",
"116 129 CURVE SMOOTH",
"207 650 LINE",
"191 650 LINE",
"163 515 LINE",
"96 129 LINE SMOOTH",
"81 42 OFFCURVE",
"108 -10 OFFCURVE",
"185 -10 CURVE SMOOTH",
"212 -10 OFFCURVE",
"236 -6 OFFCURVE",
"261 3 CURVE"
);
}
);
width = 336;
},
{
anchors = (
{
name = bottom;
position = "{204, 0}";
},
{
name = topright;
position = "{438, 555}";
}
);
background = {
paths = (
{
closed = 1;
nodes = (
"25 380 LINE",
"417 380 LINE",
"445 535 LINE",
"53 535 LINE"
);
},
{
closed = 1;
nodes = (
"366 153 LINE",
"351 150 OFFCURVE",
"336 148 OFFCURVE",
"321 148 CURVE SMOOTH",
"280 148 OFFCURVE",
"269 165 OFFCURVE",
"278 216 CURVE SMOOTH",
"361 690 LINE",
"185 690 LINE",
"129 535 LINE",
"71 204 LINE SMOOTH",
"45 53 OFFCURVE",
"90 -15 OFFCURVE",
"241 -15 CURVE SMOOTH",
"289 -15 OFFCURVE",
"330 -6 OFFCURVE",
"361 4 CURVE"
);
}
);
};
guideLines = (
{
angle = 80;
position = "{464, 675}";
}
);
layerId = "C1DA716A-5F29-4CD0-A38F-CCADF5849A80";
paths = (
{
closed = 1;
nodes = (
"25 380 LINE",
"413 380 LINE",
"441 535 LINE",
"53 535 LINE"
);
},
{
closed = 1;
nodes = (
"373 153 LINE",
"358 150 OFFCURVE",
"346 148 OFFCURVE",
"329 148 CURVE SMOOTH",
"288 148 OFFCURVE",
"270 170 OFFCURVE",
"280 226 CURVE SMOOTH",
"359 680 LINE",
"183 680 LINE",
"129 535 LINE",
"74 221 LINE SMOOTH",
"48 70 OFFCURVE",
"85 -15 OFFCURVE",
"236 -15 CURVE SMOOTH",
"284 -15 OFFCURVE",
"315 -8 OFFCURVE",
"346 0 CURVE"
);
}
);
width = 414;
},
{
anchors = (
{
name = bottom;
position = "{186, 0}";
},
{
name = topright;
position = "{359, 540}";
}
);
background = {
paths = (
{
closed = 1;
nodes = (
"34 443 LINE",
"391 443 LINE",
"406 528 LINE",
"49 528 LINE"
);
},
{
closed = 1;
nodes = (
"320 83 LINE",
"301 78 OFFCURVE",
"278 74 OFFCURVE",
"253 74 CURVE SMOOTH",
"198 74 OFFCURVE",
"177 96 OFFCURVE",
"189 166 CURVE SMOOTH",
"281 690 LINE",
"201 690 LINE",
"152 528 LINE",
"89 166 LINE SMOOTH",
"69 50 OFFCURVE",
"118 -13 OFFCURVE",
"231 -13 CURVE SMOOTH",
"267 -13 OFFCURVE",
"290 -6 OFFCURVE",
"315 1 CURVE"
);
}
);
};
layerId = "6641C2CA-B9F9-47EE-AEEC-6BEE387D8CB9";
paths = (
{
closed = 1;
nodes = (
"37 443 LINE",
"376 443 LINE",
"391 528 LINE",
"52 528 LINE"
);
},
{
closed = 1;
nodes = (
"320 83 LINE",
"301 78 OFFCURVE",
"278 74 OFFCURVE",
"253 74 CURVE SMOOTH",
"198 74 OFFCURVE",
"179 106 OFFCURVE",
"191 176 CURVE SMOOTH",
"278 670 LINE",
"198 670 LINE",
"152 528 LINE",
"91 176 LINE SMOOTH",
"71 60 OFFCURVE",
"108 -13 OFFCURVE",
"221 -13 CURVE SMOOTH",
"253 -13 OFFCURVE",
"280 -9 OFFCURVE",
"305 -2 CURVE"
);
}
);
width = 372;
}
);
unicode = 0074;
userData = {
RMXScaler = {
source = t;
};
};
},
